SplineFontDB: 3.0
FontName: KAN-BadamiItalic
FullName: KAN Badami Italic
FamilyName: KAN Badami
Weight: Book
Copyright: Copyright (c) 2009-2015, NLCI (http://www.nlci.in/fonts/)
Version: 1.0 Sat Apr 29 15:03:15 1995
ItalicAngle: 12
UnderlinePosition: -290
UnderlineWidth: 20
Ascent: 800
Descent: 200
InvalidEm: 0
LayerCount: 2
Layer: 0 0 "Back" 1
Layer: 1 0 "Fore" 0
XUID: [1021 562 231314170 16760438]
FSType: 0
OS2Version: 0
OS2_WeightWidthSlopeOnly: 0
OS2_UseTypoMetrics: 1
CreationTime: 1250825675
ModificationTime: 1533324714
PfmFamily: 81
TTFWeight: 400
TTFWidth: 5
LineGap: 0
VLineGap: 0
Panose: 2 0 0 3 0 0 0 0 0 0
OS2TypoAscent: -72
OS2TypoAOffset: 1
OS2TypoDescent: -196
OS2TypoDOffset: 1
OS2TypoLinegap: 0
OS2WinAscent: -117
OS2WinAOffset: 1
OS2WinDescent: -156
OS2WinDOffset: 1
HheadAscent: -117
HheadAOffset: 1
HheadDescent: 156
HheadDOffset: 1
OS2SubXSize: 700
OS2SubYSize: 650
OS2SubXOff: 0
OS2SubYOff: 143
OS2SupXSize: 700
OS2SupYSize: 650
OS2SupXOff: 0
OS2SupYOff: 453
OS2StrikeYSize: 50
OS2StrikeYPos: 259
OS2Vendor: 'Alts'
OS2UnicodeRanges: 00000000.00000000.00000000.00000000
Lookup: 262 0 0 "blwm" { "blwm-2sub"  } []
MarkAttachClasses: 1
DEI: 91125
TtTable: prep
NPUSHB
 1
 1
SCANTYPE
PUSHW_1
 511
SCANCTRL
EndTTInstrs
ShortTable: maxp 16
  1
  0
  319
  159
  6
  209
  8
  2
  8
  64
  10
  0
  3
  557
  4
  2
EndShort
LangName: 1033 "" "" "Italic" "NLCI:KAN Badami Italic" "" "1.0 Sat Apr 29 15:03:15 1995"
Encoding: Original
UnicodeInterp: none
NameList: Adobe Glyph List
DisplaySize: -48
AntiAlias: 1
FitToEm: 1
BeginPrivate: 0
EndPrivate
AnchorClass2: "Sub" "blwm-2sub" "Nukta"""  "s"""  "V""" 
BeginChars: 614 614

StartChar: .notdef
Encoding: 0 -1 0
Width: 500
Flags: HW
LayerCount: 2
Fore
SplineSet
31 0 m 1
 31 627 l 1
 469 627 l 1
 469 0 l 1
 31 0 l 1
438 31 m 1
 438 596 l 1
 62 596 l 1
 62 31 l 1
 438 31 l 1
EndSplineSet
EndChar

StartChar: exclam
Encoding: 4 33 4
Width: 211
VWidth: 500
Flags: HW
LayerCount: 2
Fore
SplineSet
130 194 m 0
 123.333007812 189.333007812 117 185.333007812 111 182 c 0
 105 178.666992188 97.6669921875 175.666992188 89 173 c 0
 78 184 l 0
 114 651 l 0
 122 656 122 656 134 663.5 c 0
 142 668.5 150.5 673.5 159.5 678.5 c 0
 168.5 683.5 177.333007812 688 186 692 c 0
 194.666992188 696 202.333007812 699 209 701 c 0
 228 688 l 0
 130 194 l 0
149 77 m 0
 149 66.3330078125 147.333007812 55.6669921875 144 45 c 0
 140.666992188 34.3330078125 135.5 24.5 128.5 15.5 c 0
 121.5 6.5 113.166992188 -0.8330078125 103.5 -6.5 c 0
 93.8330078125 -12.1669921875 83 -15 71 -15 c 0
 55.6669921875 -15 44 -10.3330078125 36 -1 c 0
 28 8.3330078125 24 20.6669921875 24 36 c 0
 24 46 26 56.1669921875 30 66.5 c 0
 34 76.8330078125 39.5 86.3330078125 46.5 95 c 0
 53.5 103.666992188 61.8330078125 110.833007812 71.5 116.5 c 0
 81.1669921875 122.166992188 91.6669921875 125 103 125 c 0
 117.666992188 125 129 120.5 137 111.5 c 0
 145 102.5 149 91 149 77 c 0
EndSplineSet
EndChar

StartChar: quotedbl
Encoding: 5 34 5
Width: 402
VWidth: 500
Flags: HW
LayerCount: 2
Fore
SplineSet
320 424 m 0
 314.666992188 421.333007812 308.333007812 419.333007812 301 418 c 0
 293.666992188 416.666992188 286.333007812 416 279 416 c 0
 290 670 l 0
 294 672 299.333007812 674.5 306 677.5 c 0
 312.666992188 680.5 319.666992188 683.333007812 327 686 c 0
 334.333007812 688.666992188 341.333007812 691.166992188 348 693.5 c 0
 354.666992188 695.833007812 359.666992188 697.333007812 363 698 c 0
 382 687 l 0
 320 424 l 0
153 424 m 0
 147.666992188 421.333007812 141.333007812 419.333007812 134 418 c 0
 126.666992188 416.666992188 119.333007812 416 112 416 c 0
 123 670 l 0
 127 672 132.333007812 674.5 139 677.5 c 0
 145.666992188 680.5 152.666992188 683.333007812 160 686 c 0
 167.333007812 688.666992188 174.333007812 691.166992188 181 693.5 c 0
 187.666992188 695.833007812 192.666992188 697.333007812 196 698 c 0
 216 687 l 0
 153 424 l 0
EndSplineSet
EndChar

StartChar: numbersign
Encoding: 6 35 6
Width: 419
VWidth: 500
Flags: HW
LayerCount: 2
Fore
SplineSet
180 291 m 0
 264 291 l 0
 310 411 l 0
 226 411 l 0
 180 291 l 0
388 472 m 0
 457 472 l 0
 466 459 l 0
 464.666992188 455.666992188 463 451.666992188 461 447 c 0
 459 442.333007812 457 437.833007812 455 433.5 c 0
 453 429.166992188 450.833007812 425 448.5 421 c 0
 446.166992188 417 444.333007812 413.666992188 443 411 c 0
 364 411 l 0
 319 291 l 0
 390 291 l 0
 399 277 l 0
 397.666992188 273.666992188 396 270 394 266 c 0
 392 262 390 257.666992188 388 253 c 0
 386 248.333007812 384 244 382 240 c 0
 380 236 378.333007812 232.333007812 377 229 c 0
 295 229 l 0
 240 83 l 0
 234 78.3330078125 226.666992188 74.3330078125 218 71 c 0
 209.333007812 67.6669921875 200.666992188 64.6669921875 192 62 c 0
 182 72 l 0
 241 229 l 0
 157 229 l 0
 102 83 l 0
 96 78.3330078125 88.5 74.3330078125 79.5 71 c 0
 70.5 67.6669921875 62 64.6669921875 54 62 c 0
 42 72 l 0
 102 229 l 0
 34 229 l 0
 25 242 l 0
 26.3330078125 245.333007812 27.8330078125 249 29.5 253 c 0
 31.1669921875 257 33 261.333007812 35 266 c 0
 42 279 l 0
 44 283.666992188 46 287.666992188 48 291 c 0
 125 291 l 0
 171 411 l 0
 101 411 l 0
 92 422 l 0
 94.6669921875 429.333007812 98.1669921875 437.833007812 102.5 447.5 c 0
 106.833007812 457.166992188 111 465.333007812 115 472 c 0
 194 472 l 0
 247 611 l 0
 253.666992188 616.333007812 261.5 620.166992188 270.5 622.5 c 0
 279.5 624.833007812 287.333007812 627.666992188 294 631 c 0
 305 620 l 0
 249 472 l 0
 333 472 l 0
 385 611 l 0
 392.333007812 616.333007812 400.333007812 620.166992188 409 622.5 c 0
 417.666992188 624.833007812 425.666992188 627.666992188 433 631 c 0
 444 620 l 0
 388 472 l 0
EndSplineSet
EndChar

StartChar: dollar
Encoding: 7 36 7
Width: 419
VWidth: 500
Flags: HW
LayerCount: 2
Fore
SplineSet
131 464 m 0
 131 457.333007812 132 450.666992188 134 444 c 0
 136 437.333007812 139.666992188 430.666992188 145 424 c 0
 150.333007812 417.333007812 157.666992188 410.333007812 167 403 c 0
 176.333007812 395.666992188 188.333007812 387.666992188 203 379 c 0
 227 549 l 0
 213 547.666992188 200 544.333007812 188 539 c 0
 176 533.666992188 165.833007812 527 157.5 519 c 0
 149.166992188 511 142.666992188 502.333007812 138 493 c 0
 133.333007812 483.666992188 131 474 131 464 c 0
305 167 m 0
 305 186.333007812 299.333007812 203.833007812 288 219.5 c 0
 276.666992188 235.166992188 257.666992188 251 231 267 c 0
 201 50 l 0
 215.666992188 52.6669921875 229.5 57.5 242.5 64.5 c 0
 255.5 71.5 266.5 80.1669921875 275.5 90.5 c 0
 284.5 100.833007812 291.666992188 112.5 297 125.5 c 0
 302.333007812 138.5 305 152.333007812 305 167 c 0
406 559 m 0
 408 557.666992188 407 553.166992188 403 545.5 c 0
 399 537.833007812 394.166992188 529.5 388.5 520.5 c 0
 382.833007812 511.5 376.833007812 503 370.5 495 c 0
 364.166992188 487 359.666992188 482 357 480 c 0
 338 483 l 0
 331.333007812 496.333007812 322.166992188 508.5 310.5 519.5 c 0
 298.833007812 530.5 285.666992188 538.666992188 271 544 c 0
 244 358 l 0
 266.666992188 346.666992188 286.5 335.666992188 303.5 325 c 0
 320.5 314.333007812 334.5 302.833007812 345.5 290.5 c 0
 356.5 278.166992188 364.666992188 265 370 251 c 0
 375.333007812 237 378 221.333007812 378 204 c 0
 378 178.666992188 373.5 154.666992188 364.5 132 c 0
 355.5 109.333007812 342.833007812 88.5 326.5 69.5 c 0
 310.166992188 50.5 290.5 34.1669921875 267.5 20.5 c 0
 244.5 6.8330078125 219.333007812 -3 192 -9 c 0
 185 -66 l 0
 179 -70.6669921875 173.666992188 -74.3330078125 169 -77 c 0
 164.333007812 -79.6669921875 158 -81.6669921875 150 -83 c 0
 139 -72 l 0
 146 -15 l 0
 144 -15 144 -15 141 -15 c 0
 135 -15 l 0
 122.333007812 -15 107.833007812 -12.8330078125 91.5 -8.5 c 0
 75.1669921875 -4.1669921875 59.6669921875 1.5 45 8.5 c 0
 30.3330078125 15.5 18 23.1669921875 8 31.5 c 0
 -2 39.8330078125 -7 48.3330078125 -7 57 c 0
 -7 61 -5 67.1669921875 -1 75.5 c 0
 3 83.8330078125 7.8330078125 92.3330078125 13.5 101 c 0
 19.1669921875 109.666992188 25.3330078125 117.333007812 32 124 c 0
 38.6669921875 130.666992188 44 134 48 134 c 0
 51.3330078125 134 55.6669921875 130 61 122 c 0
 66.3330078125 114 73.1669921875 105 81.5 95 c 0
 89.8330078125 85 100 75.5 112 66.5 c 0
 124 57.5 138.666992188 51.6669921875 156 49 c 0
 189 289 l 0
 176 295 l 0
 134.666992188 313.666992188 105.333007812 334.5 88 357.5 c 0
 70.6669921875 380.5 62 405 62 431 c 0
 62 449 65.6669921875 467.166992188 73 485.5 c 0
 80.3330078125 503.833007812 91.3330078125 520.5 106 535.5 c 0
 120.666992188 550.5 138.666992188 563.5 160 574.5 c 0
 181.333007812 585.5 205.666992188 593.333007812 233 598 c 0
 241 653 l 0
 245 655.666992188 248.333007812 657.833007812 251 659.5 c 0
 253.666992188 661.166992188 256 662.666992188 258 664 c 0
 260 665.333007812 262.166992188 666.5 264.5 667.5 c 0
 266.833007812 668.5 270 669.666992188 274 671 c 0
 287 659 l 0
 278 601 l 0
 279 601 l 0
 303.666992188 601 327.166992188 596.833007812 349.5 588.5 c 0
 371.833007812 580.166992188 390.666992188 570.333007812 406 559 c 0
EndSplineSet
EndChar

StartChar: percent
Encoding: 8 37 8
Width: 653
VWidth: 500
Flags: HW
LayerCount: 2
Fore
SplineSet
322 475 m 0
 322 452.333007812 318.166992188 429.166992188 310.5 405.5 c 0
 302.833007812 381.833007812 291.666992188 360 277 340 c 0
 262.333007812 320 244.833007812 303.666992188 224.5 291 c 0
 204.166992188 278.333007812 181 272 155 272 c 0
 139 272 124.5 275.333007812 111.5 282 c 0
 98.5 288.666992188 87.3330078125 297.833007812 78 309.5 c 0
 68.6669921875 321.166992188 61.5 335 56.5 351 c 0
 51.5 367 49 383.666992188 49 401 c 0
 49 415.666992188 50.8330078125 431 54.5 447 c 0
 58.1669921875 463 63.3330078125 478.5 70 493.5 c 0
 76.6669921875 508.5 84.8330078125 522.666992188 94.5 536 c 0
 104.166992188 549.333007812 115.166992188 561 127.5 571 c 0
 139.833007812 581 153.5 589 168.5 595 c 0
 183.5 601 199.666992188 604 217 604 c 0
 233 604 247.5 600.666992188 260.5 594 c 0
 273.5 587.333007812 284.5 578.333007812 293.5 567 c 0
 302.5 555.666992188 309.5 542.166992188 314.5 526.5 c 0
 319.5 510.833007812 322 493.666992188 322 475 c 0
247 481 m 0
 247 510.333007812 242.333007812 531.5 233 544.5 c 0
 223.666992188 557.5 212.333007812 564 199 564 c 0
 189 564 180.166992188 560.833007812 172.5 554.5 c 0
 164.833007812 548.166992188 158.333007812 540 153 530 c 0
 147.666992188 520 143.166992188 508.5 139.5 495.5 c 0
 135.833007812 482.5 132.833007812 469.5 130.5 456.5 c 0
 128.166992188 443.5 126.666992188 431 126 419 c 0
 125.333007812 407 125 397 125 389 c 0
 125 361.666992188 129.333007812 341.833007812 138 329.5 c 0
 146.666992188 317.166992188 158.333007812 311 173 311 c 0
 182.333007812 311 190.5 314 197.5 320 c 0
 204.5 326 210.833007812 333.666992188 216.5 343 c 0
 222.166992188 352.333007812 226.833007812 363.166992188 230.5 375.5 c 0
 234.166992188 387.833007812 237.333007812 400.333007812 240 413 c 0
 242.666992188 425.666992188 244.5 437.833007812 245.5 449.5 c 0
 246.5 461.166992188 247 471.666992188 247 481 c 0
127 6 m 0
 123.666992188 4 119 2 113 0 c 0
 107 -2 100.833007812 -4.1669921875 94.5 -6.5 c 0
 88.1669921875 -8.8330078125 81.8330078125 -10.8330078125 75.5 -12.5 c 0
 69.1669921875 -14.1669921875 64.3330078125 -15.6669921875 61 -17 c 0
 51 0 l 0
 530 582 l 0
 534 584 538.833007812 586.166992188 544.5 588.5 c 0
 550.166992188 590.833007812 556 593 562 595 c 0
 568 597 573.833007812 598.833007812 579.5 600.5 c 0
 585.166992188 602.166992188 590 603.333007812 594 604 c 0
 606 588 l 0
 127 6 l 0
607 188 m 0
 607 165.333007812 603.166992188 142 595.5 118 c 0
 587.833007812 94 576.833007812 72.1669921875 562.5 52.5 c 0
 548.166992188 32.8330078125 530.666992188 16.6669921875 510 4 c 0
 489.333007812 -8.6669921875 466.333007812 -15 441 -15 c 0
 425 -15 410.333007812 -11.6669921875 397 -5 c 0
 383.666992188 1.6669921875 372.5 10.8330078125 363.5 22.5 c 0
 354.5 34.1669921875 347.333007812 47.8330078125 342 63.5 c 0
 336.666992188 79.1669921875 334 96.3330078125 334 115 c 0
 334 137.666992188 338 160.833007812 346 184.5 c 0
 354 208.166992188 365.333007812 229.666992188 380 249 c 0
 394.666992188 268.333007812 412.333007812 284.333007812 433 297 c 0
 453.666992188 309.666992188 476.666992188 316 502 316 c 0
 518 316 532.5 312.833007812 545.5 306.5 c 0
 558.5 300.166992188 569.666992188 291.333007812 579 280 c 0
 588.333007812 268.666992188 595.333007812 255.166992188 600 239.5 c 0
 604.666992188 223.833007812 607 206.666992188 607 188 c 0
532 194 m 0
 532 222.666992188 527.333007812 243.833007812 518 257.5 c 0
 508.666992188 271.166992188 497.666992188 278 485 278 c 0
 475 278 466.166992188 274.833007812 458.5 268.5 c 0
 450.833007812 262.166992188 444.333007812 253.833007812 439 243.5 c 0
 433.666992188 233.166992188 429.166992188 221.5 425.5 208.5 c 0
 421.833007812 195.5 419 182.5 417 169.5 c 0
 415 156.5 413.5 144 412.5 132 c 0
 411.5 120 411 110 411 102 c 0
 411 75.3330078125 415.166992188 55.6669921875 423.5 43 c 0
 431.833007812 30.3330078125 443.333007812 24 458 24 c 0
 467.333007812 24 475.666992188 27 483 33 c 0
 490.333007812 39 496.666992188 46.6669921875 502 56 c 0
 507.333007812 65.3330078125 511.833007812 76 515.5 88 c 0
 519.166992188 100 522.166992188 112.5 524.5 125.5 c 0
 526.833007812 138.5 528.666992188 150.833007812 530 162.5 c 0
 531.333007812 174.166992188 532 184.666992188 532 194 c 0
EndSplineSet
EndChar

StartChar: ampersand
Encoding: 9 38 9
Width: 597
VWidth: 500
Flags: HW
LayerCount: 2
Fore
SplineSet
638 365 m 0
 629.333007812 355 620.333007812 345.666992188 611 337 c 0
 601.666992188 328.333007812 593 321.333007812 585 316 c 0
 574.333007812 321.333007812 562.333007812 326 549 330 c 0
 535.666992188 334 524 336.333007812 514 337 c 0
 518.666992188 326.333007812 521.166992188 315.166992188 521.5 303.5 c 0
 521.833007812 291.833007812 521 276.333007812 519 257 c 0
 515.666992188 235 508 211.833007812 496 187.5 c 0
 484 163.166992188 468.333007812 139.333007812 449 116 c 0
 463 99.3330078125 476.333007812 84.6669921875 489 72 c 0
 510.333007812 49.3330078125 538 42 572 50 c 0
 574 24 l 0
 560 18 546.666992188 12.5 534 7.5 c 0
 521.333007812 2.5 509.833007812 -1.6669921875 499.5 -5 c 0
 489.166992188 -8.3330078125 480.333007812 -10.8330078125 473 -12.5 c 0
 465.666992188 -14.1669921875 460.333007812 -15 457 -15 c 0
 450.333007812 -15 440.166992188 -9.3330078125 426.5 2 c 0
 412.833007812 13.3330078125 397.333007812 29 380 49 c 0
 354 29.6669921875 326 14.1669921875 296 2.5 c 0
 266 -9.1669921875 234.666992188 -15 202 -15 c 0
 173.333007812 -15 147.5 -10.8330078125 124.5 -2.5 c 0
 101.5 5.8330078125 82.5 18.1669921875 67.5 34.5 c 0
 52.5 50.8330078125 42 70.8330078125 36 94.5 c 0
 30 118.166992188 29 145.333007812 33 176 c 0
 37.6669921875 212 54.1669921875 247.833007812 82.5 283.5 c 0
 110.833007812 319.166992188 149 354 197 388 c 0
 191.666992188 411.333007812 187.833007812 434.5 185.5 457.5 c 0
 183.166992188 480.5 183.666992188 502.666992188 187 524 c 0
 190.333007812 550.666992188 197.666992188 575.166992188 209 597.5 c 0
 220.333007812 619.833007812 234.166992188 639.166992188 250.5 655.5 c 0
 266.833007812 671.833007812 285 684.666992188 305 694 c 0
 325 703.333007812 345.666992188 708 367 708 c 0
 387 708 403.666992188 704.666992188 417 698 c 0
 430.333007812 691.333007812 440.666992188 682.166992188 448 670.5 c 0
 455.333007812 658.833007812 460.166992188 645.5 462.5 630.5 c 0
 464.833007812 615.5 465 600 463 584 c 0
 460.333007812 567.333007812 454.666992188 551 446 535 c 0
 437.333007812 519 426.5 503.333007812 413.5 488 c 0
 400.5 472.666992188 385.5 458 368.5 444 c 0
 351.5 430 333.333007812 417 314 405 c 0
 287 387 l 0
 302.333007812 345.666992188 321.666992188 305 345 265 c 0
 368.333007812 225 392.666992188 188.333007812 418 155 c 0
 436.666992188 183 448.333007812 210.333007812 453 237 c 0
 455 251.666992188 454.833007812 265.5 452.5 278.5 c 0
 450.166992188 291.5 446.333007812 302.666992188 441 312 c 0
 435.666992188 321.333007812 429.166992188 328.5 421.5 333.5 c 0
 413.833007812 338.5 405.333007812 341 396 341 c 0
 387 355 l 0
 390 358 390 358 394.5 362.5 c 0
 397.5 365.5 400.833007812 368.333007812 404.5 371 c 0
 408.166992188 373.666992188 411.833007812 376.166992188 415.5 378.5 c 0
 419.166992188 380.833007812 422.666992188 382.666992188 426 384 c 0
 628 384 l 0
 638 365 l 0
228 46 m 0
 251.333007812 46 273.166992188 49.5 293.5 56.5 c 0
 313.833007812 63.5 332.666992188 73.3330078125 350 86 c 0
 337.333007812 102 324.666992188 119.5 312 138.5 c 0
 299.333007812 157.5 287 177.666992188 275 199 c 0
 263 220.333007812 251.833007812 242.166992188 241.5 264.5 c 0
 231.166992188 286.833007812 221.666992188 309.666992188 213 333 c 0
 183 307.666992188 161 283.333007812 147 260 c 0
 133 236.666992188 124.333007812 212 121 186 c 0
 118.333007812 163.333007812 119.333007812 143.333007812 124 126 c 0
 128.666992188 108.666992188 136.166992188 94 146.5 82 c 0
 156.833007812 70 169.166992188 61 183.5 55 c 0
 197.833007812 49 212.666992188 46 228 46 c 0
262 552 m 0
 259.333007812 534 259 515.166992188 261 495.5 c 0
 263 475.833007812 266.666992188 455.666992188 272 435 c 0
 291.333007812 447 307.833007812 458.666992188 321.5 470 c 0
 335.166992188 481.333007812 346.333007812 492.666992188 355 504 c 0
 363.666992188 515.333007812 370.166992188 526.333007812 374.5 537 c 0
 378.833007812 547.666992188 381.666992188 558 383 568 c 0
 385 580 385.666992188 591.166992188 385 601.5 c 0
 384.333007812 611.833007812 382 620.833007812 378 628.5 c 0
 374 636.166992188 368.5 642 361.5 646 c 0
 354.5 650 345.666992188 652 335 652 c 0
 324.333007812 652 314.833007812 649.166992188 306.5 643.5 c 0
 298.166992188 637.833007812 291 630.333007812 285 621 c 0
 279 611.666992188 274 601 270 589 c 0
 266 577 263.333007812 564.666992188 262 552 c 0
EndSplineSet
EndChar

StartChar: quotesingle
Encoding: 10 39 10
Width: 211
VWidth: 500
Flags: HW
LayerCount: 2
Fore
SplineSet
153 424 m 0
 147.666992188 421.333007812 141.333007812 419.333007812 134 418 c 0
 126.666992188 416.666992188 119.333007812 416 112 416 c 0
 123 670 l 0
 127 672 132.333007812 674.5 139 677.5 c 0
 145.666992188 680.5 152.666992188 683.333007812 160 686 c 0
 167.333007812 688.666992188 174.333007812 691.166992188 181 693.5 c 0
 187.666992188 695.833007812 192.666992188 697.333007812 196 698 c 0
 216 687 l 0
 153 424 l 0
EndSplineSet
EndChar

StartChar: parenleft
Encoding: 11 40 11
Width: 299
VWidth: 500
Flags: HW
LayerCount: 2
Fore
SplineSet
351 756 m 0
 329 739.333007812 307.5 717.666992188 286.5 691 c 0
 265.5 664.333007812 246.166992188 632.833007812 228.5 596.5 c 0
 210.833007812 560.166992188 195.333007812 519.666992188 182 475 c 0
 168.666992188 430.333007812 158.333007812 382 151 330 c 0
 144.333007812 282.666992188 141 236.333007812 141 191 c 0
 141 145.666992188 144.166992188 103.166992188 150.5 63.5 c 0
 156.833007812 23.8330078125 166.5 -12.3330078125 179.5 -45 c 0
 192.5 -77.6669921875 208.666992188 -105 228 -127 c 0
 206 -154 l 0
 174.666992188 -136.666992188 148 -112.166992188 126 -80.5 c 0
 104 -48.8330078125 86.6669921875 -12.5 74 28.5 c 0
 61.3330078125 69.5 53.6669921875 114.5 51 163.5 c 0
 48.3330078125 212.5 50.6669921875 262.666992188 58 314 c 0
 65.3330078125 367.333007812 77.5 418.666992188 94.5 468 c 0
 111.5 517.333007812 132 562.5 156 603.5 c 0
 180 644.5 207.5 680.5 238.5 711.5 c 0
 269.5 742.5 302.333007812 766.333007812 337 783 c 0
 351 756 l 0
EndSplineSet
EndChar

StartChar: parenright
Encoding: 12 41 12
Width: 299
VWidth: 500
Flags: HW
LayerCount: 2
Fore
SplineSet
251 308 m 0
 243.666992188 254 231.5 202.833007812 214.5 154.5 c 0
 197.5 106.166992188 177 62 153 22 c 0
 129 -18 101.666992188 -53 71 -83 c 0
 40.3330078125 -113 7.3330078125 -136.666992188 -28 -154 c 0
 -42 -127 l 0
 -20 -110.333007812 1.3330078125 -88.8330078125 22 -62.5 c 0
 42.6669921875 -36.1669921875 62 -5.3330078125 80 30 c 0
 98 65.3330078125 113.666992188 104.833007812 127 148.5 c 0
 140.333007812 192.166992188 151 240.333007812 159 293 c 0
 165.666992188 340.333007812 168.833007812 386.833007812 168.5 432.5 c 0
 168.166992188 478.166992188 164.833007812 521.333007812 158.5 562 c 0
 152.166992188 602.666992188 142.666992188 639.666992188 130 673 c 0
 117.333007812 706.333007812 101.333007812 734 82 756 c 0
 104 783 l 0
 135.333007812 765.666992188 161.833007812 740.833007812 183.5 708.5 c 0
 205.166992188 676.166992188 222.333007812 639 235 597 c 0
 247.666992188 555 255.333007812 509.333007812 258 460 c 0
 260.666992188 410.666992188 258.333007812 360 251 308 c 0
EndSplineSet
EndChar

StartChar: asterisk
Encoding: 13 42 13
Width: 356
VWidth: 500
Flags: HW
LayerCount: 2
Fore
SplineSet
208 585 m 0
 333 679 l 0
 335.666992188 677 339 674.333007812 343 671 c 0
 347 667.666992188 351.166992188 664.166992188 355.5 660.5 c 0
 359.833007812 656.833007812 363.833007812 653.166992188 367.5 649.5 c 0
 371.166992188 645.833007812 373.666992188 642.666992188 375 640 c 0
 372 618 l 0
 220 554 l 0
 344 497 l 0
 343.333007812 493 342.333007812 488 341 482 c 0
 339.666992188 476 338.166992188 469.833007812 336.5 463.5 c 0
 334.833007812 457.166992188 333.333007812 451.166992188 332 445.5 c 0
 330.666992188 439.833007812 329.333007812 435.333007812 328 432 c 0
 307 421 l 0
 200 522 l 0
 198 372 l 0
 194.666992188 370 190.166992188 367.5 184.5 364.5 c 0
 178.833007812 361.5 173.166992188 358.833007812 167.5 356.5 c 0
 161.833007812 354.166992188 156.333007812 352 151 350 c 0
 145.666992188 348 141.333007812 346.666992188 138 346 c 0
 123 357 l 0
 166 522 l 0
 41 428 l 0
 38.3330078125 430 34.6669921875 432.833007812 30 436.5 c 0
 25.3330078125 440.166992188 21 443.833007812 17 447.5 c 0
 13 451.166992188 9.1669921875 454.666992188 5.5 458 c 0
 1.8330078125 461.333007812 -1 464.333007812 -3 467 c 0
 2 490 l 0
 153 553 l 0
 29 611 l 0
 29.6669921875 615 30.6669921875 620 32 626 c 0
 33.3330078125 632 34.8330078125 638 36.5 644 c 0
 38.1669921875 650 39.6669921875 655.833007812 41 661.5 c 0
 42.3330078125 667.166992188 43.6669921875 671.666992188 45 675 c 0
 66 686 l 0
 173 585 l 0
 175 736 l 0
 178.333007812 738 182.666992188 740.333007812 188 743 c 0
 193.333007812 745.666992188 198.833007812 748.166992188 204.5 750.5 c 0
 210.166992188 752.833007812 215.666992188 755.166992188 221 757.5 c 0
 226.333007812 759.833007812 231 761.333007812 235 762 c 0
 251 750 l 0
 208 585 l 0
EndSplineSet
EndChar

StartChar: plus
Encoding: 14 43 14
Width: 383
VWidth: 500
Flags: HW
LayerCount: 2
Fore
SplineSet
359 292 m 0
 358.333007812 288.666992188 357.166992188 284.833007812 355.5 280.5 c 0
 353.833007812 276.166992188 351.833007812 271.666992188 349.5 267 c 0
 347.166992188 262.333007812 344.833007812 258 342.5 254 c 0
 340.166992188 250 338.333007812 246.666992188 337 244 c 0
 224 244 l 0
 206 113 l 0
 203.333007812 111.666992188 199.666992188 110.166992188 195 108.5 c 0
 190.333007812 106.833007812 185.833007812 105.333007812 181.5 104 c 0
 175 102 175 102 168.5 100 c 0
 164.166992188 98.6669921875 160.333007812 97.6669921875 157 97 c 0
 146 109 l 0
 165 244 l 0
 44 244 l 0
 34 257 l 0
 35.3330078125 260.333007812 37 264.166992188 39 268.5 c 0
 42 275 42 275 45 281.5 c 0
 47 285.833007812 49 290 51 294 c 0
 53 298 55 301.666992188 57 305 c 0
 173 305 l 0
 192 437 l 0
 194.666992188 437.666992188 198.166992188 438.666992188 202.5 440 c 0
 206.833007812 441.333007812 211.333007812 442.833007812 216 444.5 c 0
 220.666992188 446.166992188 225.166992188 447.666992188 229.5 449 c 0
 233.833007812 450.333007812 237.666992188 451.333007812 241 452 c 0
 252 440 l 0
 233 305 l 0
 350 305 l 0
 359 292 l 0
EndSplineSet
EndChar

StartChar: comma
Encoding: 15 44 15
Width: 211
VWidth: 500
Flags: HW
LayerCount: 2
Fore
SplineSet
160 52 m 0
 160 42 157.833007812 30.8330078125 153.5 18.5 c 0
 149.166992188 6.1669921875 143.5 -6.8330078125 136.5 -20.5 c 0
 129.5 -34.1669921875 121.333007812 -47.8330078125 112 -61.5 c 0
 102.666992188 -75.1669921875 92.5 -88.1669921875 81.5 -100.5 c 0
 70.5 -112.833007812 59.1669921875 -124.166992188 47.5 -134.5 c 0
 35.8330078125 -144.833007812 24.3330078125 -153.333007812 13 -160 c 0
 -8 -141 l 0
 17.3330078125 -114.333007812 36.1669921875 -89.3330078125 48.5 -66 c 0
 60.8330078125 -42.6669921875 67 -22 67 -4 c 0
 67 2 66.1669921875 7.8330078125 64.5 13.5 c 0
 62.8330078125 19.1669921875 59.8330078125 24.1669921875 55.5 28.5 c 0
 51.1669921875 32.8330078125 45.5 36.1669921875 38.5 38.5 c 0
 31.5 40.8330078125 23.3330078125 41.3330078125 14 40 c 0
 10 67 l 0
 14 71 21.1669921875 75.8330078125 31.5 81.5 c 0
 41.8330078125 87.1669921875 53.1669921875 92.6669921875 65.5 98 c 0
 77.8330078125 103.333007812 89.6669921875 107.833007812 101 111.5 c 0
 112.333007812 115.166992188 121 117 127 117 c 0
 133 113.666992188 138 110.333007812 142 107 c 0
 146 103.666992188 149.333007812 99.5 152 94.5 c 0
 154.666992188 89.5 156.666992188 83.6669921875 158 77 c 0
 159.333007812 70.3330078125 160 62 160 52 c 0
EndSplineSet
EndChar

StartChar: hyphen
Encoding: 16 45 16
Width: 319
VWidth: 500
Flags: HW
LayerCount: 2
Fore
SplineSet
276.5 212 m 0
 30.5 212 l 0
 44 281.5 l 0
 290 281.5 l 0
 276.5 212 l 0
EndSplineSet
Refer: 374 727 N 1 0 0 1 0 0 2
EndChar

StartChar: period
Encoding: 17 46 17
Width: 211
VWidth: 500
Flags: HW
LayerCount: 2
Fore
SplineSet
149 77 m 0
 149 66.3330078125 147.333007812 55.6669921875 144 45 c 0
 140.666992188 34.3330078125 135.5 24.5 128.5 15.5 c 0
 121.5 6.5 113.166992188 -0.8330078125 103.5 -6.5 c 0
 93.8330078125 -12.1669921875 83 -15 71 -15 c 0
 55.6669921875 -15 44 -10.3330078125 36 -1 c 0
 28 8.3330078125 24 20.6669921875 24 36 c 0
 24 46 26 56.1669921875 30 66.5 c 0
 34 76.8330078125 39.5 86.3330078125 46.5 95 c 0
 53.5 103.666992188 61.8330078125 110.833007812 71.5 116.5 c 0
 81.1669921875 122.166992188 91.6669921875 125 103 125 c 0
 117.666992188 125 129 120.5 137 111.5 c 0
 145 102.5 149 91 149 77 c 0
EndSplineSet
EndChar

StartChar: slash
Encoding: 18 47 18
Width: 411
VWidth: 500
Flags: HW
LayerCount: 2
Fore
SplineSet
31 -137 m 0
 27.6669921875 -139 22.8330078125 -141.333007812 16.5 -144 c 0
 10.1669921875 -146.666992188 3.6669921875 -149.333007812 -3 -152 c 0
 -9.6669921875 -154.666992188 -16.3330078125 -157 -23 -159 c 0
 -29.6669921875 -161 -35 -162.666992188 -39 -164 c 0
 -54 -151 l 0
 386 754 l 0
 390 756.666992188 395 759.5 401 762.5 c 0
 407 765.5 413 768 419 770 c 0
 428 773 428 773 437 776 c 0
 443 778 448.333007812 779.666992188 453 781 c 0
 470 769 l 0
 31 -137 l 0
EndSplineSet
EndChar

StartChar: zero
Encoding: 19 48 19
Width: 419
VWidth: 500
Flags: HW
LayerCount: 2
Fore
SplineSet
407 383 m 0
 407 361.666992188 406 339.666992188 404 317 c 0
 402 294.333007812 398.5 271.5 393.5 248.5 c 0
 388.5 225.5 381.833007812 202.666992188 373.5 180 c 0
 365.166992188 157.333007812 355 135.666992188 343 115 c 0
 332.333007812 97 320.666992188 80.1669921875 308 64.5 c 0
 295.333007812 48.8330078125 281.5 35 266.5 23 c 0
 251.5 11 235.333007812 1.6669921875 218 -5 c 0
 200.666992188 -11.6669921875 182.333007812 -15 163 -15 c 0
 139.666992188 -15 119.166992188 -9.3330078125 101.5 2 c 0
 83.8330078125 13.3330078125 69 29 57 49 c 0
 45 69 36 92.5 30 119.5 c 0
 24 146.5 21 175.333007812 21 206 c 0
 21 248.666992188 25.5 292.333007812 34.5 337 c 0
 43.5 381.666992188 59.6669921875 425.666992188 83 469 c 0
 93 487.666992188 104.333007812 505.166992188 117 521.5 c 0
 129.666992188 537.833007812 143.5 552 158.5 564 c 0
 173.5 576 189.833007812 585.5 207.5 592.5 c 0
 225.166992188 599.5 244.333007812 603 265 603 c 0
 287.666992188 603 307.833007812 597.666992188 325.5 587 c 0
 343.166992188 576.333007812 358 561.166992188 370 541.5 c 0
 382 521.833007812 391.166992188 498.5 397.5 471.5 c 0
 403.833007812 444.5 407 415 407 383 c 0
318 388 m 0
 318 414.666992188 316 437.666992188 312 457 c 0
 308 476.333007812 302.5 492.5 295.5 505.5 c 0
 288.5 518.5 280.166992188 528.166992188 270.5 534.5 c 0
 260.833007812 540.833007812 250.666992188 544 240 544 c 0
 222 544 206.333007812 537.833007812 193 525.5 c 0
 179.666992188 513.166992188 168.166992188 497.166992188 158.5 477.5 c 0
 148.833007812 457.833007812 140.833007812 435.5 134.5 410.5 c 0
 128.166992188 385.5 123 360.5 119 335.5 c 0
 115 310.5 112.333007812 286.666992188 111 264 c 0
 109.666992188 241.333007812 109 222.666992188 109 208 c 0
 109 153.333007812 116 112.333007812 130 85 c 0
 144 57.6669921875 163.666992188 44 189 44 c 0
 206.333007812 44 221.666992188 50.1669921875 235 62.5 c 0
 248.333007812 74.8330078125 259.833007812 90.8330078125 269.5 110.5 c 0
 279.166992188 130.166992188 287.166992188 152.333007812 293.5 177 c 0
 299.833007812 201.666992188 304.833007812 226.833007812 308.5 252.5 c 0
 312.166992188 278.166992188 314.666992188 302.833007812 316 326.5 c 0
 317.333007812 350.166992188 318 370.666992188 318 388 c 0
EndSplineSet
EndChar

StartChar: one
Encoding: 20 49 20
Width: 419
VWidth: 500
Flags: HW
LayerCount: 2
Fore
SplineSet
342 0 m 0
 32 0 l 0
 36 31 l 0
 60 33.6669921875 79.8330078125 36.8330078125 95.5 40.5 c 0
 111.166992188 44.1669921875 123.833007812 48 133.5 52 c 0
 143.166992188 56 150.166992188 59.8330078125 154.5 63.5 c 0
 158.833007812 67.1669921875 161.333007812 71 162 75 c 0
 213 454 l 0
 215 467.333007812 216.166992188 477.5 216.5 484.5 c 0
 216.833007812 491.5 215.333007812 497.333007812 212 502 c 0
 210.666992188 504 207.666992188 505.666992188 203 507 c 0
 198.333007812 508.333007812 191.333007812 508.833007812 182 508.5 c 0
 172.666992188 508.166992188 161 507 147 505 c 0
 133 503 116.333007812 499.666992188 97 495 c 0
 90 525 l 0
 102.666992188 528.333007812 118.666992188 533.5 138 540.5 c 0
 157.333007812 547.5 177 555 197 563 c 0
 217 571 236 579 254 587 c 0
 272 595 286.333007812 602 297 608 c 0
 312 590 l 0
 242 75 l 0
 241.333007812 71.6669921875 242.5 68.1669921875 245.5 64.5 c 0
 248.5 60.8330078125 253.666992188 57 261 53 c 0
 268.333007812 49 279 45 293 41 c 0
 307 37 325 33.6669921875 347 31 c 0
 342 0 l 0
EndSplineSet
EndChar

StartChar: two
Encoding: 21 50 21
Width: 419
VWidth: 500
Flags: HW
LayerCount: 2
Fore
SplineSet
399 494 m 0
 399 480 397.166992188 465.666992188 393.5 451 c 0
 389.833007812 436.333007812 383.5 420 374.5 402 c 0
 365.5 384 353.5 364 338.5 342 c 0
 323.5 320 304.833007812 295.5 282.5 268.5 c 0
 260.166992188 241.5 233.5 211.166992188 202.5 177.5 c 0
 171.5 143.833007812 135.666992188 106.333007812 95 65 c 0
 276 65 l 0
 280.666992188 65 285.166992188 66.3330078125 289.5 69 c 0
 293.833007812 71.6669921875 297.833007812 75.1669921875 301.5 79.5 c 0
 305.166992188 83.8330078125 308.5 88.8330078125 311.5 94.5 c 0
 314.5 100.166992188 317.333007812 106 320 112 c 0
 326 125.333007812 330.666992188 140.666992188 334 158 c 0
 360 151 l 0
 333 0 l 0
 6 0 l 0
 -1 36 l 0
 57.6669921875 94.6669921875 107.166992188 146.833007812 147.5 192.5 c 0
 187.833007812 238.166992188 220.333007812 278.666992188 245 314 c 0
 269.666992188 349.333007812 287.333007812 380.166992188 298 406.5 c 0
 308.666992188 432.833007812 314 456.333007812 314 477 c 0
 314 500.333007812 307.333007812 519 294 533 c 0
 280.666992188 547 261.666992188 554 237 554 c 0
 225 554 214.166992188 550.833007812 204.5 544.5 c 0
 194.833007812 538.166992188 186.666992188 530.166992188 180 520.5 c 0
 173.333007812 510.833007812 168.166992188 500.166992188 164.5 488.5 c 0
 160.833007812 476.833007812 158.333007812 465.333007812 157 454 c 0
 146.333007812 448 134.833007812 442.5 122.5 437.5 c 0
 110.166992188 432.5 97 429 83 427 c 0
 72 448 l 0
 74 464.666992188 81.1669921875 482.166992188 93.5 500.5 c 0
 105.833007812 518.833007812 121.333007812 535.666992188 140 551 c 0
 158.666992188 566.333007812 179.666992188 578.833007812 203 588.5 c 0
 226.333007812 598.166992188 250 603 274 603 c 0
 290.666992188 603 306.666992188 601 322 597 c 0
 337.333007812 593 350.666992188 586.5 362 577.5 c 0
 373.333007812 568.5 382.333007812 557.166992188 389 543.5 c 0
 395.666992188 529.833007812 399 513.333007812 399 494 c 0
EndSplineSet
EndChar

StartChar: three
Encoding: 22 51 22
Width: 419
VWidth: 500
Flags: HW
LayerCount: 2
Fore
SplineSet
375 489 m 0
 375 471.666992188 372.166992188 455.333007812 366.5 440 c 0
 360.833007812 424.666992188 353 410.666992188 343 398 c 0
 333 385.333007812 321.166992188 374.333007812 307.5 365 c 0
 293.833007812 355.666992188 279 347.666992188 263 341 c 0
 278.333007812 339 292.166992188 334 304.5 326 c 0
 316.833007812 318 327.333007812 308 336 296 c 0
 344.666992188 284 351.333007812 270.5 356 255.5 c 0
 360.666992188 240.5 363 225 363 209 c 0
 363 178.333007812 357.666992188 149.5 347 122.5 c 0
 336.333007812 95.5 321.166992188 71.8330078125 301.5 51.5 c 0
 281.833007812 31.1669921875 258.5 15 231.5 3 c 0
 204.5 -9 174.666992188 -15 142 -15 c 0
 118.666992188 -15 94.6669921875 -8.8330078125 70 3.5 c 0
 45.3330078125 15.8330078125 21 35 -3 61 c 0
 18 98 l 0
 30.6669921875 86.6669921875 42.1669921875 77.5 52.5 70.5 c 0
 62.8330078125 63.5 72.8330078125 57.8330078125 82.5 53.5 c 0
 92.1669921875 49.1669921875 101.833007812 46.1669921875 111.5 44.5 c 0
 121.166992188 42.8330078125 132 42 144 42 c 0
 164.666992188 42 183.166992188 46 199.5 54 c 0
 215.833007812 62 229.666992188 73 241 87 c 0
 252.333007812 101 261 117.333007812 267 136 c 0
 273 154.666992188 276 174.666992188 276 196 c 0
 276 214 273.333007812 229.666992188 268 243 c 0
 262.666992188 256.333007812 255.666992188 267.333007812 247 276 c 0
 238.333007812 284.666992188 228.5 291 217.5 295 c 0
 206.5 299 195 301 183 301 c 0
 174 301 l 0
 172 301 170.166992188 300.833007812 168.5 300.5 c 0
 166.833007812 300.166992188 164.833007812 299.833007812 162.5 299.5 c 0
 160.166992188 299.166992188 156.666992188 298.333007812 152 297 c 0
 149 332 l 0
 168.333007812 337.333007812 186.666992188 344 204 352 c 0
 221.333007812 360 236.333007812 369.666992188 249 381 c 0
 261.666992188 392.333007812 271.666992188 406 279 422 c 0
 286.333007812 438 290 456.333007812 290 477 c 0
 290 487 288.833007812 496.666992188 286.5 506 c 0
 284.166992188 515.333007812 280.333007812 523.666992188 275 531 c 0
 269.666992188 538.333007812 262.833007812 544 254.5 548 c 0
 246.166992188 552 236.333007812 554 225 554 c 0
 214.333007812 554 204.666992188 551.833007812 196 547.5 c 0
 187.333007812 543.166992188 180 537.333007812 174 530 c 0
 168 522.666992188 163.333007812 514.166992188 160 504.5 c 0
 156.666992188 494.833007812 155 484.333007812 155 473 c 0
 143.666992188 467 131.333007812 461.666992188 118 457 c 0
 104.666992188 452.333007812 91.3330078125 449.666992188 78 449 c 0
 67 469 l 0
 69 483 75.6669921875 497.666992188 87 513 c 0
 98.3330078125 528.333007812 112.333007812 542.833007812 129 556.5 c 0
 145.666992188 570.166992188 164.666992188 581.333007812 186 590 c 0
 207.333007812 598.666992188 229.333007812 603 252 603 c 0
 274 603 292.833007812 599.833007812 308.5 593.5 c 0
 324.166992188 587.166992188 336.833007812 578.666992188 346.5 568 c 0
 356.166992188 557.333007812 363.333007812 545.166992188 368 531.5 c 0
 372.666992188 517.833007812 375 503.666992188 375 489 c 0
EndSplineSet
EndChar

StartChar: four
Encoding: 23 52 23
Width: 419
VWidth: 500
Flags: HW
LayerCount: 2
Fore
SplineSet
388 211 m 0
 380 201 372.333007812 192.833007812 365 186.5 c 0
 357.666992188 180.166992188 350.666992188 174 344 168 c 0
 313 168 l 0
 298 56 l 0
 297.333007812 53.3330078125 297.833007812 50.8330078125 299.5 48.5 c 0
 301.166992188 46.1669921875 304.166992188 43.8330078125 308.5 41.5 c 0
 312.833007812 39.1669921875 318.833007812 36.6669921875 326.5 34 c 0
 334.166992188 31.3330078125 344 28.6669921875 356 26 c 0
 353 0 l 0
 122 0 l 0
 125 26 l 0
 144.333007812 29.3330078125 160.333007812 32.6669921875 173 36 c 0
 185.666992188 39.3330078125 195.666992188 42.3330078125 203 45 c 0
 210.333007812 47.6669921875 215.5 50.3330078125 218.5 53 c 0
 221.5 55.6669921875 223.333007812 58.3330078125 224 61 c 0
 237 168 l 0
 22 168 l 0
 8 186 l 0
 277 572 l 0
 291 577.333007812 305.166992188 583.333007812 319.5 590 c 0
 333.833007812 596.666992188 346 602.666992188 356 608 c 0
 371 590 l 0
 321 226 l 0
 377 226 l 0
 388 211 l 0
90 226 m 0
 246 226 l 0
 284 498 l 0
 90 226 l 0
EndSplineSet
EndChar

StartChar: five
Encoding: 24 53 24
Width: 419
VWidth: 500
Flags: HW
LayerCount: 2
Fore
SplineSet
408 582 m 0
 404 576.666992188 399.333007812 570.833007812 394 564.5 c 0
 388.666992188 558.166992188 383.166992188 552 377.5 546 c 0
 371.833007812 540 366.5 534.5 361.5 529.5 c 0
 356.5 524.5 352 520.666992188 348 518 c 0
 170 518 l 0
 168 508.666992188 165.166992188 496.833007812 161.5 482.5 c 0
 157.833007812 468.166992188 154.166992188 453.666992188 150.5 439 c 0
 146.833007812 424.333007812 143.166992188 410.666992188 139.5 398 c 0
 135.833007812 385.333007812 132.666992188 375.333007812 130 368 c 0
 142 372.666992188 156.333007812 376.333007812 173 379 c 0
 189.666992188 381.666992188 206.333007812 383 223 383 c 0
 247 383 268.166992188 378.833007812 286.5 370.5 c 0
 304.833007812 362.166992188 320.166992188 351 332.5 337 c 0
 344.833007812 323 354.166992188 307 360.5 289 c 0
 366.833007812 271 370 252.333007812 370 233 c 0
 370 213.666992188 367.833007812 194.166992188 363.5 174.5 c 0
 359.166992188 154.833007812 353 135.666992188 345 117 c 0
 337 98.3330078125 326.833007812 81 314.5 65 c 0
 302.166992188 49 288 35 272 23 c 0
 256 11 238.166992188 1.6669921875 218.5 -5 c 0
 198.833007812 -11.6669921875 177.666992188 -15 155 -15 c 0
 127 -15 100 -9 74 3 c 0
 48 15 23.3330078125 34 0 60 c 0
 22 96 l 0
 36.6669921875 84.6669921875 50.1669921875 75.3330078125 62.5 68 c 0
 74.8330078125 60.6669921875 86.1669921875 54.8330078125 96.5 50.5 c 0
 106.833007812 46.1669921875 116.5 43.3330078125 125.5 42 c 0
 134.5 40.6669921875 143.333007812 40 152 40 c 0
 174 40 193.333007812 45 210 55 c 0
 226.666992188 65 240.5 78.3330078125 251.5 95 c 0
 262.5 111.666992188 270.666992188 130.333007812 276 151 c 0
 281.333007812 171.666992188 284 192.666992188 284 214 c 0
 284 230 281.833007812 244.666992188 277.5 258 c 0
 273.166992188 271.333007812 266.666992188 283 258 293 c 0
 249.333007812 303 238.833007812 310.666992188 226.5 316 c 0
 214.166992188 321.333007812 200.333007812 324 185 324 c 0
 165.666992188 324 147.333007812 320.5 130 313.5 c 0
 112.666992188 306.5 95 296.333007812 77 283 c 0
 59 299 l 0
 62.3330078125 311 66.3330078125 324.833007812 71 340.5 c 0
 75.6669921875 356.166992188 80.3330078125 372.833007812 85 390.5 c 0
 89.6669921875 408.166992188 94.5 426.166992188 99.5 444.5 c 0
 104.5 462.833007812 109.333007812 480.666992188 114 498 c 0
 118.666992188 515.333007812 122.833007812 531.833007812 126.5 547.5 c 0
 130.166992188 563.166992188 133 576.666992188 135 588 c 0
 342 588 l 0
 350 588 357.5 588.333007812 364.5 589 c 0
 371.5 589.666992188 377 590.666992188 381 592 c 0
 386.333007812 593.333007812 391.333007812 595 396 597 c 0
 408 582 l 0
EndSplineSet
EndChar

StartChar: six
Encoding: 25 54 25
Width: 419
VWidth: 500
Flags: HW
LayerCount: 2
Fore
SplineSet
402 576 m 0
 366 568.666992188 333.666992188 557.166992188 305 541.5 c 0
 276.333007812 525.833007812 251.166992188 507 229.5 485 c 0
 207.833007812 463 189.333007812 438.333007812 174 411 c 0
 158.666992188 383.666992188 146.666992188 354.666992188 138 324 c 0
 160 343.333007812 181 357.166992188 201 365.5 c 0
 221 373.833007812 240 378 258 378 c 0
 278.666992188 378 297.166992188 374.666992188 313.5 368 c 0
 329.833007812 361.333007812 343.666992188 351.833007812 355 339.5 c 0
 366.333007812 327.166992188 374.833007812 312.333007812 380.5 295 c 0
 386.166992188 277.666992188 389 258 389 236 c 0
 389 218.666992188 386.833007812 200.166992188 382.5 180.5 c 0
 378.166992188 160.833007812 372 141.833007812 364 123.5 c 0
 356 105.166992188 346 87.5 334 70.5 c 0
 322 53.5 308.333007812 38.6669921875 293 26 c 0
 277.666992188 13.3330078125 260.833007812 3.3330078125 242.5 -4 c 0
 224.166992188 -11.3330078125 204.666992188 -15 184 -15 c 0
 162 -15 141.666992188 -10.3330078125 123 -1 c 0
 104.333007812 8.3330078125 88.1669921875 21.3330078125 74.5 38 c 0
 60.8330078125 54.6669921875 50.1669921875 74.6669921875 42.5 98 c 0
 34.8330078125 121.333007812 31 147.333007812 31 176 c 0
 31 211.333007812 34.8330078125 245.833007812 42.5 279.5 c 0
 50.1669921875 313.166992188 61.1669921875 345.166992188 75.5 375.5 c 0
 89.8330078125 405.833007812 107.5 434.166992188 128.5 460.5 c 0
 149.5 486.833007812 173.666992188 510.333007812 201 531 c 0
 228.333007812 551.666992188 258.5 568.833007812 291.5 582.5 c 0
 324.5 596.166992188 360 605.333007812 398 610 c 0
 402 576 l 0
227 319 m 0
 210.333007812 319 193.333007812 314.5 176 305.5 c 0
 158.666992188 296.5 141.333007812 282.333007812 124 263 c 0
 122 249.666992188 120.5 236.333007812 119.5 223 c 0
 118.5 209.666992188 118 196 118 182 c 0
 118 157.333007812 120.166992188 136.166992188 124.5 118.5 c 0
 128.833007812 100.833007812 134.833007812 86.3330078125 142.5 75 c 0
 150.166992188 63.6669921875 159.666992188 55.1669921875 171 49.5 c 0
 182.333007812 43.8330078125 194.666992188 41 208 41 c 0
 220.666992188 41 231.666992188 43.6669921875 241 49 c 0
 250.333007812 54.3330078125 258.5 61.5 265.5 70.5 c 0
 272.5 79.5 278.666992188 90 284 102 c 0
 289.333007812 114 293.5 126.166992188 296.5 138.5 c 0
 299.5 150.833007812 301.666992188 163.166992188 303 175.5 c 0
 304.333007812 187.833007812 305 199.333007812 305 210 c 0
 305 232 302.666992188 250.166992188 298 264.5 c 0
 293.333007812 278.833007812 287.166992188 290 279.5 298 c 0
 271.833007812 306 263.5 311.5 254.5 314.5 c 0
 245.5 317.5 236.333007812 319 227 319 c 0
EndSplineSet
EndChar

StartChar: seven
Encoding: 26 55 26
Width: 419
VWidth: 500
Flags: HW
LayerCount: 2
Fore
SplineSet
440 570 m 0
 421.333007812 534.666992188 402.666992188 499.166992188 384 463.5 c 0
 365.333007812 427.833007812 347.333007812 392.666992188 330 358 c 0
 312.666992188 323.333007812 295.833007812 289.5 279.5 256.5 c 0
 263.166992188 223.5 248 192.666992188 234 164 c 0
 220 135.333007812 207.333007812 108.833007812 196 84.5 c 0
 184.666992188 60.1669921875 175.333007812 39.3330078125 168 22 c 0
 156.666992188 14 143.166992188 6.8330078125 127.5 0.5 c 0
 111.833007812 -5.8330078125 96.6669921875 -11 82 -15 c 0
 65 2 l 0
 97 52 126.166992188 99.1669921875 152.5 143.5 c 0
 178.833007812 187.833007812 203.5 230.833007812 226.5 272.5 c 0
 249.5 314.166992188 271.666992188 355.166992188 293 395.5 c 0
 314.333007812 435.833007812 336 476.666992188 358 518 c 0
 156 518 l 0
 152 518 147.666992188 517.666992188 143 517 c 0
 138.333007812 516.333007812 133.166992188 513.666992188 127.5 509 c 0
 121.833007812 504.333007812 115.5 497 108.5 487 c 0
 101.5 477 93.3330078125 462.333007812 84 443 c 0
 63 453 l 0
 65 460.333007812 67.6669921875 470.166992188 71 482.5 c 0
 74.3330078125 494.833007812 77.6669921875 507.666992188 81 521 c 0
 84.3330078125 534.333007812 87.8330078125 547 91.5 559 c 0
 95.1669921875 571 98.6669921875 580.666992188 102 588 c 0
 428 588 l 0
 440 570 l 0
EndSplineSet
EndChar

StartChar: eight
Encoding: 27 56 27
Width: 419
VWidth: 500
Flags: HW
LayerCount: 2
Fore
SplineSet
399 489 m 0
 399 471.666992188 395.666992188 455.5 389 440.5 c 0
 382.333007812 425.5 373.833007812 412 363.5 400 c 0
 353.166992188 388 341.333007812 376.833007812 328 366.5 c 0
 314.666992188 356.166992188 301.333007812 346.666992188 288 338 c 0
 300.666992188 330.666992188 312.5 322.5 323.5 313.5 c 0
 334.5 304.5 344.333007812 294.333007812 353 283 c 0
 361.666992188 271.666992188 368.5 258.666992188 373.5 244 c 0
 378.5 229.333007812 381 212.666992188 381 194 c 0
 381 166 375 139.5 363 114.5 c 0
 351 89.5 335 67.3330078125 315 48 c 0
 295 28.6669921875 272 13.3330078125 246 2 c 0
 220 -9.3330078125 192.666992188 -15 164 -15 c 0
 138.666992188 -15 116.833007812 -11.3330078125 98.5 -4 c 0
 80.1669921875 3.3330078125 64.8330078125 13.3330078125 52.5 26 c 0
 40.1669921875 38.6669921875 31 53.3330078125 25 70 c 0
 19 86.6669921875 16 104 16 122 c 0
 16 144 20.1669921875 164.5 28.5 183.5 c 0
 36.8330078125 202.5 47.8330078125 220 61.5 236 c 0
 75.1669921875 252 90.6669921875 266.5 108 279.5 c 0
 125.333007812 292.5 143 303.666992188 161 313 c 0
 150.333007812 319.666992188 140.166992188 326.666992188 130.5 334 c 0
 120.833007812 341.333007812 112.333007812 349.833007812 105 359.5 c 0
 97.6669921875 369.166992188 91.8330078125 380 87.5 392 c 0
 83.1669921875 404 81 418 81 434 c 0
 81 458 86.1669921875 480.333007812 96.5 501 c 0
 106.833007812 521.666992188 120.666992188 539.5 138 554.5 c 0
 155.333007812 569.5 175.333007812 581.333007812 198 590 c 0
 220.666992188 598.666992188 244.333007812 603 269 603 c 0
 291 603 310.166992188 600.166992188 326.5 594.5 c 0
 342.833007812 588.833007812 356.333007812 581 367 571 c 0
 377.666992188 561 385.666992188 549 391 535 c 0
 396.333007812 521 399 505.666992188 399 489 c 0
293 167 m 0
 293 184.333007812 290.166992188 199.333007812 284.5 212 c 0
 278.833007812 224.666992188 271.666992188 236 263 246 c 0
 254.333007812 256 244 264.833007812 232 272.5 c 0
 220 280.166992188 208 287.333007812 196 294 c 0
 182 283.333007812 169.166992188 272.5 157.5 261.5 c 0
 145.833007812 250.5 136 238.666992188 128 226 c 0
 120 213.333007812 113.833007812 199.5 109.5 184.5 c 0
 105.166992188 169.5 103 152.666992188 103 134 c 0
 103 120 105 107.166992188 109 95.5 c 0
 113 83.8330078125 118.833007812 73.6669921875 126.5 65 c 0
 134.166992188 56.3330078125 143.333007812 49.6669921875 154 45 c 0
 164.666992188 40.3330078125 176.333007812 38 189 38 c 0
 205.666992188 38 220.5 41.8330078125 233.5 49.5 c 0
 246.5 57.1669921875 257.333007812 67.1669921875 266 79.5 c 0
 274.666992188 91.8330078125 281.333007812 105.666992188 286 121 c 0
 290.666992188 136.333007812 293 151.666992188 293 167 c 0
156 459 m 0
 156 446.333007812 158.666992188 435.333007812 164 426 c 0
 169.333007812 416.666992188 176.333007812 408.166992188 185 400.5 c 0
 193.666992188 392.833007812 203.666992188 385.5 215 378.5 c 0
 226.333007812 371.5 238.333007812 364.666992188 251 358 c 0
 260.333007812 365.333007812 269.166992188 373 277.5 381 c 0
 285.833007812 389 293 397.833007812 299 407.5 c 0
 305 417.166992188 309.666992188 427.666992188 313 439 c 0
 316.333007812 450.333007812 318 462.666992188 318 476 c 0
 318 501.333007812 311 520.666992188 297 534 c 0
 283 547.333007812 264 554 240 554 c 0
 228 554 216.833007812 551.333007812 206.5 546 c 0
 196.166992188 540.666992188 187.333007812 533.5 180 524.5 c 0
 172.666992188 515.5 166.833007812 505.333007812 162.5 494 c 0
 158.166992188 482.666992188 156 471 156 459 c 0
EndSplineSet
EndChar

StartChar: nine
Encoding: 28 57 28
Width: 419
VWidth: 500
Flags: HW
LayerCount: 2
Fore
SplineSet
409 421 m 0
 409 365.666992188 401 312.833007812 385 262.5 c 0
 369 212.166992188 345.5 167.166992188 314.5 127.5 c 0
 283.5 87.8330078125 245 55 199 29 c 0
 153 3 100 -13.6669921875 40 -21 c 0
 36 13 l 0
 74.6669921875 21.6669921875 109 34 139 50 c 0
 169 66 195 85 217 107 c 0
 239 129 257.333007812 154 272 182 c 0
 286.666992188 210 298 240.333007812 306 273 c 0
 289.333007812 255.666992188 270.333007812 241.333007812 249 230 c 0
 227.666992188 218.666992188 205 213 181 213 c 0
 160.333007812 213 142 216.666992188 126 224 c 0
 110 231.333007812 96.3330078125 241.333007812 85 254 c 0
 73.6669921875 266.666992188 65 281.5 59 298.5 c 0
 53 315.5 50 334 50 354 c 0
 50 372.666992188 52.5 391.833007812 57.5 411.5 c 0
 62.5 431.166992188 69.6669921875 450.166992188 79 468.5 c 0
 88.3330078125 486.833007812 99.5 504.166992188 112.5 520.5 c 0
 125.5 536.833007812 140.166992188 551.166992188 156.5 563.5 c 0
 172.833007812 575.833007812 190.333007812 585.5 209 592.5 c 0
 227.666992188 599.5 247.333007812 603 268 603 c 0
 288 603 306.5 599.333007812 323.5 592 c 0
 340.5 584.666992188 355.333007812 573.5 368 558.5 c 0
 380.666992188 543.5 390.666992188 524.5 398 501.5 c 0
 405.333007812 478.5 409 451.666992188 409 421 c 0
212 273 m 0
 234 273 253.5 278.833007812 270.5 290.5 c 0
 287.5 302.166992188 302.666992188 316.666992188 316 334 c 0
 318.666992188 358.666992188 320.333007812 384.333007812 321 411 c 0
 321 437 318.833007812 458.666992188 314.5 476 c 0
 310.166992188 493.333007812 304.333007812 507.333007812 297 518 c 0
 289.666992188 528.666992188 281.333007812 536.333007812 272 541 c 0
 262.666992188 545.666992188 253.333007812 548 244 548 c 0
 222.666992188 548 205 542.5 191 531.5 c 0
 177 520.5 165.833007812 506.5 157.5 489.5 c 0
 149.166992188 472.5 143.166992188 453.833007812 139.5 433.5 c 0
 135.833007812 413.166992188 134 394 134 376 c 0
 134 356 136.5 339.333007812 141.5 326 c 0
 146.5 312.666992188 152.833007812 302.166992188 160.5 294.5 c 0
 168.166992188 286.833007812 176.666992188 281.333007812 186 278 c 0
 195.333007812 274.666992188 204 273 212 273 c 0
EndSplineSet
EndChar

StartChar: colon
Encoding: 29 58 29
Width: 211
VWidth: 500
Flags: HW
LayerCount: 2
Fore
SplineSet
149 77 m 0
 149 66.3330078125 147.333007812 55.6669921875 144 45 c 0
 140.666992188 34.3330078125 135.5 24.5 128.5 15.5 c 0
 121.5 6.5 113.166992188 -0.8330078125 103.5 -6.5 c 0
 93.8330078125 -12.1669921875 83 -15 71 -15 c 0
 55.6669921875 -15 44 -10.3330078125 36 -1 c 0
 28 8.3330078125 24 20.6669921875 24 36 c 0
 24 46 26 56.1669921875 30 66.5 c 0
 34 76.8330078125 39.5 86.3330078125 46.5 95 c 0
 53.5 103.666992188 61.8330078125 110.833007812 71.5 116.5 c 0
 81.1669921875 122.166992188 91.6669921875 125 103 125 c 0
 117.666992188 125 129 120.5 137 111.5 c 0
 145 102.5 149 91 149 77 c 0
197 420 m 0
 197 410 195.333007812 399.666992188 192 389 c 0
 188.666992188 378.333007812 183.666992188 368.666992188 177 360 c 0
 170.333007812 351.333007812 162 344.166992188 152 338.5 c 0
 142 332.833007812 131 330 119 330 c 0
 103.666992188 330 92 334.5 84 343.5 c 0
 76 352.5 72 364.666992188 72 380 c 0
 72 390 74 400.166992188 78 410.5 c 0
 82 420.833007812 87.5 430.333007812 94.5 439 c 0
 101.5 447.666992188 109.833007812 454.833007812 119.5 460.5 c 0
 129.166992188 466.166992188 139.666992188 469 151 469 c 0
 165.666992188 469 177 464.5 185 455.5 c 0
 193 446.5 197 434.666992188 197 420 c 0
EndSplineSet
EndChar

StartChar: semicolon
Encoding: 30 59 30
Width: 211
VWidth: 500
Flags: HW
LayerCount: 2
Fore
SplineSet
160 52 m 0
 160 42 157.833007812 30.8330078125 153.5 18.5 c 0
 149.166992188 6.1669921875 143.5 -6.8330078125 136.5 -20.5 c 0
 129.5 -34.1669921875 121.333007812 -47.8330078125 112 -61.5 c 0
 102.666992188 -75.1669921875 92.5 -88.1669921875 81.5 -100.5 c 0
 70.5 -112.833007812 59.1669921875 -124.166992188 47.5 -134.5 c 0
 35.8330078125 -144.833007812 24.3330078125 -153.333007812 13 -160 c 0
 -8 -141 l 0
 17.3330078125 -114.333007812 36.1669921875 -89.3330078125 48.5 -66 c 0
 60.8330078125 -42.6669921875 67 -22 67 -4 c 0
 67 2 66.1669921875 7.8330078125 64.5 13.5 c 0
 62.8330078125 19.1669921875 59.8330078125 24.1669921875 55.5 28.5 c 0
 51.1669921875 32.8330078125 45.5 36.1669921875 38.5 38.5 c 0
 31.5 40.8330078125 23.3330078125 41.3330078125 14 40 c 0
 10 67 l 0
 14 71 21.1669921875 75.8330078125 31.5 81.5 c 0
 41.8330078125 87.1669921875 53.1669921875 92.6669921875 65.5 98 c 0
 77.8330078125 103.333007812 89.6669921875 107.833007812 101 111.5 c 0
 112.333007812 115.166992188 121 117 127 117 c 0
 133 113.666992188 138 110.333007812 142 107 c 0
 146 103.666992188 149.333007812 99.5 152 94.5 c 0
 154.666992188 89.5 156.666992188 83.6669921875 158 77 c 0
 159.333007812 70.3330078125 160 62 160 52 c 0
197 420 m 0
 197 410 195.333007812 399.666992188 192 389 c 0
 188.666992188 378.333007812 183.666992188 368.666992188 177 360 c 0
 170.333007812 351.333007812 162.166992188 344.166992188 152.5 338.5 c 0
 142.833007812 332.833007812 132 330 120 330 c 0
 104.666992188 330 92.8330078125 334.5 84.5 343.5 c 0
 76.1669921875 352.5 72 364.666992188 72 380 c 0
 72 390 74 400.166992188 78 410.5 c 0
 82 420.833007812 87.5 430.333007812 94.5 439 c 0
 101.5 447.666992188 109.833007812 454.833007812 119.5 460.5 c 0
 129.166992188 466.166992188 139.666992188 469 151 469 c 0
 165.666992188 469 177 464.5 185 455.5 c 0
 193 446.5 197 434.666992188 197 420 c 0
EndSplineSet
EndChar

StartChar: less
Encoding: 31 60 31
Width: 417
VWidth: 500
Flags: HW
LayerCount: 2
Fore
SplineSet
401 429 m 0
 399.666992188 425.666992188 398.166992188 421.666992188 396.5 417 c 0
 394.833007812 412.333007812 393 407.333007812 391 402 c 0
 389 396.666992188 387 391.5 385 386.5 c 0
 383 381.5 381.333007812 377.666992188 380 375 c 0
 123 276 l 0
 355 176 l 0
 361 157 l 0
 353.666992188 150.333007812 347 144.5 341 139.5 c 0
 335 134.5 327 129 317 123 c 0
 37 243 l 0
 26 258 l 0
 26.6669921875 262 28 266.333007812 30 271 c 0
 33 278 33 278 36 285 c 0
 38 289.666992188 39.8330078125 294 41.5 298 c 0
 43.1669921875 302 44.6669921875 305.666992188 46 309 c 0
 390 442 l 0
 401 429 l 0
EndSplineSet
EndChar

StartChar: equal
Encoding: 32 61 32
Width: 417
VWidth: 500
Flags: HW
LayerCount: 2
Fore
SplineSet
379 219 m 0
 378.333007812 215.666992188 377 211.833007812 375 207.5 c 0
 373 203.166992188 370.833007812 198.666992188 368.5 194 c 0
 365 187 365 187 362 181 c 0
 359 175 359 175 357 171 c 0
 33 171 l 0
 23 184 l 0
 24.3330078125 187.333007812 26 191.166992188 28 195.5 c 0
 31 202 31 202 34 208.5 c 0
 36 212.833007812 38 217 40 221 c 0
 42 225 44 228.666992188 46 232 c 0
 369 232 l 0
 379 219 l 0
398 366 m 0
 397.333007812 362.666992188 396.166992188 358.666992188 394.5 354 c 0
 392.833007812 349.333007812 390.833007812 344.666992188 388.5 340 c 0
 386.166992188 335.333007812 383.833007812 331 381.5 327 c 0
 379.166992188 323 377.333007812 319.666992188 376 317 c 0
 53 317 l 0
 43 331 l 0
 44.3330078125 334.333007812 45.8330078125 338 47.5 342 c 0
 49.1669921875 346 51.1669921875 350.166992188 53.5 354.5 c 0
 55.8330078125 358.833007812 58 363.166992188 60 367.5 c 0
 62 371.833007812 63.6669921875 375.333007812 65 378 c 0
 389 378 l 0
 398 366 l 0
EndSplineSet
EndChar

StartChar: greater
Encoding: 33 62 33
Width: 417
VWidth: 500
Flags: HW
LayerCount: 2
Fore
SplineSet
389 307 m 0
 386.333007812 299.666992188 383.166992188 291 379.5 281 c 0
 375.833007812 271 372 262.666992188 368 256 c 0
 24 123 l 0
 14 136 l 0
 15.3330078125 139.333007812 16.8330078125 143.5 18.5 148.5 c 0
 21 156 21 156 23.5 163.5 c 0
 25.1669921875 168.5 27 173.5 29 178.5 c 0
 31 183.5 32.6669921875 187.333007812 34 190 c 0
 292 289 l 0
 60 389 l 0
 53 408 l 0
 57 411.333007812 60.5 414.333007812 63.5 417 c 0
 66.5 419.666992188 69.8330078125 422.5 73.5 425.5 c 0
 77.1669921875 428.5 80.8330078125 431.333007812 84.5 434 c 0
 88.1669921875 436.666992188 92.6669921875 439.333007812 98 442 c 0
 378 322 l 0
 389 307 l 0
EndSplineSet
EndChar

StartChar: question
Encoding: 34 63 34
Width: 407
VWidth: 500
Flags: HW
LayerCount: 2
Fore
SplineSet
409 579 m 0
 409 551 404.666992188 526.333007812 396 505 c 0
 387.333007812 483.666992188 376.333007812 464.166992188 363 446.5 c 0
 349.666992188 428.833007812 335.166992188 412.333007812 319.5 397 c 0
 303.833007812 381.666992188 288.833007812 366.166992188 274.5 350.5 c 0
 260.166992188 334.833007812 247.666992188 318 237 300 c 0
 226.333007812 282 219.333007812 261.666992188 216 239 c 0
 210 194 l 0
 204 189.333007812 197.666992188 185.166992188 191 181.5 c 0
 184.333007812 177.833007812 177 174.666992188 169 172 c 0
 158 183 l 0
 160 241 l 0
 160.666992188 262.333007812 165 282 173 300 c 0
 181 318 190.666992188 335.166992188 202 351.5 c 0
 213.333007812 367.833007812 225.666992188 383.666992188 239 399 c 0
 252.333007812 414.333007812 264.666992188 430 276 446 c 0
 287.333007812 462 296.833007812 478.5 304.5 495.5 c 0
 312.166992188 512.5 316 531 316 551 c 0
 316 581.666992188 309.5 605.666992188 296.5 623 c 0
 283.5 640.333007812 264 649 238 649 c 0
 225.333007812 649 214.166992188 646 204.5 640 c 0
 194.833007812 634 187.166992188 625.833007812 181.5 615.5 c 0
 175.833007812 605.166992188 172.166992188 593.166992188 170.5 579.5 c 0
 168.833007812 565.833007812 169.333007812 551 172 535 c 0
 158 528.333007812 144 523.333007812 130 520 c 0
 116 516.666992188 102 514 88 512 c 0
 77 529 l 0
 77 549.666992188 81.6669921875 570.166992188 91 590.5 c 0
 100.333007812 610.833007812 114 628.833007812 132 644.5 c 0
 150 660.166992188 171.666992188 673 197 683 c 0
 222.333007812 693 250.333007812 698 281 698 c 0
 302.333007812 698 321 695 337 689 c 0
 353 683 366.333007812 674.5 377 663.5 c 0
 387.666992188 652.5 395.666992188 639.833007812 401 625.5 c 0
 406.333007812 611.166992188 409 595.666992188 409 579 c 0
228 77 m 0
 228 66.3330078125 226.166992188 55.6669921875 222.5 45 c 0
 218.833007812 34.3330078125 213.666992188 24.5 207 15.5 c 0
 200.333007812 6.5 192 -0.8330078125 182 -6.5 c 0
 172 -12.1669921875 161 -15 149 -15 c 0
 134.333007812 -15 123 -10.3330078125 115 -1 c 0
 107 8.3330078125 103 20.6669921875 103 36 c 0
 103 46 104.833007812 56.1669921875 108.5 66.5 c 0
 112.166992188 76.8330078125 117.5 86.3330078125 124.5 95 c 0
 131.5 103.666992188 139.833007812 110.833007812 149.5 116.5 c 0
 159.166992188 122.166992188 169.666992188 125 181 125 c 0
 196.333007812 125 208 120.5 216 111.5 c 0
 224 102.5 228 91 228 77 c 0
EndSplineSet
EndChar

StartChar: at
Encoding: 35 64 35
Width: 794
VWidth: 500
Flags: HW
LayerCount: 2
Fore
SplineSet
461 197 m 0
 463 211.666992188 465.333007812 227.333007812 468 244 c 0
 470.666992188 260.666992188 473.333007812 276.833007812 476 292.5 c 0
 478.666992188 308.166992188 481.166992188 322.666992188 483.5 336 c 0
 485.833007812 349.333007812 488 360.333007812 490 369 c 0
 480.666992188 377 470.333007812 384.166992188 459 390.5 c 0
 447.666992188 396.833007812 435.666992188 400 423 400 c 0
 409 400 396 396.5 384 389.5 c 0
 372 382.5 361 373.166992188 351 361.5 c 0
 341 349.833007812 332.333007812 336.5 325 321.5 c 0
 317.666992188 306.5 311.5 291 306.5 275 c 0
 301.5 259 297.666992188 243.166992188 295 227.5 c 0
 292.333007812 211.833007812 291 197.666992188 291 185 c 0
 291 165 292.666992188 147 296 131 c 0
 299.333007812 115 303.666992188 101.5 309 90.5 c 0
 314.333007812 79.5 320.5 71.1669921875 327.5 65.5 c 0
 334.5 59.8330078125 342 57 350 57 c 0
 357.333007812 57 365.333007812 60.8330078125 374 68.5 c 0
 382.666992188 76.1669921875 392 86.5 402 99.5 c 0
 412 112.5 422 127.5 432 144.5 c 0
 442 161.5 451.666992188 179 461 197 c 0
752 268 m 0
 748 240 741.166992188 213.333007812 731.5 188 c 0
 721.833007812 162.666992188 710.166992188 139.333007812 696.5 118 c 0
 682.833007812 96.6669921875 667.666992188 77.5 651 60.5 c 0
 634.333007812 43.5 617.666992188 29 601 17 c 0
 584.333007812 5 568.166992188 -4.1669921875 552.5 -10.5 c 0
 536.833007812 -16.8330078125 522.333007812 -20 509 -20 c 0
 503.666992188 -20 498 -18.1669921875 492 -14.5 c 0
 486 -10.8330078125 480.333007812 -4 475 6 c 0
 469.666992188 16 465.166992188 30 461.5 48 c 0
 457.833007812 66 455.666992188 89.3330078125 455 118 c 0
 447 103.333007812 437.5 87.8330078125 426.5 71.5 c 0
 415.5 55.1669921875 404 40.1669921875 392 26.5 c 0
 380 12.8330078125 367.5 1.6669921875 354.5 -7 c 0
 341.5 -15.6669921875 328.666992188 -20 316 -20 c 0
 304.666992188 -20 292.833007812 -16.8330078125 280.5 -10.5 c 0
 268.166992188 -4.1669921875 256.666992188 5.6669921875 246 19 c 0
 235.333007812 32.3330078125 226.5 49.6669921875 219.5 71 c 0
 212.5 92.3330078125 209 118.333007812 209 149 c 0
 209 175 211.833007812 200.166992188 217.5 224.5 c 0
 223.166992188 248.833007812 231.5 272.333007812 242.5 295 c 0
 253.5 317.666992188 267.333007812 338.833007812 284 358.5 c 0
 300.666992188 378.166992188 320.666992188 395.666992188 344 411 c 0
 352.666992188 417 362.5 422.833007812 373.5 428.5 c 0
 384.5 434.166992188 395.666992188 439 407 443 c 0
 418.333007812 447 429.833007812 450.333007812 441.5 453 c 0
 453.166992188 455.666992188 464.333007812 457 475 457 c 0
 488.333007812 457 500.666992188 454 512 448 c 0
 523.333007812 442 534 435.666992188 544 429 c 0
 552.666992188 434.333007812 561.666992188 439.333007812 571 444 c 0
 597 457 l 0
 609 435 l 0
 603.666992188 430.333007812 599 426.166992188 595 422.5 c 0
 591 418.833007812 587.833007812 414.666992188 585.5 410 c 0
 583.166992188 405.333007812 580.833007812 399.666992188 578.5 393 c 0
 576.166992188 386.333007812 574 377.333007812 572 366 c 0
 567.333007812 342.666992188 562.833007812 319.166992188 558.5 295.5 c 0
 554.166992188 271.833007812 550.5 249.666992188 547.5 229 c 0
 544.5 208.333007812 542.333007812 190.166992188 541 174.5 c 0
 539.666992188 158.833007812 539 147.333007812 539 140 c 0
 539 123.333007812 539.666992188 109.666992188 541 99 c 0
 542.333007812 88.3330078125 544.333007812 79.8330078125 547 73.5 c 0
 549.666992188 67.1669921875 552.833007812 62.8330078125 556.5 60.5 c 0
 560.166992188 58.1669921875 564 57 568 57 c 0
 576 57 585.666992188 61.8330078125 597 71.5 c 0
 608.333007812 81.1669921875 619.333007812 94.5 630 111.5 c 0
 640.666992188 128.5 650.5 148.833007812 659.5 172.5 c 0
 668.5 196.166992188 675.333007812 221.666992188 680 249 c 0
 688 304.333007812 687.333007812 353 678 395 c 0
 668.666992188 437 653 472.333007812 631 501 c 0
 609 529.666992188 582.166992188 551.333007812 550.5 566 c 0
 518.833007812 580.666992188 485 588 449 588 c 0
 420.333007812 588 392.833007812 583.666992188 366.5 575 c 0
 340.166992188 566.333007812 315.666992188 554.166992188 293 538.5 c 0
 270.333007812 522.833007812 249.5 504.333007812 230.5 483 c 0
 211.5 461.666992188 194.833007812 438.333007812 180.5 413 c 0
 166.166992188 387.666992188 154.166992188 360.833007812 144.5 332.5 c 0
 134.833007812 304.166992188 128 275.333007812 124 246 c 0
 116 186.666992188 117.833007812 134.333007812 129.5 89 c 0
 141.166992188 43.6669921875 160 5.6669921875 186 -25 c 0
 212 -55.6669921875 243.5 -79 280.5 -95 c 0
 317.5 -111 357.333007812 -119 400 -119 c 0
 425.333007812 -119 450.333007812 -116 475 -110 c 0
 499.666992188 -104 522.833007812 -96.5 544.5 -87.5 c 0
 566.166992188 -78.5 585.5 -68.8330078125 602.5 -58.5 c 0
 619.5 -48.1669921875 633.333007812 -38.6669921875 644 -30 c 0
 654 -63 l 0
 641.333007812 -75.6669921875 625.5 -89 606.5 -103 c 0
 587.5 -117 565.666992188 -130 541 -142 c 0
 516.333007812 -154 489.333007812 -163.833007812 460 -171.5 c 0
 430.666992188 -179.166992188 399.666992188 -183 367 -183 c 0
 312.333007812 -183 262.833007812 -173.333007812 218.5 -154 c 0
 174.166992188 -134.666992188 137 -107.333007812 107 -72 c 0
 77 -36.6669921875 55.6669921875 6.3330078125 43 57 c 0
 30.3330078125 107.666992188 28.6669921875 164.333007812 38 227 c 0
 43.3330078125 263.666992188 52.5 299.666992188 65.5 335 c 0
 78.5 370.333007812 95.1669921875 403.5 115.5 434.5 c 0
 135.833007812 465.5 159.333007812 494.333007812 186 521 c 0
 212.666992188 547.666992188 241.5 570.666992188 272.5 590 c 0
 303.5 609.333007812 336.333007812 624.333007812 371 635 c 0
 405.666992188 645.666992188 441.666992188 651 479 651 c 0
 508.333007812 651 536.333007812 647.166992188 563 639.5 c 0
 589.666992188 631.833007812 614 620.5 636 605.5 c 0
 658 590.5 677.666992188 572.333007812 695 551 c 0
 712.333007812 529.666992188 726.166992188 504.666992188 736.5 476 c 0
 746.833007812 447.333007812 753.5 415.666992188 756.5 381 c 0
 759.5 346.333007812 758 308.666992188 752 268 c 0
EndSplineSet
EndChar

StartChar: A
Encoding: 36 65 36
Width: 567
VWidth: 500
Flags: HW
LayerCount: 2
Fore
SplineSet
357 264 m 0
 312 518 l 0
 203 264 l 0
 357 264 l 0
181 214 m 0
 114 59 l 0
 110 49 112.666992188 41.8330078125 122 37.5 c 0
 131.333007812 33.1669921875 148.333007812 29.3330078125 173 26 c 0
 170 0 l 0
 -20 0 l 0
 -16 26 l 0
 4.6669921875 30 21 34.1669921875 33 38.5 c 0
 45 42.8330078125 53.3330078125 49.6669921875 58 59 c 0
 292 596 l 0
 297.333007812 600.666992188 303.666992188 605.333007812 311 610 c 0
 318.333007812 614.666992188 325.666992188 619 333 623 c 0
 340.333007812 627 347.5 630.833007812 354.5 634.5 c 0
 361.5 638.166992188 367.666992188 641 373 643 c 0
 480 59 l 0
 480.666992188 54.3330078125 482 50.3330078125 484 47 c 0
 486 43.6669921875 489 40.6669921875 493 38 c 0
 497 35.3330078125 502.166992188 33 508.5 31 c 0
 514.833007812 29 523 27.3330078125 533 26 c 0
 530 0 l 0
 330 0 l 0
 333 26 l 0
 356.333007812 27.3330078125 372.833007812 30.5 382.5 35.5 c 0
 392.166992188 40.5 396 48.3330078125 394 59 c 0
 367 214 l 0
 181 214 l 0
EndSplineSet
EndChar

StartChar: B
Encoding: 37 66 37
Width: 507
VWidth: 500
Flags: HW
LayerCount: 2
Fore
SplineSet
271 585 m 0
 248 585 l 0
 237 585 237 585 228 585 c 0
 196 356 l 0
 212 356 l 0
 232.666992188 356 253 358 273 362 c 0
 293 366 310.666992188 372.666992188 326 382 c 0
 341.333007812 391.333007812 353.666992188 404.166992188 363 420.5 c 0
 372.333007812 436.833007812 377 457.333007812 377 482 c 0
 377 501.333007812 373.5 517.666992188 366.5 531 c 0
 359.5 544.333007812 351 555 341 563 c 0
 331 571 319.666992188 576.666992188 307 580 c 0
 294.333007812 583.333007812 282.333007812 585 271 585 c 0
258 314 m 0
 244 314 231.666992188 313.333007812 221 312 c 0
 205 310 205 310 189 308 c 0
 155 56 l 0
 154.333007812 54 156.333007812 50.6669921875 161 46 c 0
 173 40 186.666992188 36 202 34 c 0
 217.333007812 32 231.666992188 31 245 31 c 0
 265.666992188 31 284.333007812 35.1669921875 301 43.5 c 0
 317.666992188 51.8330078125 331.833007812 63.1669921875 343.5 77.5 c 0
 355.166992188 91.8330078125 364.166992188 108 370.5 126 c 0
 376.833007812 144 380 163 380 183 c 0
 380 199 377.833007812 214.833007812 373.5 230.5 c 0
 369.166992188 246.166992188 362.166992188 260.333007812 352.5 273 c 0
 342.833007812 285.666992188 330.333007812 295.666992188 315 303 c 0
 299.666992188 310.333007812 280.666992188 314 258 314 c 0
471 200 m 0
 471 168 464.5 138.833007812 451.5 112.5 c 0
 438.5 86.1669921875 421.166992188 63.6669921875 399.5 45 c 0
 377.833007812 26.3330078125 352.333007812 11.6669921875 323 1 c 0
 293.666992188 -9.6669921875 262.666992188 -15 230 -15 c 0
 223.333007812 -15 215.333007812 -14.8330078125 206 -14.5 c 0
 196.666992188 -14.1669921875 186.833007812 -13.6669921875 176.5 -13 c 0
 166.166992188 -12.3330078125 155.166992188 -11.5 143.5 -10.5 c 0
 131.833007812 -9.5 120.666992188 -8.6669921875 110 -8 c 0
 84.6669921875 -6 58 -3.3330078125 30 0 c 0
 -1 0 l 0
 2 26 l 0
 22.6669921875 30.6669921875 38.8330078125 35.6669921875 50.5 41 c 0
 62.1669921875 46.3330078125 68.3330078125 51.3330078125 69 56 c 0
 141 579 l 0
 127 577.666992188 114.166992188 575.666992188 102.5 573 c 0
 90.8330078125 570.333007812 79.3330078125 567.666992188 68 565 c 0
 68 599 l 0
 98 607.666992188 130.666992188 615 166 621 c 0
 201.333007812 627 241.666992188 630 287 630 c 0
 344.333007812 630 388.833007812 619.166992188 420.5 597.5 c 0
 452.166992188 575.833007812 468 546 468 508 c 0
 468 491.333007812 465.333007812 475 460 459 c 0
 454.666992188 443 447 428.333007812 437 415 c 0
 427 401.666992188 415 389.666992188 401 379 c 0
 387 368.333007812 371.666992188 359.666992188 355 353 c 0
 371.666992188 349.666992188 387.166992188 343.5 401.5 334.5 c 0
 415.833007812 325.5 428.166992188 314.166992188 438.5 300.5 c 0
 448.833007812 286.833007812 456.833007812 271.5 462.5 254.5 c 0
 468.166992188 237.5 471 219.333007812 471 200 c 0
EndSplineSet
EndChar

StartChar: C
Encoding: 38 67 38
Width: 493
VWidth: 500
Flags: HW
LayerCount: 2
Fore
SplineSet
506 581 m 0
 507.333007812 579.666992188 506 575.5 502 568.5 c 0
 498 561.5 493 553.833007812 487 545.5 c 0
 481 537.166992188 474.666992188 528.833007812 468 520.5 c 0
 461.333007812 512.166992188 455.666992188 506.333007812 451 503 c 0
 432 508 l 0
 426 516 419.166992188 523.666992188 411.5 531 c 0
 403.833007812 538.333007812 395.333007812 544.833007812 386 550.5 c 0
 376.666992188 556.166992188 366.333007812 560.5 355 563.5 c 0
 343.666992188 566.5 331.333007812 568 318 568 c 0
 304.666992188 568 290.666992188 565.333007812 276 560 c 0
 261.333007812 554.666992188 247.666992188 547 235 537 c 0
 214.333007812 521 197 501 183 477 c 0
 169 453 157.5 427.666992188 148.5 401 c 0
 139.5 374.333007812 133 348 129 322 c 0
 125 296 123 272.666992188 123 252 c 0
 123 216.666992188 127.666992188 186.333007812 137 161 c 0
 146.333007812 135.666992188 158.333007812 115 173 99 c 0
 187.666992188 83 203.833007812 71.3330078125 221.5 64 c 0
 239.166992188 56.6669921875 256 53 272 53 c 0
 280.666992188 53 290.5 54.1669921875 301.5 56.5 c 0
 312.5 58.8330078125 324.5 63 337.5 69 c 0
 350.5 75 364.833007812 82.8330078125 380.5 92.5 c 0
 396.166992188 102.166992188 413.666992188 114.333007812 433 129 c 0
 434.333007812 128.333007812 435.666992188 126.833007812 437 124.5 c 0
 438.333007812 122.166992188 439.666992188 119.5 441 116.5 c 0
 442.333007812 113.5 443.666992188 110.666992188 445 108 c 0
 446.333007812 105.333007812 447.333007812 103.666992188 448 103 c 0
 426 81 405 62.5 385 47.5 c 0
 365 32.5 345.833007812 20.5 327.5 11.5 c 0
 309.166992188 2.5 291.666992188 -3.8330078125 275 -7.5 c 0
 258.333007812 -11.1669921875 242.333007812 -13 227 -13 c 0
 201 -13 176.5 -7.6669921875 153.5 3 c 0
 130.5 13.6669921875 110.166992188 29 92.5 49 c 0
 74.8330078125 69 60.8330078125 93.6669921875 50.5 123 c 0
 40.1669921875 152.333007812 35 186 35 224 c 0
 35 254.666992188 38 285.833007812 44 317.5 c 0
 50 349.166992188 59.5 380.166992188 72.5 410.5 c 0
 85.5 440.833007812 102 469.5 122 496.5 c 0
 142 523.5 165.666992188 548 193 570 c 0
 217 588.666992188 243.5 603.333007812 272.5 614 c 0
 301.5 624.666992188 331.333007812 630 362 630 c 0
 394 630 422.5 625.333007812 447.5 616 c 0
 472.5 606.666992188 492 595 506 581 c 0
EndSplineSet
EndChar

StartChar: D
Encoding: 39 68 39
Width: 560
VWidth: 500
Flags: HW
LayerCount: 2
Fore
SplineSet
543 365 m 0
 543 336.333007812 540 307.5 534 278.5 c 0
 528 249.5 519.166992188 221.5 507.5 194.5 c 0
 495.833007812 167.5 481.333007812 142.166992188 464 118.5 c 0
 446.666992188 94.8330078125 426.833007812 74.1669921875 404.5 56.5 c 0
 382.166992188 38.8330078125 357.166992188 25 329.5 15 c 0
 301.833007812 5 272 0 240 0 c 0
 -1 0 l 0
 2 26 l 0
 22.6669921875 30.6669921875 39 35.6669921875 51 41 c 0
 63 46.3330078125 69.3330078125 51.3330078125 70 56 c 0
 142 577 l 0
 69 568 l 0
 69 604 l 0
 106.333007812 613.333007812 144.333007812 620 183 624 c 0
 221.666992188 628 257.666992188 630 291 630 c 0
 332.333007812 630 368.666992188 623.666992188 400 611 c 0
 431.333007812 598.333007812 457.666992188 580.5 479 557.5 c 0
 500.333007812 534.5 516.333007812 506.833007812 527 474.5 c 0
 537.666992188 442.166992188 543 405.666992188 543 365 c 0
257 585 m 0
 250 585 250 585 242.5 585 c 0
 237.5 585 232.666992188 584.666992188 228 584 c 0
 158 72 l 0
 157.333007812 67.3330078125 158 63.3330078125 160 60 c 0
 162 56.6669921875 165.666992188 53.8330078125 171 51.5 c 0
 176.333007812 49.1669921875 183.833007812 47.5 193.5 46.5 c 0
 203.166992188 45.5 215 45 229 45 c 0
 252.333007812 45 274.166992188 49.5 294.5 58.5 c 0
 314.833007812 67.5 333.166992188 79.6669921875 349.5 95 c 0
 365.833007812 110.333007812 380.166992188 128.166992188 392.5 148.5 c 0
 404.833007812 168.833007812 415.166992188 190.5 423.5 213.5 c 0
 431.833007812 236.5 438.166992188 260.166992188 442.5 284.5 c 0
 446.833007812 308.833007812 449 332.333007812 449 355 c 0
 449 389.666992188 445 421.166992188 437 449.5 c 0
 429 477.833007812 417 502.166992188 401 522.5 c 0
 385 542.833007812 365 558.333007812 341 569 c 0
 317 579.666992188 289 585 257 585 c 0
EndSplineSet
EndChar

StartChar: E
Encoding: 40 69 40
Width: 472
VWidth: 500
Flags: HW
LayerCount: 2
Fore
SplineSet
433 129 m 0
 429.666992188 115 426.166992188 101.333007812 422.5 88 c 0
 418.833007812 74.6669921875 415.5 62.1669921875 412.5 50.5 c 0
 409.5 38.8330078125 406.5 28.6669921875 403.5 20 c 0
 400.5 11.3330078125 398 4.6669921875 396 0 c 0
 -1 0 l 0
 2 26 l 0
 22.6669921875 30.6669921875 39 35.6669921875 51 41 c 0
 63 46.3330078125 69.3330078125 51.3330078125 70 56 c 0
 140 559 l 0
 140.666992188 563 136.166992188 568 126.5 574 c 0
 116.833007812 580 101.333007812 585 80 589 c 0
 83 615 l 0
 457 615 l 0
 470 602 l 0
 468.666992188 593.333007812 466.5 583.666992188 463.5 573 c 0
 460.5 562.333007812 457.5 551.333007812 454.5 540 c 0
 451.5 528.666992188 448.166992188 518 444.5 508 c 0
 440.833007812 498 438 489.666992188 436 483 c 0
 410 483 l 0
 412.666992188 513 411.833007812 534.333007812 407.5 547 c 0
 403.166992188 559.666992188 395.333007812 566 384 566 c 0
 225 566 l 0
 196 359 l 0
 378 359 l 0
 389 344 l 0
 385.666992188 339.333007812 382 334.333007812 378 329 c 0
 374 323.666992188 369.833007812 318.5 365.5 313.5 c 0
 361.166992188 308.5 356.833007812 303.666992188 352.5 299 c 0
 348.166992188 294.333007812 344 290.666992188 340 288 c 0
 335.333007812 293.333007812 330.166992188 297.833007812 324.5 301.5 c 0
 318.833007812 305.166992188 312 307.833007812 304 309.5 c 0
 296 311.166992188 286.166992188 312.5 274.5 313.5 c 0
 262.833007812 314.5 248.666992188 315 232 315 c 0
 190 315 l 0
 159 80 l 0
 158.333007812 75.3330078125 158.833007812 71.1669921875 160.5 67.5 c 0
 162.166992188 63.8330078125 166 60.5 172 57.5 c 0
 178 54.5 187 52.3330078125 199 51 c 0
 211 49.6669921875 226.666992188 49 246 49 c 0
 300 49 l 0
 314 49 325.833007812 50.1669921875 335.5 52.5 c 0
 345.166992188 54.8330078125 354 59.1669921875 362 65.5 c 0
 370 71.8330078125 377.666992188 80.8330078125 385 92.5 c 0
 392.333007812 104.166992188 400.666992188 119.666992188 410 139 c 0
 433 129 l 0
EndSplineSet
EndChar

StartChar: F
Encoding: 41 70 41
Width: 445
VWidth: 500
Flags: HW
LayerCount: 2
Fore
SplineSet
474 602 m 0
 472.666992188 593.333007812 470.5 583.666992188 467.5 573 c 0
 464.5 562.333007812 461.5 551.333007812 458.5 540 c 0
 455.5 528.666992188 452.333007812 518 449 508 c 0
 445.666992188 498 442.666992188 489.666992188 440 483 c 0
 415 483 l 0
 417 513 415.833007812 534.333007812 411.5 547 c 0
 407.166992188 559.666992188 399.333007812 566 388 566 c 0
 225 566 l 0
 196 359 l 0
 356 359 l 0
 368 344 l 0
 364.666992188 339.333007812 360.833007812 334.333007812 356.5 329 c 0
 350 321 350 321 343.5 313 c 0
 339.166992188 307.666992188 334.833007812 302.833007812 330.5 298.5 c 0
 326.166992188 294.166992188 322.333007812 290.666992188 319 288 c 0
 313.666992188 293.333007812 308.166992188 297.833007812 302.5 301.5 c 0
 296.833007812 305.166992188 290.333007812 307.833007812 283 309.5 c 0
 275.666992188 311.166992188 267.5 312.5 258.5 313.5 c 0
 249.5 314.5 239.666992188 315 229 315 c 0
 190 315 l 0
 155 56 l 0
 154.333007812 52 159.333007812 47.5 170 42.5 c 0
 180.666992188 37.5 200.333007812 32 229 26 c 0
 225 0 l 0
 -1 0 l 0
 2 26 l 0
 22.6669921875 30.6669921875 39 35.6669921875 51 41 c 0
 63 46.3330078125 69.3330078125 51.3330078125 70 56 c 0
 140 559 l 0
 140.666992188 563 136.166992188 568 126.5 574 c 0
 116.833007812 580 101.333007812 585 80 589 c 0
 83 615 l 0
 461 615 l 0
 474 602 l 0
EndSplineSet
EndChar

StartChar: G
Encoding: 42 71 42
Width: 531
VWidth: 500
Flags: HW
LayerCount: 2
Fore
SplineSet
526 265 m 0
 508.666992188 259.666992188 496 253.5 488 246.5 c 0
 480 239.5 475.333007812 232.333007812 474 225 c 0
 472.666992188 216.333007812 471.166992188 204.833007812 469.5 190.5 c 0
 467.833007812 176.166992188 466 161.666992188 464 147 c 0
 462 132.333007812 460.166992188 118.666992188 458.5 106 c 0
 456.833007812 93.3330078125 455.666992188 84 455 78 c 0
 430.333007812 58 408.166992188 42 388.5 30 c 0
 368.833007812 18 351 8.6669921875 335 2 c 0
 319 -4.6669921875 304 -9.1669921875 290 -11.5 c 0
 276 -13.8330078125 262.333007812 -15 249 -15 c 0
 221 -15 194 -9.3330078125 168 2 c 0
 142 13.3330078125 119.166992188 29.5 99.5 50.5 c 0
 79.8330078125 71.5 64.1669921875 97.5 52.5 128.5 c 0
 40.8330078125 159.5 35 194.333007812 35 233 c 0
 35 263.666992188 38.5 294.666992188 45.5 326 c 0
 52.5 357.333007812 62.5 387.166992188 75.5 415.5 c 0
 88.5 443.833007812 104 470.166992188 122 494.5 c 0
 140 518.833007812 160.333007812 539.666992188 183 557 c 0
 211 579.666992188 241.833007812 597.5 275.5 610.5 c 0
 309.166992188 623.5 347 630 389 630 c 0
 399 630 410.166992188 628.833007812 422.5 626.5 c 0
 434.833007812 624.166992188 447.333007812 620.833007812 460 616.5 c 0
 472.666992188 612.166992188 484.5 607 495.5 601 c 0
 506.5 595 516.333007812 588 525 580 c 0
 527 578.666992188 526 574.5 522 567.5 c 0
 518 560.5 512.833007812 552.833007812 506.5 544.5 c 0
 500.166992188 536.166992188 493.5 528 486.5 520 c 0
 479.5 512 473.666992188 506.333007812 469 503 c 0
 451 507 l 0
 435.666992188 529 417.833007812 545.166992188 397.5 555.5 c 0
 377.166992188 565.833007812 351.666992188 571 321 571 c 0
 307.666992188 571 292.5 566.833007812 275.5 558.5 c 0
 258.5 550.166992188 241.333007812 538.666992188 224 524 c 0
 208.666992188 511.333007812 194.833007812 494.333007812 182.5 473 c 0
 170.166992188 451.666992188 159.5 428.666992188 150.5 404 c 0
 141.5 379.333007812 134.5 354 129.5 328 c 0
 124.5 302 122 277.333007812 122 254 c 0
 122 219.333007812 127 189.333007812 137 164 c 0
 147 138.666992188 160 117.833007812 176 101.5 c 0
 192 85.1669921875 209.666992188 73 229 65 c 0
 248.333007812 57 267.666992188 53 287 53 c 0
 302.333007812 53 317.833007812 55.1669921875 333.5 59.5 c 0
 349.166992188 63.8330078125 362.666992188 70.3330078125 374 79 c 0
 394 225 l 0
 394 228.333007812 393.333007812 231.5 392 234.5 c 0
 390.666992188 237.5 386.333007812 240.666992188 379 244 c 0
 371.666992188 247.333007812 361 250.666992188 347 254 c 0
 333 257.333007812 313.666992188 261 289 265 c 0
 292 291 l 0
 529 291 l 0
 526 265 l 0
EndSplineSet
EndChar

StartChar: H
Encoding: 43 72 43
Width: 614
VWidth: 500
Flags: HW
LayerCount: 2
Fore
SplineSet
292 589 m 0
 271.333007812 584.333007812 255.166992188 579.333007812 243.5 574 c 0
 231.833007812 568.666992188 225.333007812 563.666992188 224 559 c 0
 195 347 l 0
 455 347 l 0
 484 559 l 0
 484.666992188 563 480.166992188 568 470.5 574 c 0
 460.833007812 580 445.333007812 585 424 589 c 0
 427 615 l 0
 641 615 l 0
 637 589 l 0
 616.333007812 584.333007812 600 579.333007812 588 574 c 0
 576 568.666992188 569.666992188 563.666992188 569 559 c 0
 500 56 l 0
 499.333007812 52 503.833007812 47.1669921875 513.5 41.5 c 0
 523.166992188 35.8330078125 538.666992188 30.6669921875 560 26 c 0
 556 0 l 0
 343 0 l 0
 347 26 l 0
 367.666992188 30.6669921875 384 35.6669921875 396 41 c 0
 408 46.3330078125 414.333007812 51.3330078125 415 56 c 0
 448 297 l 0
 188 297 l 0
 156 56 l 0
 155.333007812 52 159.833007812 47.1669921875 169.5 41.5 c 0
 179.166992188 35.8330078125 194.333007812 30.6669921875 215 26 c 0
 211 0 l 0
 -1 0 l 0
 2 26 l 0
 22.6669921875 30.6669921875 39 35.6669921875 51 41 c 0
 63 46.3330078125 69.3330078125 51.3330078125 70 56 c 0
 140 559 l 0
 140.666992188 563 136.166992188 568 126.5 574 c 0
 116.833007812 580 101.333007812 585 80 589 c 0
 83 615 l 0
 296 615 l 0
 292 589 l 0
EndSplineSet
EndChar

StartChar: I
Encoding: 44 73 44
Width: 289
VWidth: 500
Flags: HW
LayerCount: 2
Fore
SplineSet
302 589 m 0
 281.333007812 584.333007812 265 579.333007812 253 574 c 0
 241 568.666992188 234.666992188 563.666992188 234 559 c 0
 165 56 l 0
 164.333007812 52 168.833007812 47.1669921875 178.5 41.5 c 0
 188.166992188 35.8330078125 203.666992188 30.6669921875 225 26 c 0
 221 0 l 0
 9 0 l 0
 13 26 l 0
 33.6669921875 30.6669921875 49.8330078125 35.6669921875 61.5 41 c 0
 73.1669921875 46.3330078125 79.6669921875 51.3330078125 81 56 c 0
 149 559 l 0
 149.666992188 563 145.166992188 568 135.5 574 c 0
 125.833007812 580 110.666992188 585 90 589 c 0
 94 615 l 0
 306 615 l 0
 302 589 l 0
EndSplineSet
EndChar

StartChar: J
Encoding: 45 74 45
Width: 291
VWidth: 500
Flags: HW
LayerCount: 2
Fore
SplineSet
314 589 m 0
 293.333007812 584.333007812 277 579.333007812 265 574 c 0
 253 568.666992188 246.666992188 563.666992188 246 559 c 0
 183 100 l 0
 177.666992188 62 170.5 30 161.5 4 c 0
 152.5 -22 142.333007812 -44 131 -62 c 0
 119.666992188 -80 107.5 -95 94.5 -107 c 0
 81.5 -119 68.3330078125 -130.333007812 55 -141 c 0
 46.3330078125 -147.666992188 36.6669921875 -154 26 -160 c 0
 15.3330078125 -166 4.5 -171.166992188 -6.5 -175.5 c 0
 -17.5 -179.833007812 -28 -183 -38 -185 c 0
 -48 -187 -56.3330078125 -188 -63 -188 c 0
 -73 -188 -82.6669921875 -186.5 -92 -183.5 c 0
 -101.333007812 -180.5 -109.666992188 -176.833007812 -117 -172.5 c 0
 -124.333007812 -168.166992188 -130.166992188 -163.666992188 -134.5 -159 c 0
 -138.833007812 -154.333007812 -141 -150.333007812 -141 -147 c 0
 -141 -143.666992188 -138.333007812 -138.833007812 -133 -132.5 c 0
 -127.666992188 -126.166992188 -121.333007812 -119.666992188 -114 -113 c 0
 -106.666992188 -106.333007812 -99.1669921875 -100.5 -91.5 -95.5 c 0
 -83.8330078125 -90.5 -78 -88 -74 -88 c 0
 -70.6669921875 -88 -67 -89.8330078125 -63 -93.5 c 0
 -59 -97.1669921875 -54.3330078125 -101 -49 -105 c 0
 -43.6669921875 -109 -37.3330078125 -112.666992188 -30 -116 c 0
 -22.6669921875 -119.333007812 -14 -121 -4 -121 c 0
 4 -121 12.5 -118.5 21.5 -113.5 c 0
 30.5 -108.5 39.5 -99.1669921875 48.5 -85.5 c 0
 57.5 -71.8330078125 66 -52.8330078125 74 -28.5 c 0
 82 -4.1669921875 88.6669921875 27 94 65 c 0
 162 559 l 0
 162 561 161 563.166992188 159 565.5 c 0
 157 567.833007812 153 570.333007812 147 573 c 0
 141 575.666992188 132.666992188 578.333007812 122 581 c 0
 111.333007812 583.666992188 97.3330078125 586.333007812 80 589 c 0
 83 615 l 0
 318 615 l 0
 314 589 l 0
EndSplineSet
EndChar

StartChar: K
Encoding: 46 75 46
Width: 554
VWidth: 500
Flags: HW
LayerCount: 2
Fore
SplineSet
292 589 m 0
 271.333007812 584.333007812 255.166992188 579.333007812 243.5 574 c 0
 231.833007812 568.666992188 225.333007812 563.666992188 224 559 c 0
 191 318 l 0
 407 546 l 0
 415 554.666992188 420.5 561.666992188 423.5 567 c 0
 426.5 572.333007812 427 576.333007812 425 579 c 0
 423 581.666992188 418.5 583.833007812 411.5 585.5 c 0
 404.5 587.166992188 395.333007812 588.333007812 384 589 c 0
 388 615 l 0
 580 615 l 0
 577 589 l 0
 567 587.666992188 558.333007812 586.333007812 551 585 c 0
 543.666992188 583.666992188 536.833007812 582 530.5 580 c 0
 524.166992188 578 518.5 575.333007812 513.5 572 c 0
 508.5 568.666992188 503.666992188 564.333007812 499 559 c 0
 265 328 l 0
 437 84 l 0
 441.666992188 77.3330078125 446.666992188 72.3330078125 452 69 c 0
 457.333007812 65.6669921875 463.833007812 63.8330078125 471.5 63.5 c 0
 479.166992188 63.1669921875 488.166992188 64.5 498.5 67.5 c 0
 508.833007812 70.5 520.666992188 74.6669921875 534 80 c 0
 544 57 l 0
 532 47.6669921875 519.666992188 39.1669921875 507 31.5 c 0
 494.333007812 23.8330078125 482.166992188 17.1669921875 470.5 11.5 c 0
 458.833007812 5.8330078125 447.833007812 1.3330078125 437.5 -2 c 0
 427.166992188 -5.3330078125 419 -7 413 -7 c 0
 403 -7 394.666992188 -5.1669921875 388 -1.5 c 0
 381.333007812 2.1669921875 374.333007812 10 367 22 c 0
 190 309 l 0
 156 56 l 0
 155.333007812 52 159.833007812 47.1669921875 169.5 41.5 c 0
 179.166992188 35.8330078125 194.333007812 30.6669921875 215 26 c 0
 211 0 l 0
 -1 0 l 0
 2 26 l 0
 22.6669921875 30.6669921875 39 35.6669921875 51 41 c 0
 63 46.3330078125 69.3330078125 51.3330078125 70 56 c 0
 140 559 l 0
 140.666992188 563 136.166992188 568 126.5 574 c 0
 116.833007812 580 101.333007812 585 80 589 c 0
 83 615 l 0
 296 615 l 0
 292 589 l 0
EndSplineSet
EndChar

StartChar: L
Encoding: 47 76 47
Width: 460
VWidth: 500
Flags: HW
LayerCount: 2
Fore
SplineSet
429 129 m 0
 425.666992188 115 422.333007812 101.333007812 419 88 c 0
 415.666992188 74.6669921875 412.166992188 62.1669921875 408.5 50.5 c 0
 404.833007812 38.8330078125 401.666992188 28.6669921875 399 20 c 0
 396.333007812 11.3330078125 394 4.6669921875 392 0 c 0
 -1 0 l 0
 2 26 l 0
 22.6669921875 30.6669921875 39 35.6669921875 51 41 c 0
 63 46.3330078125 69.3330078125 51.3330078125 70 56 c 0
 140 559 l 0
 140.666992188 563 136.166992188 568 126.5 574 c 0
 116.833007812 580 101.333007812 585 80 589 c 0
 83 615 l 0
 296 615 l 0
 292 589 l 0
 271.333007812 584.333007812 255.166992188 579.333007812 243.5 574 c 0
 231.833007812 568.666992188 225.333007812 563.666992188 224 559 c 0
 159 82 l 0
 158.333007812 76 159 71 161 67 c 0
 163 63 167 59.5 173 56.5 c 0
 179 53.5 187.166992188 51.5 197.5 50.5 c 0
 207.833007812 49.5 221.333007812 49 238 49 c 0
 296 49 l 0
 310 49 321.833007812 50.1669921875 331.5 52.5 c 0
 341.166992188 54.8330078125 350 59.1669921875 358 65.5 c 0
 366 71.8330078125 373.666992188 80.8330078125 381 92.5 c 0
 388.333007812 104.166992188 396.666992188 119.666992188 406 139 c 0
 429 129 l 0
EndSplineSet
EndChar

StartChar: M
Encoding: 48 77 48
Width: 753
VWidth: 500
Flags: HW
LayerCount: 2
Fore
SplineSet
764 589 m 0
 755.333007812 589 745.5 587.666992188 734.5 585 c 0
 723.5 582.333007812 712.333007812 578.333007812 701 573 c 0
 641 56 l 0
 640.333007812 52 645.333007812 47.1669921875 656 41.5 c 0
 666.666992188 35.8330078125 682.666992188 30.6669921875 704 26 c 0
 700 0 l 0
 488 0 l 0
 492 26 l 0
 512.666992188 30.6669921875 529.5 35.6669921875 542.5 41 c 0
 555.5 46.3330078125 562.333007812 51.3330078125 563 56 c 0
 614 500 l 0
 354 0 l 0
 326 0 l 0
 193 496 l 0
 129 56 l 0
 128.333007812 52 132.833007812 47.1669921875 142.5 41.5 c 0
 152.166992188 35.8330078125 167.666992188 30.6669921875 189 26 c 0
 186 0 l 0
 2 0 l 0
 6 26 l 0
 27.3330078125 30.6669921875 43.6669921875 35.6669921875 55 41 c 0
 66.3330078125 46.3330078125 72.3330078125 51.3330078125 73 56 c 0
 148 571 l 0
 138 577.666992188 127.666992188 582.333007812 117 585 c 0
 106.333007812 587.666992188 96.6669921875 589 88 589 c 0
 92 615 l 0
 230 615 l 0
 232.666992188 615 235 614.5 237 613.5 c 0
 239 612.5 241 610.666992188 243 608 c 0
 245 605.333007812 246.666992188 601.166992188 248 595.5 c 0
 249.333007812 589.833007812 251.333007812 582.666992188 254 574 c 0
 372 147 l 0
 596 574 l 0
 600.666992188 582.666992188 604.666992188 589.833007812 608 595.5 c 0
 611.333007812 601.166992188 614.166992188 605.333007812 616.5 608 c 0
 618.833007812 610.666992188 621.166992188 612.5 623.5 613.5 c 0
 625.833007812 614.5 628.333007812 615 631 615 c 0
 767 615 l 0
 764 589 l 0
EndSplineSet
EndChar

StartChar: N
Encoding: 49 78 49
Width: 609
VWidth: 500
Flags: HW
LayerCount: 2
Fore
SplineSet
638 589 m 0
 616 585.666992188 599.666992188 581.166992188 589 575.5 c 0
 578.333007812 569.833007812 572.666992188 564.333007812 572 559 c 0
 492 -15 l 0
 473.333007812 -13 458.5 -9 447.5 -3 c 0
 436.5 3 427 13.3330078125 419 28 c 0
 185 477 l 0
 127 56 l 0
 126.333007812 52 130.333007812 46.8330078125 139 40.5 c 0
 147.666992188 34.1669921875 163.333007812 29.3330078125 186 26 c 0
 182 0 l 0
 0 0 l 0
 3 26 l 0
 25 28.6669921875 41.5 33.1669921875 52.5 39.5 c 0
 63.5 45.8330078125 69.3330078125 51.3330078125 70 56 c 0
 139 557 l 0
 130.333007812 567 121.166992188 574.333007812 111.5 579 c 0
 101.833007812 583.666992188 90.3330078125 587 77 589 c 0
 81 615 l 0
 180 615 l 0
 186.666992188 615 191.833007812 614.833007812 195.5 614.5 c 0
 199.166992188 614.166992188 202.5 612.666992188 205.5 610 c 0
 208.5 607.333007812 211.5 603.5 214.5 598.5 c 0
 217.5 593.5 221.333007812 586.333007812 226 577 c 0
 457 138 l 0
 515 559 l 0
 515 561 514.166992188 563.333007812 512.5 566 c 0
 510.833007812 568.666992188 507.666992188 571.5 503 574.5 c 0
 498.333007812 577.5 492.166992188 580.166992188 484.5 582.5 c 0
 476.833007812 584.833007812 467.333007812 587 456 589 c 0
 459 615 l 0
 641 615 l 0
 638 589 l 0
EndSplineSet
EndChar

StartChar: O
Encoding: 50 79 50
Width: 554
VWidth: 500
Flags: HW
LayerCount: 2
Fore
SplineSet
542 378 m 0
 542 354.666992188 539.833007812 331.166992188 535.5 307.5 c 0
 531.166992188 283.833007812 525.166992188 260.5 517.5 237.5 c 0
 509.833007812 214.5 500.333007812 192.166992188 489 170.5 c 0
 477.666992188 148.833007812 464.666992188 128.666992188 450 110 c 0
 436 92.6669921875 421 76.3330078125 405 61 c 0
 389 45.6669921875 372 32.3330078125 354 21 c 0
 336 9.6669921875 317.166992188 0.8330078125 297.5 -5.5 c 0
 277.833007812 -11.8330078125 257 -15 235 -15 c 0
 203 -15 175 -8.3330078125 151 5 c 0
 127 18.3330078125 106.833007812 36.5 90.5 59.5 c 0
 74.1669921875 82.5 62 109.333007812 54 140 c 0
 46 170.666992188 42 203 42 237 c 0
 42 259 43.8330078125 281.5 47.5 304.5 c 0
 51.1669921875 327.5 56.6669921875 350.333007812 64 373 c 0
 71.3330078125 395.666992188 80 417.5 90 438.5 c 0
 100 459.5 111.666992188 479 125 497 c 0
 139 515 153.833007812 532.166992188 169.5 548.5 c 0
 185.166992188 564.833007812 202.5 579 221.5 591 c 0
 240.5 603 260.5 612.5 281.5 619.5 c 0
 302.5 626.5 325 630 349 630 c 0
 381.666992188 630 410.166992188 623.333007812 434.5 610 c 0
 458.833007812 596.666992188 479 578.5 495 555.5 c 0
 511 532.5 522.833007812 505.666992188 530.5 475 c 0
 538.166992188 444.333007812 542 412 542 378 c 0
454 369 m 0
 454 396.333007812 451.166992188 422.166992188 445.5 446.5 c 0
 439.833007812 470.833007812 431.5 492 420.5 510 c 0
 409.5 528 396 542.166992188 380 552.5 c 0
 364 562.833007812 345.666992188 568 325 568 c 0
 301.666992188 568 280.666992188 563.333007812 262 554 c 0
 243.333007812 544.666992188 226.833007812 531.833007812 212.5 515.5 c 0
 198.166992188 499.166992188 185.833007812 480.666992188 175.5 460 c 0
 165.166992188 439.333007812 156.666992188 417.5 150 394.5 c 0
 143.333007812 371.5 138.333007812 348.5 135 325.5 c 0
 131.666992188 302.5 130 280.666992188 130 260 c 0
 130 230 133 202 139 176 c 0
 145 150 153.666992188 127.833007812 165 109.5 c 0
 176.333007812 91.1669921875 190 76.6669921875 206 66 c 0
 222 55.3330078125 239.666992188 50 259 50 c 0
 283 50 304.333007812 55 323 65 c 0
 341.666992188 75 358.333007812 88.3330078125 373 105 c 0
 387.666992188 121.666992188 400 141 410 163 c 0
 420 185 428.333007812 207.833007812 435 231.5 c 0
 441.666992188 255.166992188 446.5 278.833007812 449.5 302.5 c 0
 452.5 326.166992188 454 348.333007812 454 369 c 0
EndSplineSet
EndChar

StartChar: P
Encoding: 51 80 51
Width: 487
VWidth: 500
Flags: HW
LayerCount: 2
Fore
SplineSet
495 460 m 0
 495 432 489.333007812 405.833007812 478 381.5 c 0
 466.666992188 357.166992188 451.333007812 336 432 318 c 0
 412.666992188 300 390.166992188 285.666992188 364.5 275 c 0
 338.833007812 264.333007812 311.333007812 259 282 259 c 0
 269.333007812 259 256.833007812 260.5 244.5 263.5 c 0
 232.166992188 266.5 221.333007812 270.333007812 212 275 c 0
 206 316 l 0
 217.333007812 311.333007812 228 307.5 238 304.5 c 0
 248 301.5 258.666992188 300 270 300 c 0
 290.666992188 300 309.5 303.5 326.5 310.5 c 0
 343.5 317.5 358 327.166992188 370 339.5 c 0
 382 351.833007812 391.333007812 366.666992188 398 384 c 0
 404.666992188 401.333007812 408 420.666992188 408 442 c 0
 408 469.333007812 403.666992188 492.166992188 395 510.5 c 0
 386.333007812 528.833007812 374.833007812 543.5 360.5 554.5 c 0
 346.166992188 565.5 329.5 573.333007812 310.5 578 c 0
 291.5 582.666992188 271.666992188 585 251 585 c 0
 239 585 l 0
 234 585 234 585 229 585 c 0
 156 56 l 0
 155.333007812 54 156 51.8330078125 158 49.5 c 0
 160 47.1669921875 163.666992188 44.6669921875 169 42 c 0
 174.333007812 39.3330078125 182 36.6669921875 192 34 c 0
 202 31.3330078125 214.333007812 28.6669921875 229 26 c 0
 226 0 l 0
 -1 0 l 0
 2 26 l 0
 22.6669921875 30.6669921875 39 35.6669921875 51 41 c 0
 63 46.3330078125 69.3330078125 51.3330078125 70 56 c 0
 142 578 l 0
 130.666992188 576.666992188 118.833007812 574.833007812 106.5 572.5 c 0
 94.1669921875 570.166992188 81.3330078125 567.333007812 68 564 c 0
 68 598 l 0
 96.6669921875 608 128.5 615.833007812 163.5 621.5 c 0
 198.5 627.166992188 237 630 279 630 c 0
 312.333007812 630 342.333007812 626.333007812 369 619 c 0
 395.666992188 611.666992188 418.333007812 600.833007812 437 586.5 c 0
 455.666992188 572.166992188 470 554.5 480 533.5 c 0
 490 512.5 495 488 495 460 c 0
EndSplineSet
EndChar

StartChar: Q
Encoding: 52 81 52
Width: 564
VWidth: 500
Flags: HW
LayerCount: 2
Fore
SplineSet
563 -59 m 0
 553.666992188 -73 544.333007812 -85.6669921875 535 -97 c 0
 525.666992188 -108.333007812 516.666992188 -117.833007812 508 -125.5 c 0
 499.333007812 -133.166992188 491.5 -139.166992188 484.5 -143.5 c 0
 477.5 -147.833007812 471.333007812 -150 466 -150 c 0
 447.333007812 -150 429.333007812 -145 412 -135 c 0
 394.666992188 -125 377.5 -113 360.5 -99 c 0
 343.5 -85 326.666992188 -70.1669921875 310 -54.5 c 0
 293.333007812 -38.8330078125 276.333007812 -25.3330078125 259 -14 c 0
 251 -14.6669921875 243 -15 235 -15 c 0
 203 -15 175 -8.3330078125 151 5 c 0
 127 18.3330078125 106.833007812 36.5 90.5 59.5 c 0
 74.1669921875 82.5 62 109.333007812 54 140 c 0
 46 170.666992188 42 203 42 237 c 0
 42 259 43.8330078125 281.5 47.5 304.5 c 0
 51.1669921875 327.5 56.6669921875 350.333007812 64 373 c 0
 71.3330078125 395.666992188 80 417.5 90 438.5 c 0
 100 459.5 111.666992188 479 125 497 c 0
 139 515 153.833007812 532.166992188 169.5 548.5 c 0
 185.166992188 564.833007812 202.5 579 221.5 591 c 0
 240.5 603 260.5 612.5 281.5 619.5 c 0
 302.5 626.5 325 630 349 630 c 0
 381.666992188 630 410.166992188 623.333007812 434.5 610 c 0
 458.833007812 596.666992188 479 578.5 495 555.5 c 0
 511 532.5 522.833007812 505.666992188 530.5 475 c 0
 538.166992188 444.333007812 542 412 542 378 c 0
 542 354.666992188 539.833007812 331.166992188 535.5 307.5 c 0
 531.166992188 283.833007812 525.166992188 260.5 517.5 237.5 c 0
 509.833007812 214.5 500.333007812 192.166992188 489 170.5 c 0
 477.666992188 148.833007812 464.666992188 128.666992188 450 110 c 0
 433.333007812 88.6669921875 415 69.1669921875 395 51.5 c 0
 375 33.8330078125 353.666992188 19.3330078125 331 8 c 0
 345 0.6669921875 358.333007812 -7.6669921875 371 -17 c 0
 383.666992188 -26.3330078125 396.166992188 -35.1669921875 408.5 -43.5 c 0
 420.833007812 -51.8330078125 433 -58.8330078125 445 -64.5 c 0
 457 -70.1669921875 468.666992188 -73 480 -73 c 0
 484 -73 488 -72.5 492 -71.5 c 0
 496 -70.5 500.666992188 -68.6669921875 506 -66 c 0
 511.333007812 -63.3330078125 517.5 -59.5 524.5 -54.5 c 0
 531.5 -49.5 540 -43.6669921875 550 -37 c 0
 563 -59 l 0
454 369 m 0
 454 396.333007812 451.166992188 422.166992188 445.5 446.5 c 0
 439.833007812 470.833007812 431.5 492 420.5 510 c 0
 409.5 528 396 542.166992188 380 552.5 c 0
 364 562.833007812 345.666992188 568 325 568 c 0
 301.666992188 568 280.666992188 563.333007812 262 554 c 0
 243.333007812 544.666992188 226.833007812 531.833007812 212.5 515.5 c 0
 198.166992188 499.166992188 185.833007812 480.666992188 175.5 460 c 0
 165.166992188 439.333007812 156.666992188 417.5 150 394.5 c 0
 143.333007812 371.5 138.333007812 348.5 135 325.5 c 0
 131.666992188 302.5 130 280.666992188 130 260 c 0
 130 230 133 202 139 176 c 0
 145 150 153.666992188 127.833007812 165 109.5 c 0
 176.333007812 91.1669921875 190 76.6669921875 206 66 c 0
 222 55.3330078125 239.666992188 50 259 50 c 0
 283 50 304.333007812 55 323 65 c 0
 341.666992188 75 358.333007812 88.3330078125 373 105 c 0
 387.666992188 121.666992188 400 141 410 163 c 0
 420 185 428.333007812 207.833007812 435 231.5 c 0
 441.666992188 255.166992188 446.5 278.833007812 449.5 302.5 c 0
 452.5 326.166992188 454 348.333007812 454 369 c 0
EndSplineSet
EndChar

StartChar: R
Encoding: 53 82 53
Width: 537
VWidth: 500
Flags: HW
LayerCount: 2
Fore
SplineSet
540 55 m 0
 527.333007812 46.3330078125 514.333007812 38.3330078125 501 31 c 0
 487.666992188 23.6669921875 475.166992188 17.1669921875 463.5 11.5 c 0
 451.833007812 5.8330078125 441.333007812 1.3330078125 432 -2 c 0
 422.666992188 -5.3330078125 416 -7 412 -7 c 0
 406.666992188 -7 401.333007812 -6.1669921875 396 -4.5 c 0
 390.666992188 -2.8330078125 385.5 0.3330078125 380.5 5 c 0
 375.5 9.6669921875 370.166992188 16.1669921875 364.5 24.5 c 0
 358.833007812 32.8330078125 353.333007812 43.6669921875 348 57 c 0
 245 286 l 0
 235.666992188 286.666992188 226 287.666992188 216 289 c 0
 206 290.333007812 196.666992188 292 188 294 c 0
 156 56 l 0
 155.333007812 52 160 47.1669921875 170 41.5 c 0
 180 35.8330078125 195.333007812 30.6669921875 216 26 c 0
 212 0 l 0
 -1 0 l 0
 2 26 l 0
 22.6669921875 30.6669921875 39 35.6669921875 51 41 c 0
 63 46.3330078125 69.3330078125 51.3330078125 70 56 c 0
 141 578 l 0
 128.333007812 576.666992188 115.833007812 574.833007812 103.5 572.5 c 0
 91.1669921875 570.166992188 79 567.666992188 67 565 c 0
 68 599 l 0
 82.6669921875 603 97.8330078125 607 113.5 611 c 0
 129.166992188 615 145.833007812 618.333007812 163.5 621 c 0
 181.166992188 623.666992188 199.833007812 625.833007812 219.5 627.5 c 0
 239.166992188 629.166992188 260 630 282 630 c 0
 312 630 339.333007812 626.666992188 364 620 c 0
 388.666992188 613.333007812 409.5 603.333007812 426.5 590 c 0
 443.5 576.666992188 456.666992188 560.333007812 466 541 c 0
 475.333007812 521.666992188 480 499.333007812 480 474 c 0
 480 460 476.833007812 444 470.5 426 c 0
 464.166992188 408 454.5 390.166992188 441.5 372.5 c 0
 428.5 354.833007812 411.833007812 338.666992188 391.5 324 c 0
 371.166992188 309.333007812 346.666992188 298.666992188 318 292 c 0
 430 95 l 0
 435.333007812 85 440.666992188 77.5 446 72.5 c 0
 451.333007812 67.5 457.666992188 64.5 465 63.5 c 0
 472.333007812 62.5 481 63.3330078125 491 66 c 0
 501 68.6669921875 513.666992188 72.6669921875 529 78 c 0
 540 55 l 0
259 585 m 0
 251 585 251 585 243.5 585 c 0
 236 585 236 585 228 585 c 0
 194 335 l 0
 211.333007812 330.333007812 229 328 247 328 c 0
 266.333007812 328 284.833007812 330.833007812 302.5 336.5 c 0
 320.166992188 342.166992188 335.833007812 350.5 349.5 361.5 c 0
 363.166992188 372.5 374.166992188 386.166992188 382.5 402.5 c 0
 390.833007812 418.833007812 395 438 395 460 c 0
 395 484 390.666992188 504 382 520 c 0
 373.333007812 536 362.5 548.833007812 349.5 558.5 c 0
 336.5 568.166992188 321.833007812 575 305.5 579 c 0
 289.166992188 583 273.666992188 585 259 585 c 0
EndSplineSet
EndChar

StartChar: S
Encoding: 54 83 54
Width: 451
VWidth: 500
Flags: HW
LayerCount: 2
Fore
SplineSet
440 585 m 0
 442 583.666992188 441.333007812 579.166992188 438 571.5 c 0
 434.666992188 563.833007812 430 555.666992188 424 547 c 0
 418 538.333007812 411.666992188 530 405 522 c 0
 398.333007812 514 393.333007812 509 390 507 c 0
 371 510 l 0
 361 529.333007812 347.5 545.333007812 330.5 558 c 0
 313.5 570.666992188 295.333007812 577 276 577 c 0
 258.666992188 577 243.333007812 574.333007812 230 569 c 0
 216.666992188 563.666992188 205.666992188 556.5 197 547.5 c 0
 188.333007812 538.5 181.666992188 528.666992188 177 518 c 0
 172.333007812 507.333007812 170 496.666992188 170 486 c 0
 170 478.666992188 171.166992188 471.166992188 173.5 463.5 c 0
 175.833007812 455.833007812 180.5 447.666992188 187.5 439 c 0
 194.5 430.333007812 204.666992188 421.166992188 218 411.5 c 0
 231.333007812 401.833007812 249 391.666992188 271 381 c 0
 297 367.666992188 318.833007812 355 336.5 343 c 0
 354.166992188 331 368.666992188 318.5 380 305.5 c 0
 391.333007812 292.5 399.666992188 278.5 405 263.5 c 0
 410.333007812 248.5 413 232 413 214 c 0
 413 183.333007812 406.666992188 154.166992188 394 126.5 c 0
 381.333007812 98.8330078125 363.833007812 74.5 341.5 53.5 c 0
 319.166992188 32.5 293.166992188 15.8330078125 263.5 3.5 c 0
 233.833007812 -8.8330078125 202.333007812 -15 169 -15 c 0
 155 -15 139.333007812 -12.8330078125 122 -8.5 c 0
 104.666992188 -4.1669921875 88.5 1.3330078125 73.5 8 c 0
 58.5 14.6669921875 45.8330078125 22.3330078125 35.5 31 c 0
 25.1669921875 39.6669921875 20 48.6669921875 20 58 c 0
 20 62 22.1669921875 68.1669921875 26.5 76.5 c 0
 30.8330078125 84.8330078125 36 93.3330078125 42 102 c 0
 48 110.666992188 54.3330078125 118.166992188 61 124.5 c 0
 67.6669921875 130.833007812 73.3330078125 134 78 134 c 0
 80.6669921875 134 83.8330078125 131.833007812 87.5 127.5 c 0
 91.1669921875 123.166992188 95.3330078125 118 100 112 c 0
 104.666992188 106 110.166992188 99.3330078125 116.5 92 c 0
 122.833007812 84.6669921875 130.166992188 77.8330078125 138.5 71.5 c 0
 146.833007812 65.1669921875 156.333007812 59.8330078125 167 55.5 c 0
 177.666992188 51.1669921875 189.666992188 49 203 49 c 0
 221.666992188 49 238.833007812 52.1669921875 254.5 58.5 c 0
 270.166992188 64.8330078125 284 73.5 296 84.5 c 0
 308 95.5 317.333007812 108.5 324 123.5 c 0
 330.666992188 138.5 334 154.666992188 334 172 c 0
 334 186 332 198.833007812 328 210.5 c 0
 324 222.166992188 317 233.5 307 244.5 c 0
 297 255.5 283.666992188 266.333007812 267 277 c 0
 250.333007812 287.666992188 229.666992188 299 205 311 c 0
 183.666992188 321 166 331.666992188 152 343 c 0
 138 354.333007812 127 366 119 378 c 0
 111 390 105.333007812 402.333007812 102 415 c 0
 98.6669921875 427.666992188 97 440.333007812 97 453 c 0
 97 474.333007812 102.166992188 495.666992188 112.5 517 c 0
 122.833007812 538.333007812 137.5 557.333007812 156.5 574 c 0
 175.5 590.666992188 198.166992188 604.166992188 224.5 614.5 c 0
 250.833007812 624.833007812 280.333007812 630 313 630 c 0
 339 630 362.833007812 625.5 384.5 616.5 c 0
 406.166992188 607.5 424.666992188 597 440 585 c 0
EndSplineSet
EndChar

StartChar: T
Encoding: 55 84 55
Width: 527
VWidth: 500
Flags: HW
LayerCount: 2
Fore
SplineSet
346 0 m 0
 116 0 l 0
 120 26 l 0
 134 28.6669921875 145.666992188 31.6669921875 155 35 c 0
 164.333007812 38.3330078125 172.166992188 41.5 178.5 44.5 c 0
 184.833007812 47.5 189.333007812 50.5 192 53.5 c 0
 194.666992188 56.5 196 59 196 61 c 0
 267 566 l 0
 140 566 l 0
 135.333007812 566 131.166992188 564.833007812 127.5 562.5 c 0
 123.833007812 560.166992188 119.5 555.833007812 114.5 549.5 c 0
 109.5 543.166992188 103.833007812 534 97.5 522 c 0
 91.1669921875 510 83.6669921875 494.666992188 75 476 c 0
 52 486 l 0
 53.3330078125 494.666992188 55.3330078125 504.833007812 58 516.5 c 0
 60.6669921875 528.166992188 63.5 539.833007812 66.5 551.5 c 0
 69.5 563.166992188 72.6669921875 574.666992188 76 586 c 0
 79.3330078125 597.333007812 82.3330078125 607 85 615 c 0
 546 615 l 0
 558 602 l 0
 556.666992188 594 554.833007812 584.666992188 552.5 574 c 0
 550.166992188 563.333007812 547.666992188 552.333007812 545 541 c 0
 542.333007812 529.666992188 539.5 518.5 536.5 507.5 c 0
 533.5 496.5 530.666992188 486.666992188 528 478 c 0
 503 478 l 0
 502.333007812 494 501.5 507.666992188 500.5 519 c 0
 499.5 530.333007812 498 539.5 496 546.5 c 0
 494 553.5 491 558.5 487 561.5 c 0
 483 564.5 477.666992188 566 471 566 c 0
 351 566 l 0
 282 61 l 0
 282 59 283 56.6669921875 285 54 c 0
 287 51.3330078125 290.5 48.3330078125 295.5 45 c 0
 300.5 41.6669921875 307.5 38.3330078125 316.5 35 c 0
 325.5 31.6669921875 336.666992188 28.6669921875 350 26 c 0
 346 0 l 0
EndSplineSet
EndChar

StartChar: U
Encoding: 56 85 56
Width: 605
VWidth: 500
Flags: HW
LayerCount: 2
Fore
SplineSet
632 589 m 0
 611.333007812 584.333007812 595.666992188 579.333007812 585 574 c 0
 574.333007812 568.666992188 568.666992188 563.666992188 568 559 c 0
 524 250 l 0
 518 207.333007812 507.833007812 169.5 493.5 136.5 c 0
 479.166992188 103.5 461.333007812 75.8330078125 440 53.5 c 0
 418.666992188 31.1669921875 394.166992188 14.1669921875 366.5 2.5 c 0
 338.833007812 -9.1669921875 308.666992188 -15 276 -15 c 0
 249.333007812 -15 224.5 -11 201.5 -3 c 0
 178.5 5 158.666992188 16.8330078125 142 32.5 c 0
 125.333007812 48.1669921875 112.333007812 67.5 103 90.5 c 0
 93.6669921875 113.5 89 140 89 170 c 0
 89 187.333007812 90.3330078125 206 93 226 c 0
 141 559 l 0
 141.666992188 563 137.166992188 568 127.5 574 c 0
 117.833007812 580 102.333007812 585 81 589 c 0
 84 615 l 0
 296 615 l 0
 292 589 l 0
 271.333007812 584.333007812 255.166992188 579.333007812 243.5 574 c 0
 231.833007812 568.666992188 225.666992188 563.666992188 225 559 c 0
 182 249 l 0
 180.666992188 239.666992188 179.666992188 230.333007812 179 221 c 0
 178.333007812 211.666992188 178 202.666992188 178 194 c 0
 178 171.333007812 180.666992188 150.833007812 186 132.5 c 0
 191.333007812 114.166992188 199.333007812 98.6669921875 210 86 c 0
 220.666992188 73.3330078125 233.833007812 63.6669921875 249.5 57 c 0
 265.166992188 50.3330078125 283.666992188 47 305 47 c 0
 326.333007812 47 345.5 52 362.5 62 c 0
 379.5 72 394.5 85.1669921875 407.5 101.5 c 0
 420.5 117.833007812 431.166992188 137 439.5 159 c 0
 447.833007812 181 453.666992188 204.333007812 457 229 c 0
 502 559 l 0
 502.666992188 563 498.666992188 568 490 574 c 0
 481.333007812 580 466.333007812 585 445 589 c 0
 448 615 l 0
 636 615 l 0
 632 589 l 0
EndSplineSet
EndChar

StartChar: V
Encoding: 57 86 57
Width: 598
VWidth: 500
Flags: HW
LayerCount: 2
Fore
SplineSet
641 589 m 0
 620.333007812 585 603.833007812 581 591.5 577 c 0
 579.166992188 573 571 566.333007812 567 557 c 0
 324 33 l 0
 320.666992188 25.6669921875 315.666992188 19.3330078125 309 14 c 0
 302.333007812 8.6669921875 294.833007812 4 286.5 0 c 0
 278.166992188 -4 270.166992188 -7.1669921875 262.5 -9.5 c 0
 254.833007812 -11.8330078125 248.333007812 -13.6669921875 243 -15 c 0
 122 557 l 0
 120.666992188 565.666992188 115.666992188 572.5 107 577.5 c 0
 98.3330078125 582.5 84.3330078125 586.333007812 65 589 c 0
 69 615 l 0
 275 615 l 0
 272 589 l 0
 248.666992188 587.666992188 232.166992188 584.5 222.5 579.5 c 0
 212.833007812 574.5 209.333007812 567.333007812 212 558 c 0
 304 110 l 0
 510 557 l 0
 514.666992188 566.333007812 512.333007812 573.166992188 503 577.5 c 0
 493.666992188 581.833007812 477 585.666992188 453 589 c 0
 457 615 l 0
 645 615 l 0
 641 589 l 0
EndSplineSet
EndChar

StartChar: W
Encoding: 58 87 58
Width: 770
VWidth: 500
Flags: HW
LayerCount: 2
Fore
SplineSet
818 589 m 0
 796.666992188 584.333007812 779.833007812 580 767.5 576 c 0
 755.166992188 572 747.666992188 566.333007812 745 559 c 0
 569 29 l 0
 566.333007812 21.6669921875 562.166992188 15.5 556.5 10.5 c 0
 550.833007812 5.5 544.5 1.3330078125 537.5 -2 c 0
 530.5 -5.3330078125 523.666992188 -8.1669921875 517 -10.5 c 0
 510.333007812 -12.8330078125 504.666992188 -14.3330078125 500 -15 c 0
 416 451 l 0
 229 29 l 0
 225.666992188 21.6669921875 220.833007812 15.3330078125 214.5 10 c 0
 208.166992188 4.6669921875 201.333007812 0.3330078125 194 -3 c 0
 186.666992188 -6.3330078125 179.5 -9 172.5 -11 c 0
 165.5 -13 159.666992188 -14.3330078125 155 -15 c 0
 118 555 l 0
 117.333007812 563 112.833007812 569.666992188 104.5 575 c 0
 96.1669921875 580.333007812 81.6669921875 585 61 589 c 0
 64 615 l 0
 265 615 l 0
 262 589 l 0
 247.333007812 587.666992188 235.666992188 585.833007812 227 583.5 c 0
 218.333007812 581.166992188 211.666992188 578.5 207 575.5 c 0
 202.333007812 572.5 199.333007812 569.333007812 198 566 c 0
 196.666992188 562.666992188 196.333007812 559 197 555 c 0
 225 146 l 0
 431 615 l 0
 464 615 l 0
 554 146 l 0
 689 559 l 0
 690.333007812 563 689.666992188 566.5 687 569.5 c 0
 684.333007812 572.5 680.166992188 575.166992188 674.5 577.5 c 0
 668.833007812 579.833007812 661.833007812 581.833007812 653.5 583.5 c 0
 645.166992188 585.166992188 635.666992188 587 625 589 c 0
 629 615 l 0
 821 615 l 0
 818 589 l 0
EndSplineSet
EndChar

StartChar: X
Encoding: 59 88 59
Width: 578
VWidth: 500
Flags: HW
LayerCount: 2
Fore
SplineSet
535 0 m 0
 321 0 l 0
 325 26 l 0
 338.333007812 27.3330078125 349.166992188 29 357.5 31 c 0
 365.833007812 33 372 35.5 376 38.5 c 0
 380 41.5 382 45.3330078125 382 50 c 0
 382 54.6669921875 380.333007812 60.3330078125 377 67 c 0
 282 260 l 0
 144 67 l 0
 133.333007812 53 132 43.1669921875 140 37.5 c 0
 148 31.8330078125 165.666992188 28 193 26 c 0
 189 0 l 0
 -12 0 l 0
 -9 26 l 0
 11 27.3330078125 28.1669921875 31.1669921875 42.5 37.5 c 0
 56.8330078125 43.8330078125 69 53.6669921875 79 67 c 0
 254 316 l 0
 140 548 l 0
 136 555.333007812 132.166992188 561.333007812 128.5 566 c 0
 124.833007812 570.666992188 120.5 574.5 115.5 577.5 c 0
 110.5 580.5 104.666992188 582.833007812 98 584.5 c 0
 91.3330078125 586.166992188 83.3330078125 587.666992188 74 589 c 0
 77 615 l 0
 292 615 l 0
 289 589 l 0
 263 586.333007812 245.833007812 582.5 237.5 577.5 c 0
 229.166992188 572.5 228.333007812 562.666992188 235 548 c 0
 318 380 l 0
 437 548 l 0
 442.333007812 555.333007812 445.166992188 561.5 445.5 566.5 c 0
 445.833007812 571.5 444 575.5 440 578.5 c 0
 436 581.5 429.5 583.833007812 420.5 585.5 c 0
 411.5 587.166992188 400.666992188 588.333007812 388 589 c 0
 392 615 l 0
 594 615 l 0
 590 589 l 0
 579.333007812 587.666992188 569.666992188 586.166992188 561 584.5 c 0
 552.333007812 582.833007812 544.5 580.5 537.5 577.5 c 0
 530.5 574.5 524.166992188 570.666992188 518.5 566 c 0
 512.833007812 561.333007812 507.333007812 555.333007812 502 548 c 0
 345 327 l 0
 474 67 l 0
 477.333007812 60.3330078125 481 54.5 485 49.5 c 0
 489 44.5 493.5 40.5 498.5 37.5 c 0
 503.5 34.5 509.333007812 32.1669921875 516 30.5 c 0
 522.666992188 28.8330078125 530.333007812 27.3330078125 539 26 c 0
 535 0 l 0
EndSplineSet
EndChar

StartChar: Y
Encoding: 60 89 60
Width: 562
VWidth: 500
Flags: HW
LayerCount: 2
Fore
SplineSet
369 0 m 0
 139 0 l 0
 143 26 l 0
 157 28.6669921875 168.833007812 31.6669921875 178.5 35 c 0
 188.166992188 38.3330078125 196 41.5 202 44.5 c 0
 208 47.5 212.333007812 50.5 215 53.5 c 0
 217.666992188 56.5 219.333007812 59 220 61 c 0
 248 266 l 0
 242 290 234.166992188 315.666992188 224.5 343 c 0
 214.833007812 370.333007812 204.5 397.333007812 193.5 424 c 0
 182.5 450.666992188 171.166992188 475.666992188 159.5 499 c 0
 147.833007812 522.333007812 137 542.333007812 127 559 c 0
 124.333007812 563.666992188 121.166992188 567.333007812 117.5 570 c 0
 113.833007812 572.666992188 109.5 574.833007812 104.5 576.5 c 0
 99.5 578.166992188 93 579 85 579 c 0
 77 579 67.3330078125 578.666992188 56 578 c 0
 53 604 l 0
 61.6669921875 606 71.6669921875 608 83 610 c 0
 94.3330078125 612 105.333007812 614 116 616 c 0
 126.666992188 618 136.833007812 619.666992188 146.5 621 c 0
 156.166992188 622.333007812 164 623 170 623 c 0
 175.333007812 623 180.666992188 621.166992188 186 617.5 c 0
 191.333007812 613.833007812 196.333007812 608.666992188 201 602 c 0
 207.666992188 591.333007812 214.666992188 578.833007812 222 564.5 c 0
 229.333007812 550.166992188 236.666992188 535 244 519 c 0
 251.333007812 503 258.5 486.5 265.5 469.5 c 0
 272.5 452.5 279.166992188 435.833007812 285.5 419.5 c 0
 291.833007812 403.166992188 297.5 387.333007812 302.5 372 c 0
 307.5 356.666992188 311.333007812 343 314 331 c 0
 460 557 l 0
 465.333007812 566.333007812 464.5 573.166992188 457.5 577.5 c 0
 450.5 581.833007812 436 585.666992188 414 589 c 0
 417 615 l 0
 597 615 l 0
 594 589 l 0
 573.333007812 585 557.333007812 580.833007812 546 576.5 c 0
 534.666992188 572.166992188 526.333007812 565.666992188 521 557 c 0
 332 261 l 0
 305 61 l 0
 305 59 306 56.6669921875 308 54 c 0
 310 51.3330078125 313.5 48.3330078125 318.5 45 c 0
 323.5 41.6669921875 330.5 38.3330078125 339.5 35 c 0
 348.5 31.6669921875 359.666992188 28.6669921875 373 26 c 0
 369 0 l 0
EndSplineSet
EndChar

StartChar: Z
Encoding: 61 90 61
Width: 505
VWidth: 500
Flags: HW
LayerCount: 2
Fore
SplineSet
131 54 m 0
 357 54 l 0
 363.666992188 54 370 55.8330078125 376 59.5 c 0
 382 63.1669921875 388 69.3330078125 394 78 c 0
 400 86.6669921875 406.333007812 98 413 112 c 0
 419.666992188 126 427.333007812 143.666992188 436 165 c 0
 464 157 l 0
 462 146.333007812 459.833007812 133.833007812 457.5 119.5 c 0
 454 98 454 98 450.5 76.5 c 0
 448.166992188 62.1669921875 445.833007812 48.1669921875 443.5 34.5 c 0
 441.166992188 20.8330078125 439.333007812 9.3330078125 438 0 c 0
 23 0 l 0
 13 23 l 0
 395 564 l 0
 198 564 l 0
 193.333007812 564 187.666992188 561.833007812 181 557.5 c 0
 174.333007812 553.166992188 167.5 546.666992188 160.5 538 c 0
 153.5 529.333007812 146.5 518.5 139.5 505.5 c 0
 132.5 492.5 126.333007812 477 121 459 c 0
 91 466 l 0
 128 627 l 0
 136 624.333007812 143.333007812 622.166992188 150 620.5 c 0
 156.666992188 618.833007812 163.166992188 617.666992188 169.5 617 c 0
 175.833007812 616.333007812 182.5 615.833007812 189.5 615.5 c 0
 196.5 615.166992188 204 615 212 615 c 0
 500 615 l 0
 509 592 l 0
 131 54 l 0
EndSplineSet
EndChar

StartChar: bracketleft
Encoding: 62 91 62
Width: 308
VWidth: 500
Flags: HW
LayerCount: 2
Fore
SplineSet
357 767 m 0
 356.333007812 763 355.166992188 758.833007812 353.5 754.5 c 0
 351.833007812 750.166992188 350 745.833007812 348 741.5 c 0
 346 737.166992188 344 733.166992188 342 729.5 c 0
 340 725.833007812 338.333007812 723 337 721 c 0
 209 721 l 0
 94 -103 l 0
 219 -103 l 0
 234 -119 l 0
 233.333007812 -122.333007812 232.166992188 -126 230.5 -130 c 0
 228 -136 228 -136 225.5 -142 c 0
 223.833007812 -146 222 -150 220 -154 c 0
 218 -158 216 -161.333007812 214 -164 c 0
 9 -164 l 0
 142 781 l 0
 343 781 l 0
 357 767 l 0
EndSplineSet
EndChar

StartChar: backslash
Encoding: 63 92 63
Width: 406
VWidth: 500
Flags: HW
LayerCount: 2
Fore
SplineSet
322 -164 m 0
 318.666992188 -162.666992188 314 -161 308 -159 c 0
 302 -157 295.833007812 -154.666992188 289.5 -152 c 0
 283.166992188 -149.333007812 277.166992188 -146.666992188 271.5 -144 c 0
 265.833007812 -141.333007812 262 -139 260 -137 c 0
 70 769 l 0
 89 781 l 0
 93.6669921875 779.666992188 98.6669921875 778 104 776 c 0
 109.333007812 774 115 772 121 770 c 0
 127 768 132.666992188 765.666992188 138 763 c 0
 143.333007812 760.333007812 148 757.333007812 152 754 c 0
 340 -151 l 0
 322 -164 l 0
EndSplineSet
EndChar

StartChar: bracketright
Encoding: 64 93 64
Width: 300
VWidth: 500
Flags: HW
LayerCount: 2
Fore
SplineSet
175 -164 m 0
 -27 -164 l 0
 -42 -149 l 0
 -40.6669921875 -145 -39.1669921875 -140.833007812 -37.5 -136.5 c 0
 -35.8330078125 -132.166992188 -34 -127.833007812 -32 -123.5 c 0
 -30 -119.166992188 -28.1669921875 -115.166992188 -26.5 -111.5 c 0
 -24.8330078125 -107.833007812 -23.3330078125 -105 -22 -103 c 0
 106 -103 l 0
 222 721 l 0
 98 721 l 0
 83 735 l 0
 85 742.333007812 88 750.333007812 92 759 c 0
 96 767.666992188 99.6669921875 775 103 781 c 0
 307 781 l 0
 175 -164 l 0
EndSplineSet
EndChar

StartChar: asciicircum
Encoding: 65 94 65
Width: 458
VWidth: 500
Flags: HW
LayerCount: 2
Fore
SplineSet
417 310 m 0
 407.666992188 302.666992188 399 296.5 391 291.5 c 0
 383 286.5 373.666992188 281.333007812 363 276 c 0
 348 289 l 0
 270 642 l 0
 109 310 l 0
 105.666992188 306.666992188 101.5 303.333007812 96.5 300 c 0
 91.5 296.666992188 86.5 293.5 81.5 290.5 c 0
 76.5 287.5 71.6669921875 284.666992188 67 282 c 0
 62.3330078125 279.333007812 58.3330078125 277.333007812 55 276 c 0
 46 289 l 0
 252 714 l 0
 256 718 261 722 267 726 c 0
 276 732 276 732 285 738 c 0
 291 742 297 745.5 303 748.5 c 0
 309 751.5 314.333007812 754.333007812 319 757 c 0
 417 310 l 0
EndSplineSet
EndChar

StartChar: underscore
Encoding: 66 95 66
Width: 440
VWidth: 500
Flags: HW
LayerCount: 2
Fore
SplineSet
367 -78 m 0
 366.333007812 -81.3330078125 365 -85 363 -89 c 0
 361 -93 359 -97.1669921875 357 -101.5 c 0
 354 -108 354 -108 351 -114.5 c 0
 349 -118.833007812 347 -122.333007812 345 -125 c 0
 -13 -125 l 0
 -22 -111 l 0
 -20 -104.333007812 -16.8330078125 -96.5 -12.5 -87.5 c 0
 -8.1669921875 -78.5 -4 -70.6669921875 0 -64 c 0
 357 -64 l 0
 367 -78 l 0
EndSplineSet
EndChar

StartChar: grave
Encoding: 67 96 67
Width: 295
VWidth: 500
Flags: HW
LayerCount: 2
Fore
SplineSet
278 513 m 0
 271.333007812 509 265.5 506 260.5 504 c 0
 255.5 502 250 500.666992188 244 500 c 0
 116 685 l 0
 133 705 l 0
 137 705.666992188 142.5 706.5 149.5 707.5 c 0
 156.5 708.5 164 709.5 172 710.5 c 0
 180 711.5 187.666992188 712.333007812 195 713 c 0
 202.333007812 713.666992188 208 714 212 714 c 0
 278 513 l 0
EndSplineSet
EndChar

StartChar: a
Encoding: 68 97 68
Width: 460
VWidth: 500
Flags: HW
LayerCount: 2
Fore
SplineSet
453 40 m 0
 425 20.6669921875 401.166992188 5.8330078125 381.5 -4.5 c 0
 361.833007812 -14.8330078125 346.666992188 -20 336 -20 c 0
 330 -20 324.166992188 -18 318.5 -14 c 0
 312.833007812 -10 307.333007812 -2.8330078125 302 7.5 c 0
 296.666992188 17.8330078125 292.333007812 32.1669921875 289 50.5 c 0
 285.666992188 68.8330078125 284 92 284 120 c 0
 275.333007812 105.333007812 264.833007812 89.6669921875 252.5 73 c 0
 240.166992188 56.3330078125 227.166992188 41.1669921875 213.5 27.5 c 0
 199.833007812 13.8330078125 185.833007812 2.5 171.5 -6.5 c 0
 157.166992188 -15.5 143.333007812 -20 130 -20 c 0
 118.666992188 -20 106.833007812 -16.8330078125 94.5 -10.5 c 0
 82.1669921875 -4.1669921875 70.6669921875 5.6669921875 60 19 c 0
 49.3330078125 32.3330078125 40.5 49.6669921875 33.5 71 c 0
 26.5 92.3330078125 23 118.333007812 23 149 c 0
 23 175 26.1669921875 200.166992188 32.5 224.5 c 0
 38.8330078125 248.833007812 48.1669921875 272.333007812 60.5 295 c 0
 72.8330078125 317.666992188 87.6669921875 338.833007812 105 358.5 c 0
 122.333007812 378.166992188 142.666992188 395.666992188 166 411 c 0
 174.666992188 417 184.333007812 422.833007812 195 428.5 c 0
 205.666992188 434.166992188 216.833007812 439 228.5 443 c 0
 240.166992188 447 251.833007812 450.333007812 263.5 453 c 0
 275.166992188 455.666992188 286.666992188 457 298 457 c 0
 304.666992188 457 311.333007812 456.166992188 318 454.5 c 0
 324.666992188 452.833007812 331 450.5 337 447.5 c 0
 343 444.5 349 441.333007812 355 438 c 0
 361 434.666992188 366.666992188 431.333007812 372 428 c 0
 380.666992188 433.333007812 389.666992188 438.333007812 399 443 c 0
 408.333007812 447.666992188 417.333007812 452.333007812 426 457 c 0
 438 435 l 0
 432.666992188 430.333007812 428 426.166992188 424 422.5 c 0
 420 418.833007812 416.666992188 414.666992188 414 410 c 0
 411.333007812 405.333007812 409 399.666992188 407 393 c 0
 405 386.333007812 403 377.333007812 401 366 c 0
 396.333007812 342.666992188 391.833007812 319.166992188 387.5 295.5 c 0
 383.166992188 271.833007812 379.5 249.666992188 376.5 229 c 0
 373.5 208.333007812 371.166992188 190.166992188 369.5 174.5 c 0
 367.833007812 158.833007812 367 147.333007812 367 140 c 0
 367 107.333007812 369.166992188 83.8330078125 373.5 69.5 c 0
 377.833007812 55.1669921875 384 48 392 48 c 0
 398.666992188 48 406.166992188 49 414.5 51 c 0
 422.833007812 53 433.333007812 56.6669921875 446 62 c 0
 453 40 l 0
292 202 m 0
 294 216 296.166992188 230.833007812 298.5 246.5 c 0
 300.833007812 262.166992188 303.333007812 277.333007812 306 292 c 0
 308.666992188 306.666992188 311.166992188 320.333007812 313.5 333 c 0
 315.833007812 345.666992188 317.666992188 356.333007812 319 365 c 0
 314.333007812 369 309.166992188 373 303.5 377 c 0
 297.833007812 381 291.833007812 384.833007812 285.5 388.5 c 0
 279.166992188 392.166992188 272.833007812 395 266.5 397 c 0
 260.166992188 399 253.666992188 400 247 400 c 0
 232.333007812 400 218.666992188 396.333007812 206 389 c 0
 193.333007812 381.666992188 181.666992188 372.333007812 171 361 c 0
 160.333007812 349.666992188 151 336.5 143 321.5 c 0
 135 306.5 128.166992188 291 122.5 275 c 0
 116.833007812 259 112.5 243.166992188 109.5 227.5 c 0
 106.5 211.833007812 105 197.666992188 105 185 c 0
 105 165 106.666992188 147 110 131 c 0
 113.333007812 115 117.666992188 101.5 123 90.5 c 0
 128.333007812 79.5 134.833007812 71.1669921875 142.5 65.5 c 0
 150.166992188 59.8330078125 158.333007812 57 167 57 c 0
 173.666992188 57 182.166992188 61 192.5 69 c 0
 202.833007812 77 213.5 87.8330078125 224.5 101.5 c 0
 235.5 115.166992188 246.833007812 130.666992188 258.5 148 c 0
 270.166992188 165.333007812 281.333007812 183.333007812 292 202 c 0
EndSplineSet
EndChar

StartChar: b
Encoding: 69 98 69
Width: 477
VWidth: 500
Flags: HW
LayerCount: 2
Fore
SplineSet
445 298 m 0
 444.333007812 263.333007812 438.5 228.5 427.5 193.5 c 0
 416.5 158.5 399 124.666992188 375 92 c 0
 363.666992188 77.3330078125 351.166992188 63.1669921875 337.5 49.5 c 0
 323.833007812 35.8330078125 309 24 293 14 c 0
 277 4 259.666992188 -4.1669921875 241 -10.5 c 0
 222.333007812 -16.8330078125 202.666992188 -20 182 -20 c 0
 175.333007812 -20 167.666992188 -18.3330078125 159 -15 c 0
 150.333007812 -11.6669921875 141.333007812 -6.8330078125 132 -0.5 c 0
 122.666992188 5.8330078125 113.666992188 13.1669921875 105 21.5 c 0
 96.3330078125 29.8330078125 88.5 38.6669921875 81.5 48 c 0
 74.5 57.3330078125 69 67.3330078125 65 78 c 0
 61 88.6669921875 59 99.3330078125 59 110 c 0
 59 118.666992188 60 131.833007812 62 149.5 c 0
 64 167.166992188 66.6669921875 187.833007812 70 211.5 c 0
 73.3330078125 235.166992188 77 261 81 289 c 0
 85 317 89.3330078125 345.5 94 374.5 c 0
 98.6669921875 403.5 103.166992188 432.166992188 107.5 460.5 c 0
 111.833007812 488.833007812 115.666992188 515.166992188 119 539.5 c 0
 122.333007812 563.833007812 125 585.333007812 127 604 c 0
 129 622.666992188 130 637 130 647 c 0
 130 654.333007812 129.166992188 660.333007812 127.5 665 c 0
 125.833007812 669.666992188 123.666992188 673 121 675 c 0
 118.333007812 677 115.5 678.333007812 112.5 679 c 0
 109.5 679.666992188 106.666992188 680 104 680 c 0
 101.333007812 680 97.1669921875 679.333007812 91.5 678 c 0
 85.8330078125 676.666992188 80.6669921875 675 76 673 c 0
 70 671 63.3330078125 669 56 667 c 0
 49 691 l 0
 63 697.666992188 77.8330078125 704 93.5 710 c 0
 109.166992188 716 124 721.333007812 138 726 c 0
 152 730.666992188 164.5 734.5 175.5 737.5 c 0
 186.5 740.5 194.333007812 742 199 742 c 0
 208.333007812 742 214.833007812 739.166992188 218.5 733.5 c 0
 222.166992188 727.833007812 224 717.333007812 224 702 c 0
 224 692 223.166992188 679.166992188 221.5 663.5 c 0
 219.833007812 647.833007812 217.666992188 630 215 610 c 0
 212.333007812 590 209.333007812 568.166992188 206 544.5 c 0
 202.666992188 520.833007812 199 496.666992188 195 472 c 0
 191 447.333007812 187 422.166992188 183 396.5 c 0
 179 370.833007812 175 346 171 322 c 0
 187.666992188 348 204.5 369.666992188 221.5 387 c 0
 238.5 404.333007812 254.666992188 418.166992188 270 428.5 c 0
 285.333007812 438.833007812 299.666992188 446.166992188 313 450.5 c 0
 326.333007812 454.833007812 338 457 348 457 c 0
 362 457 374.833007812 453.666992188 386.5 447 c 0
 398.166992188 440.333007812 408.5 430.166992188 417.5 416.5 c 0
 426.5 402.833007812 433.333007812 386.166992188 438 366.5 c 0
 442.666992188 346.833007812 445 324 445 298 c 0
298 385 m 0
 292.666992188 385 284.666992188 381.5 274 374.5 c 0
 263.333007812 367.5 251.666992188 357.666992188 239 345 c 0
 226.333007812 332.333007812 213 316.833007812 199 298.5 c 0
 185 280.166992188 171.666992188 259.666992188 159 237 c 0
 155.666992188 213.666992188 153 192.833007812 151 174.5 c 0
 149 156.166992188 148 142 148 132 c 0
 148 123.333007812 150.666992188 114.333007812 156 105 c 0
 161.333007812 95.6669921875 168 87 176 79 c 0
 184 71 192.833007812 64.5 202.5 59.5 c 0
 212.166992188 54.5 222 52 232 52 c 0
 242.666992188 52 252.5 53.6669921875 261.5 57 c 0
 270.5 60.3330078125 278.833007812 65 286.5 71 c 0
 294.166992188 77 301.166992188 83.6669921875 307.5 91 c 0
 313.833007812 98.3330078125 319.333007812 105.666992188 324 113 c 0
 331.333007812 124.333007812 337.333007812 136.166992188 342 148.5 c 0
 346.666992188 160.833007812 350.333007812 173.333007812 353 186 c 0
 355.666992188 198.666992188 357.5 211.166992188 358.5 223.5 c 0
 359.5 235.833007812 360 247.666992188 360 259 c 0
 360 279.666992188 358.166992188 297.833007812 354.5 313.5 c 0
 350.833007812 329.166992188 346.166992188 342.333007812 340.5 353 c 0
 334.833007812 363.666992188 328.333007812 371.666992188 321 377 c 0
 313.666992188 382.333007812 306 385 298 385 c 0
EndSplineSet
EndChar

StartChar: c
Encoding: 70 99 70
Width: 400
VWidth: 500
Flags: HW
LayerCount: 2
Fore
SplineSet
412 399 m 0
 405.333007812 393.666992188 397.833007812 387.833007812 389.5 381.5 c 0
 381.166992188 375.166992188 373 369.166992188 365 363.5 c 0
 357 357.833007812 349.5 353.166992188 342.5 349.5 c 0
 335.5 345.833007812 329.666992188 344 325 344 c 0
 321 344 316.333007812 346.833007812 311 352.5 c 0
 305.666992188 358.166992188 299.5 364.5 292.5 371.5 c 0
 285.5 378.5 277.833007812 385 269.5 391 c 0
 261.166992188 397 252 400 242 400 c 0
 228 400 215.333007812 396.666992188 204 390 c 0
 192.666992188 383.333007812 182.166992188 374.333007812 172.5 363 c 0
 162.833007812 351.666992188 154.5 338.666992188 147.5 324 c 0
 140.5 309.333007812 134.5 293.833007812 129.5 277.5 c 0
 124.5 261.166992188 120.833007812 244.666992188 118.5 228 c 0
 116.166992188 211.333007812 115 195.333007812 115 180 c 0
 115 158.666992188 117.166992188 139.666992188 121.5 123 c 0
 125.833007812 106.333007812 131.833007812 92 139.5 80 c 0
 147.166992188 68 156.333007812 58.8330078125 167 52.5 c 0
 177.666992188 46.1669921875 189.333007812 43 202 43 c 0
 208.666992188 43 216.833007812 44.3330078125 226.5 47 c 0
 236.166992188 49.6669921875 247 53.8330078125 259 59.5 c 0
 271 65.1669921875 284.333007812 72.6669921875 299 82 c 0
 313.666992188 91.3330078125 330 103.333007812 348 118 c 0
 350.666992188 114.666992188 353.833007812 110.333007812 357.5 105 c 0
 361.166992188 99.6669921875 364 95.6669921875 366 93 c 0
 340.666992188 69.6669921875 317.666992188 50.6669921875 297 36 c 0
 276.333007812 21.3330078125 257.5 9.8330078125 240.5 1.5 c 0
 223.5 -6.8330078125 208 -12.5 194 -15.5 c 0
 180 -18.5 166.666992188 -20 154 -20 c 0
 142 -20 128.833007812 -17.1669921875 114.5 -11.5 c 0
 100.166992188 -5.8330078125 86.6669921875 3.8330078125 74 17.5 c 0
 61.3330078125 31.1669921875 50.6669921875 49.3330078125 42 72 c 0
 33.3330078125 94.6669921875 29 123 29 157 c 0
 29 179 31.1669921875 201.5 35.5 224.5 c 0
 39.8330078125 247.5 47.1669921875 270 57.5 292 c 0
 67.8330078125 314 81.3330078125 335 98 355 c 0
 114.666992188 375 135 393 159 409 c 0
 168.333007812 415 178.666992188 420.833007812 190 426.5 c 0
 201.333007812 432.166992188 213.166992188 437.333007812 225.5 442 c 0
 237.833007812 446.666992188 250.166992188 450.333007812 262.5 453 c 0
 274.833007812 455.666992188 286.666992188 457 298 457 c 0
 312 457 324.833007812 454.333007812 336.5 449 c 0
 348.166992188 443.666992188 358.5 437.666992188 367.5 431 c 0
 376.5 424.333007812 384.666992188 417.833007812 392 411.5 c 0
 399.333007812 405.166992188 406 401 412 399 c 0
EndSplineSet
EndChar

StartChar: d
Encoding: 71 100 71
Width: 480
VWidth: 500
Flags: HW
LayerCount: 2
Fore
SplineSet
461 39 m 0
 433 20.3330078125 409.166992188 5.8330078125 389.5 -4.5 c 0
 369.833007812 -14.8330078125 354 -20 342 -20 c 0
 336 -20 330.166992188 -17.6669921875 324.5 -13 c 0
 318.833007812 -8.3330078125 313.666992188 -0.3330078125 309 11 c 0
 304.333007812 22.3330078125 300.5 37.1669921875 297.5 55.5 c 0
 294.5 73.8330078125 292.666992188 96.6669921875 292 124 c 0
 280 104 267.5 85.1669921875 254.5 67.5 c 0
 241.5 49.8330078125 228.333007812 34.5 215 21.5 c 0
 201.666992188 8.5 188 -1.6669921875 174 -9 c 0
 160 -16.3330078125 146.666992188 -20 134 -20 c 0
 122 -20 109.666992188 -16.6669921875 97 -10 c 0
 84.3330078125 -3.3330078125 72.5 7 61.5 21 c 0
 50.5 35 41.3330078125 53 34 75 c 0
 26.6669921875 97 23 123.333007812 23 154 c 0
 23 180 26 205 32 229 c 0
 38 253 46.8330078125 276 58.5 298 c 0
 70.1669921875 320 84.5 340.5 101.5 359.5 c 0
 118.5 378.5 138.666992188 395.666992188 162 411 c 0
 171.333007812 417 181.333007812 422.666992188 192 428 c 0
 202.666992188 433.333007812 213.666992188 438.166992188 225 442.5 c 0
 236.333007812 446.833007812 247.833007812 450.333007812 259.5 453 c 0
 271.166992188 455.666992188 282.333007812 457 293 457 c 0
 299.666992188 457 306.666992188 455 314 451 c 0
 321.333007812 447 328.666992188 442.333007812 336 437 c 0
 339.333007812 459 342.666992188 480.666992188 346 502 c 0
 349.333007812 523.333007812 352.166992188 543.166992188 354.5 561.5 c 0
 356.833007812 579.833007812 358.666992188 596.333007812 360 611 c 0
 361.333007812 625.666992188 362 637.666992188 362 647 c 0
 362 654.333007812 361.5 660.333007812 360.5 665 c 0
 359.5 669.666992188 358 673 356 675 c 0
 354 677 351.666992188 678.333007812 349 679 c 0
 346.333007812 679.666992188 343.333007812 680 340 680 c 0
 337.333007812 680 333.166992188 679.333007812 327.5 678 c 0
 321.833007812 676.666992188 316.333007812 675 311 673 c 0
 304.333007812 671 297 669 289 667 c 0
 283 691 l 0
 297.666992188 697.666992188 312.5 704.166992188 327.5 710.5 c 0
 342.5 716.833007812 356.5 722.333007812 369.5 727 c 0
 382.5 731.666992188 394 735.333007812 404 738 c 0
 414 740.666992188 421.333007812 742 426 742 c 0
 436 742 443.5 739.166992188 448.5 733.5 c 0
 453.5 727.833007812 456 717.333007812 456 702 c 0
 456 689.333007812 454.833007812 673 452.5 653 c 0
 450.166992188 633 447.166992188 610.5 443.5 585.5 c 0
 439.833007812 560.5 435.5 533.833007812 430.5 505.5 c 0
 425.5 477.166992188 420.5 448.666992188 415.5 420 c 0
 410.5 391.333007812 405.666992188 363.166992188 401 335.5 c 0
 396.333007812 307.833007812 392.166992188 282 388.5 258 c 0
 384.833007812 234 381.833007812 212.5 379.5 193.5 c 0
 377.166992188 174.5 376 159.333007812 376 148 c 0
 376 113.333007812 378 88.1669921875 382 72.5 c 0
 386 56.8330078125 391.666992188 49 399 49 c 0
 407.666992188 49 416.333007812 50 425 52 c 0
 433.666992188 54 443.666992188 57.3330078125 455 62 c 0
 461 39 l 0
298 201 m 0
 300.666992188 221 304.166992188 243.833007812 308.5 269.5 c 0
 312.833007812 295.166992188 317.333007812 322.333007812 322 351 c 0
 316.666992188 357 311 362.833007812 305 368.5 c 0
 299 374.166992188 292.666992188 379.333007812 286 384 c 0
 279.333007812 388.666992188 272.333007812 392.5 265 395.5 c 0
 257.666992188 398.5 250.333007812 400 243 400 c 0
 229 400 215.666992188 396.5 203 389.5 c 0
 190.333007812 382.5 178.833007812 373.166992188 168.5 361.5 c 0
 158.166992188 349.833007812 149 336.5 141 321.5 c 0
 133 306.5 126.333007812 291 121 275 c 0
 115.666992188 259 111.666992188 243.166992188 109 227.5 c 0
 106.333007812 211.833007812 105 197.666992188 105 185 c 0
 105 165 106.833007812 147 110.5 131 c 0
 114.166992188 115 119.166992188 101.5 125.5 90.5 c 0
 131.833007812 79.5 139.166992188 71.1669921875 147.5 65.5 c 0
 155.833007812 59.8330078125 164.333007812 57 173 57 c 0
 180.333007812 57 188.666992188 60.3330078125 198 67 c 0
 207.333007812 73.6669921875 217.5 83.3330078125 228.5 96 c 0
 239.5 108.666992188 250.666992188 123.833007812 262 141.5 c 0
 273.333007812 159.166992188 285.333007812 179 298 201 c 0
EndSplineSet
EndChar

StartChar: e
Encoding: 72 101 72
Width: 402
VWidth: 500
Flags: HW
LayerCount: 2
Fore
SplineSet
192 375 m 0
 182 365 172.5 353.5 163.5 340.5 c 0
 154.5 327.5 146.333007812 313.666992188 139 299 c 0
 131.666992188 284.333007812 125.666992188 268.833007812 121 252.5 c 0
 116.333007812 236.166992188 113.666992188 219.333007812 113 202 c 0
 152.333007812 218 183.5 232.5 206.5 245.5 c 0
 229.5 258.5 246.833007812 270.666992188 258.5 282 c 0
 270.166992188 293.333007812 277.666992188 304.333007812 281 315 c 0
 284.333007812 325.666992188 286 336.666992188 286 348 c 0
 286 357.333007812 284.833007812 365.333007812 282.5 372 c 0
 280.166992188 378.666992188 277 384.166992188 273 388.5 c 0
 269 392.833007812 264.5 396 259.5 398 c 0
 254.5 400 249.666992188 401 245 401 c 0
 239.666992188 401 231.833007812 399 221.5 395 c 0
 211.166992188 391 201.333007812 384.333007812 192 375 c 0
378 371 m 0
 378 361.666992188 377 352.166992188 375 342.5 c 0
 373 332.833007812 368.833007812 322.5 362.5 311.5 c 0
 356.166992188 300.5 346.833007812 289 334.5 277 c 0
 322.166992188 265 306.333007812 252.666992188 287 240 c 0
 267.666992188 227.333007812 243.833007812 214.333007812 215.5 201 c 0
 187.166992188 187.666992188 153.333007812 173.666992188 114 159 c 0
 116 141.666992188 119.666992188 125.833007812 125 111.5 c 0
 130.333007812 97.1669921875 136.666992188 85 144 75 c 0
 151.333007812 65 159.166992188 57.1669921875 167.5 51.5 c 0
 175.833007812 45.8330078125 184.333007812 43 193 43 c 0
 199.666992188 43 208 44 218 46 c 0
 228 48 239.333007812 51.8330078125 252 57.5 c 0
 264.666992188 63.1669921875 279.166992188 71 295.5 81 c 0
 311.833007812 91 330 103.666992188 350 119 c 0
 352 118.333007812 353.833007812 116.833007812 355.5 114.5 c 0
 357.166992188 112.166992188 358.833007812 109.666992188 360.5 107 c 0
 362.166992188 104.333007812 363.333007812 102 364 100 c 0
 367 94 l 0
 340.333007812 70.6669921875 316.666992188 51.6669921875 296 37 c 0
 275.333007812 22.3330078125 256.5 10.8330078125 239.5 2.5 c 0
 222.5 -5.8330078125 207.166992188 -11.6669921875 193.5 -15 c 0
 179.833007812 -18.3330078125 166.666992188 -20 154 -20 c 0
 142 -20 128.833007812 -17 114.5 -11 c 0
 100.166992188 -5 86.6669921875 4.6669921875 74 18 c 0
 61.3330078125 31.3330078125 50.5 48.6669921875 41.5 70 c 0
 32.5 91.3330078125 28 117.333007812 28 148 c 0
 28 173.333007812 31.1669921875 198.166992188 37.5 222.5 c 0
 43.8330078125 246.833007812 52.8330078125 270 64.5 292 c 0
 76.1669921875 314 90.3330078125 334.833007812 107 354.5 c 0
 123.666992188 374.166992188 142.666992188 392.666992188 164 410 c 0
 171.333007812 416 179.833007812 421.833007812 189.5 427.5 c 0
 199.166992188 433.166992188 209.5 438.166992188 220.5 442.5 c 0
 231.5 446.833007812 242.666992188 450.333007812 254 453 c 0
 265.333007812 455.666992188 276.666992188 457 288 457 c 0
 303.333007812 457 316.666992188 454.5 328 449.5 c 0
 339.333007812 444.5 348.833007812 437.833007812 356.5 429.5 c 0
 364.166992188 421.166992188 369.666992188 412 373 402 c 0
 376.333007812 392 378 381.666992188 378 371 c 0
EndSplineSet
EndChar

StartChar: f
Encoding: 73 102 73
Width: 289
VWidth: 500
Flags: HW
LayerCount: 2
Fore
SplineSet
459 684 m 0
 452.333007812 679.333007812 444.5 673.666992188 435.5 667 c 0
 426.5 660.333007812 417.833007812 654 409.5 648 c 0
 401.166992188 642 393.333007812 636.833007812 386 632.5 c 0
 378.666992188 628.166992188 373 626 369 626 c 0
 364.333007812 626 359.666992188 629 355 635 c 0
 350.333007812 641 345.333007812 647.5 340 654.5 c 0
 334.666992188 661.5 328.666992188 667.833007812 322 673.5 c 0
 315.333007812 679.166992188 307.333007812 682 298 682 c 0
 286.666992188 682 276.666992188 678.666992188 268 672 c 0
 259.333007812 665.333007812 251.666992188 656.166992188 245 644.5 c 0
 238.333007812 632.833007812 232.666992188 619.5 228 604.5 c 0
 223.333007812 589.5 219.166992188 574 215.5 558 c 0
 211.833007812 542 209 525.833007812 207 509.5 c 0
 205 493.166992188 203.333007812 478.333007812 202 465 c 0
 199 442 l 0
 323 442 l 0
 333 427 l 0
 329.666992188 422.333007812 325.166992188 417.166992188 319.5 411.5 c 0
 313.833007812 405.833007812 307.833007812 400.333007812 301.5 395 c 0
 295.166992188 389.666992188 289 384.833007812 283 380.5 c 0
 277 376.166992188 272.333007812 373 269 371 c 0
 267.666992188 375.666992188 265.166992188 379.333007812 261.5 382 c 0
 257.833007812 384.666992188 253.166992188 386.833007812 247.5 388.5 c 0
 241.833007812 390.166992188 234.833007812 391.333007812 226.5 392 c 0
 218.166992188 392.666992188 208.333007812 393 197 393 c 0
 193 393 l 0
 159 94 l 0
 155 58 147.166992188 23.3330078125 135.5 -10 c 0
 123.833007812 -43.3330078125 109.5 -74.3330078125 92.5 -103 c 0
 75.5 -131.666992188 56.1669921875 -157.5 34.5 -180.5 c 0
 12.8330078125 -203.5 -10 -222.333007812 -34 -237 c 0
 -49 -203 l 0
 -33 -193.666992188 -18.3330078125 -179.333007812 -5 -160 c 0
 8.3330078125 -140.666992188 20 -118.666992188 30 -94 c 0
 40 -69.3330078125 48.1669921875 -42.8330078125 54.5 -14.5 c 0
 60.8330078125 13.8330078125 65.6669921875 41.3330078125 69 68 c 0
 106 393 l 0
 35 393 l 0
 26 410 l 0
 80 442 l 0
 112 442 l 0
 115.333007812 468 119.333007812 493 124 517 c 0
 128.666992188 541 135.333007812 563.833007812 144 585.5 c 0
 152.666992188 607.166992188 163.833007812 627.333007812 177.5 646 c 0
 191.166992188 664.666992188 208.333007812 681.666992188 229 697 c 0
 246.333007812 709.666992188 263.5 720.333007812 280.5 729 c 0
 297.5 737.666992188 316 742 336 742 c 0
 350.666992188 742 364.5 739.333007812 377.5 734 c 0
 390.5 728.666992188 402.166992188 722.666992188 412.5 716 c 0
 422.833007812 709.333007812 432 702.666992188 440 696 c 0
 448 689.333007812 454.333007812 685.333007812 459 684 c 0
EndSplineSet
EndChar

StartChar: g
Encoding: 74 103 74
Width: 453
VWidth: 500
Flags: HW
LayerCount: 2
Fore
SplineSet
440 435 m 0
 428.666992188 425.666992188 419.833007812 414.333007812 413.5 401 c 0
 407.166992188 387.666992188 402.666992188 369.333007812 400 346 c 0
 395.333007812 307.333007812 392 272.333007812 390 241 c 0
 388 209.666992188 386.166992188 180.333007812 384.5 153 c 0
 382.833007812 125.666992188 381 99.6669921875 379 75 c 0
 377 50.3330078125 374 25.3330078125 370 0 c 0
 364 -34 353 -65.6669921875 337 -95 c 0
 321 -124.333007812 302.166992188 -150.166992188 280.5 -172.5 c 0
 258.833007812 -194.833007812 235 -212.333007812 209 -225 c 0
 183 -237.666992188 157.333007812 -244 132 -244 c 0
 117.333007812 -244 102 -242 86 -238 c 0
 70 -234 55.1669921875 -229.166992188 41.5 -223.5 c 0
 27.8330078125 -217.833007812 16.6669921875 -211.666992188 8 -205 c 0
 -0.6669921875 -198.333007812 -5 -192.333007812 -5 -187 c 0
 -5 -181.666992188 -2.5 -175 2.5 -167 c 0
 7.5 -159 13.1669921875 -151.5 19.5 -144.5 c 0
 25.8330078125 -137.5 32 -131.5 38 -126.5 c 0
 44 -121.5 48 -119 50 -119 c 0
 54 -119 58.5 -122.166992188 63.5 -128.5 c 0
 68.5 -134.833007812 75.3330078125 -141.833007812 84 -149.5 c 0
 92.6669921875 -157.166992188 104 -164.166992188 118 -170.5 c 0
 132 -176.833007812 150 -180 172 -180 c 0
 200.666992188 -180 224.166992188 -167.333007812 242.5 -142 c 0
 260.833007812 -116.666992188 274.666992188 -77 284 -23 c 0
 286.666992188 -6.3330078125 288.833007812 9.3330078125 290.5 24 c 0
 292.166992188 38.6669921875 293.5 53 294.5 67 c 0
 295.5 81 296.333007812 94.6669921875 297 108 c 0
 298 128 298 128 299 148 c 0
 287.666992188 128 275.166992188 108 261.5 88 c 0
 247.833007812 68 233.5 50 218.5 34 c 0
 203.5 18 188.333007812 5 173 -5 c 0
 157.666992188 -15 143 -20 129 -20 c 0
 118.333007812 -20 106.666992188 -16.8330078125 94 -10.5 c 0
 81.3330078125 -4.1669921875 69.6669921875 5.6669921875 59 19 c 0
 48.3330078125 32.3330078125 39.3330078125 49.6669921875 32 71 c 0
 24.6669921875 92.3330078125 21 118.333007812 21 149 c 0
 21 175 24.1669921875 200.166992188 30.5 224.5 c 0
 36.8330078125 248.833007812 45.8330078125 272.166992188 57.5 294.5 c 0
 69.1669921875 316.833007812 84 337.833007812 102 357.5 c 0
 120 377.166992188 141.333007812 395 166 411 c 0
 175.333007812 417 185.166992188 422.833007812 195.5 428.5 c 0
 205.833007812 434.166992188 216.666992188 439 228 443 c 0
 239.333007812 447 250.833007812 450.333007812 262.5 453 c 0
 274.166992188 455.666992188 286 457 298 457 c 0
 304.666992188 457 311.333007812 456 318 454 c 0
 324.666992188 452 331.333007812 449.333007812 338 446 c 0
 344.666992188 442.666992188 351 439.166992188 357 435.5 c 0
 363 431.833007812 368.666992188 428 374 424 c 0
 382.666992188 430.666992188 391.5 436.833007812 400.5 442.5 c 0
 409.5 448.166992188 418.333007812 453 427 457 c 0
 440 435 l 0
169 57 m 0
 175 57 183 61.3330078125 193 70 c 0
 203 78.6669921875 214.333007812 90.6669921875 227 106 c 0
 239.666992188 121.333007812 252.666992188 139.833007812 266 161.5 c 0
 279.333007812 183.166992188 292 207 304 233 c 0
 305.333007812 247 306.833007812 261.833007812 308.5 277.5 c 0
 310.166992188 293.166992188 312.333007812 310 315 328 c 0
 315.666992188 333.333007812 316.833007812 338.666992188 318.5 344 c 0
 320.166992188 349.333007812 322 354.333007812 324 359 c 0
 318.666992188 363 313.166992188 367.5 307.5 372.5 c 0
 301.833007812 377.5 295.666992188 382 289 386 c 0
 282.333007812 390 275.5 393.333007812 268.5 396 c 0
 261.5 398.666992188 254.333007812 400 247 400 c 0
 232.333007812 400 218.666992188 396.5 206 389.5 c 0
 193.333007812 382.5 181.666992188 373.166992188 171 361.5 c 0
 160.333007812 349.833007812 150.833007812 336.5 142.5 321.5 c 0
 134.166992188 306.5 127.166992188 291 121.5 275 c 0
 115.833007812 259 111.5 243.166992188 108.5 227.5 c 0
 105.5 211.833007812 104 197.666992188 104 185 c 0
 104 165 105.666992188 147 109 131 c 0
 112.333007812 115 117 101.5 123 90.5 c 0
 129 79.5 136 71.1669921875 144 65.5 c 0
 152 59.8330078125 160.333007812 57 169 57 c 0
EndSplineSet
EndChar

StartChar: h
Encoding: 75 104 75
Width: 504
VWidth: 500
Flags: HW
LayerCount: 2
Fore
SplineSet
486 42 m 0
 456 24.6669921875 428.833007812 10 404.5 -2 c 0
 380.166992188 -14 360.666992188 -20 346 -20 c 0
 336.666992188 -20 328.333007812 -14.8330078125 321 -4.5 c 0
 313.666992188 5.8330078125 310 19.6669921875 310 37 c 0
 310 43 310.833007812 53.3330078125 312.5 68 c 0
 314.166992188 82.6669921875 316.666992188 99.6669921875 320 119 c 0
 323.333007812 138.333007812 326.666992188 159 330 181 c 0
 333.333007812 203 336.666992188 223.833007812 340 243.5 c 0
 343.333007812 263.166992188 346 281 348 297 c 0
 350 313 351 324.666992188 351 332 c 0
 351 344 350.5 353.833007812 349.5 361.5 c 0
 348.5 369.166992188 346.833007812 375.333007812 344.5 380 c 0
 342.166992188 384.666992188 339 388 335 390 c 0
 331 392 325.666992188 393 319 393 c 0
 315 393 308.166992188 390.833007812 298.5 386.5 c 0
 288.833007812 382.166992188 277.833007812 375.666992188 265.5 367 c 0
 253.166992188 358.333007812 240.333007812 347 227 333 c 0
 213.666992188 319 201 302.666992188 189 284 c 0
 180.333007812 268.666992188 173 249.333007812 167 226 c 0
 161 202.666992188 155.666992188 176.333007812 151 147 c 0
 148.333007812 129 146.166992188 113.5 144.5 100.5 c 0
 142.833007812 87.5 141.666992188 75.8330078125 141 65.5 c 0
 140.333007812 55.1669921875 140 46.3330078125 140 39 c 0
 140 28 140 28 140 19 c 0
 136 17 130.166992188 14 122.5 10 c 0
 114.833007812 6 106.833007812 2.3330078125 98.5 -1 c 0
 90.1669921875 -4.3330078125 82.1669921875 -7.8330078125 74.5 -11.5 c 0
 66.8330078125 -15.1669921875 61 -18 57 -20 c 0
 40 -4 l 0
 42.6669921875 13.3330078125 46.1669921875 35 50.5 61 c 0
 54.8330078125 87 59.5 115.166992188 64.5 145.5 c 0
 69.5 175.833007812 74.6669921875 207.833007812 80 241.5 c 0
 85.3330078125 275.166992188 90.6669921875 309 96 343 c 0
 101.333007812 377 106.166992188 410 110.5 442 c 0
 114.833007812 474 118.666992188 503.5 122 530.5 c 0
 125.333007812 557.5 128.166992188 581.166992188 130.5 601.5 c 0
 132.833007812 621.833007812 134 637 134 647 c 0
 134 654.333007812 133.333007812 660.333007812 132 665 c 0
 130.666992188 669.666992188 129.166992188 673 127.5 675 c 0
 125.833007812 677 123.833007812 678.333007812 121.5 679 c 0
 119.166992188 679.666992188 116.666992188 680 114 680 c 0
 110.666992188 680 106 679.333007812 100 678 c 0
 94 676.666992188 88 675 82 673 c 0
 74.6669921875 671 67 669 59 667 c 0
 52 691 l 0
 66 697 80.5 703 95.5 709 c 0
 110.5 715 124.833007812 720.5 138.5 725.5 c 0
 152.166992188 730.5 164.333007812 734.5 175 737.5 c 0
 185.666992188 740.5 193.333007812 742 198 742 c 0
 207.333007812 742 214.666992188 739.166992188 220 733.5 c 0
 225.333007812 727.833007812 228 717.333007812 228 702 c 0
 228 694 227 681.333007812 225 664 c 0
 223 646.666992188 220.5 626.333007812 217.5 603 c 0
 214.5 579.666992188 211.166992188 555 207.5 529 c 0
 203.833007812 503 200 477.833007812 196 453.5 c 0
 192 429.166992188 188.5 406.833007812 185.5 386.5 c 0
 182.5 366.166992188 180 350 178 338 c 0
 196.666992188 360 215.166992188 378.666992188 233.5 394 c 0
 251.833007812 409.333007812 269.666992188 421.666992188 287 431 c 0
 304.333007812 440.333007812 321 447 337 451 c 0
 353 455 368.333007812 457 383 457 c 0
 393 457 401.833007812 455.666992188 409.5 453 c 0
 417.166992188 450.333007812 423.5 445.666992188 428.5 439 c 0
 433.5 432.333007812 437 423.666992188 439 413 c 0
 441 402.333007812 442 389.333007812 442 374 c 0
 442 362.666992188 441 348.666992188 439 332 c 0
 437 315.333007812 434.5 297.5 431.5 278.5 c 0
 428.5 259.5 425.166992188 240 421.5 220 c 0
 417.833007812 200 414.5 181 411.5 163 c 0
 408.5 145 406 128.5 404 113.5 c 0
 402 98.5 401 86.3330078125 401 77 c 0
 401 65.6669921875 402.833007812 58 406.5 54 c 0
 410.166992188 50 414 48 418 48 c 0
 427.333007812 48 436.5 49.5 445.5 52.5 c 0
 454.5 55.5 465 59.3330078125 477 64 c 0
 486 42 l 0
EndSplineSet
EndChar

StartChar: i
Encoding: 76 105 76
Width: 256
VWidth: 500
Flags: HW
LayerCount: 2
Fore
SplineSet
248 616 m 0
 248 606.666992188 246.5 597.5 243.5 588.5 c 0
 240.5 579.5 236 571.166992188 230 563.5 c 0
 224 555.833007812 216.833007812 549.666992188 208.5 545 c 0
 200.166992188 540.333007812 190.666992188 538 180 538 c 0
 167.333007812 538 157.833007812 541.333007812 151.5 548 c 0
 145.166992188 554.666992188 142 563.333007812 142 574 c 0
 142 582.666992188 143.5 591.666992188 146.5 601 c 0
 149.5 610.333007812 154 618.833007812 160 626.5 c 0
 166 634.166992188 173.166992188 640.5 181.5 645.5 c 0
 189.833007812 650.5 199.333007812 653 210 653 c 0
 222.666992188 653 232.166992188 649.666992188 238.5 643 c 0
 244.833007812 636.333007812 248 627.333007812 248 616 c 0
236 42 m 0
 205.333007812 24 178.333007812 9.1669921875 155 -2.5 c 0
 131.666992188 -14.1669921875 112.333007812 -20 97 -20 c 0
 85.6669921875 -20 76.5 -14.8330078125 69.5 -4.5 c 0
 62.5 5.8330078125 59 19.6669921875 59 37 c 0
 59 47 60.1669921875 60.6669921875 62.5 78 c 0
 64.8330078125 95.3330078125 67.8330078125 114.666992188 71.5 136 c 0
 75.1669921875 157.333007812 79 179.666992188 83 203 c 0
 87 226.333007812 90.8330078125 248.333007812 94.5 269 c 0
 98.1669921875 289.666992188 101.166992188 308.166992188 103.5 324.5 c 0
 105.833007812 340.833007812 107 353 107 361 c 0
 107 368.333007812 106.5 374.333007812 105.5 379 c 0
 104.5 383.666992188 103.166992188 387 101.5 389 c 0
 99.8330078125 391 97.6669921875 392.333007812 95 393 c 0
 92.3330078125 393.666992188 89.6669921875 394 87 394 c 0
 84.3330078125 394 80.3330078125 393.5 75 392.5 c 0
 69.6669921875 391.5 64.3330078125 390 59 388 c 0
 53 386.666992188 46.3330078125 384.666992188 39 382 c 0
 32 405 l 0
 46 411 60.3330078125 417.166992188 75 423.5 c 0
 89.6669921875 429.833007812 103.5 435.5 116.5 440.5 c 0
 129.5 445.5 141.166992188 449.5 151.5 452.5 c 0
 161.833007812 455.5 169.666992188 457 175 457 c 0
 184.333007812 457 191 453.833007812 195 447.5 c 0
 199 441.166992188 201 430.666992188 201 416 c 0
 201 406.666992188 199.666992188 393 197 375 c 0
 194.333007812 357 191.333007812 337.166992188 188 315.5 c 0
 184.666992188 293.833007812 180.666992188 270.833007812 176 246.5 c 0
 171.333007812 222.166992188 167.333007812 199.166992188 164 177.5 c 0
 160.666992188 155.833007812 157.666992188 136 155 118 c 0
 152.333007812 100 151 86.3330078125 151 77 c 0
 151 67 152.166992188 59.6669921875 154.5 55 c 0
 156.833007812 50.3330078125 160.666992188 48 166 48 c 0
 176 48 185.5 49.3330078125 194.5 52 c 0
 203.5 54.6669921875 214.666992188 58.6669921875 228 64 c 0
 236 42 l 0
EndSplineSet
EndChar

StartChar: j
Encoding: 77 106 77
Width: 255
VWidth: 500
Flags: HW
LayerCount: 2
Fore
SplineSet
236 616 m 0
 236 606.666992188 234.5 597.5 231.5 588.5 c 0
 228.5 579.5 224 571.166992188 218 563.5 c 0
 212 555.833007812 204.666992188 549.666992188 196 545 c 0
 187.333007812 540.333007812 177.666992188 538 167 538 c 0
 154.333007812 538 144.833007812 541.333007812 138.5 548 c 0
 132.166992188 554.666992188 129 563.333007812 129 574 c 0
 129 582.666992188 130.666992188 591.666992188 134 601 c 0
 137.333007812 610.333007812 142 618.833007812 148 626.5 c 0
 154 634.166992188 161.166992188 640.5 169.5 645.5 c 0
 177.833007812 650.5 187.333007812 653 198 653 c 0
 210.666992188 653 220.166992188 649.666992188 226.5 643 c 0
 232.833007812 636.333007812 236 627.333007812 236 616 c 0
196 425 m 0
 196 421.666992188 195.5 415.5 194.5 406.5 c 0
 193.5 397.5 192.333007812 386.833007812 191 374.5 c 0
 189.666992188 362.166992188 188.333007812 349.166992188 187 335.5 c 0
 185.666992188 321.833007812 184.333007812 308.333007812 183 295 c 0
 181.666992188 281.666992188 180.333007812 269.5 179 258.5 c 0
 177.666992188 247.5 176.666992188 238.333007812 176 231 c 0
 173.333007812 208.333007812 170.333007812 180.333007812 167 147 c 0
 163.666992188 113.666992188 159 76.6669921875 153 36 c 0
 147 -0.6669921875 139 -31.8330078125 129 -57.5 c 0
 119 -83.1669921875 108 -105 96 -123 c 0
 84 -141 71.3330078125 -156.5 58 -169.5 c 0
 44.6669921875 -182.5 31.3330078125 -194.333007812 18 -205 c 0
 9.3330078125 -211.666992188 -0.3330078125 -217.5 -11 -222.5 c 0
 -21.6669921875 -227.5 -32.1669921875 -231.666992188 -42.5 -235 c 0
 -52.8330078125 -238.333007812 -62.6669921875 -240.666992188 -72 -242 c 0
 -81.3330078125 -243.333007812 -89.3330078125 -244 -96 -244 c 0
 -106.666992188 -244 -117.5 -242.5 -128.5 -239.5 c 0
 -139.5 -236.5 -149.5 -233 -158.5 -229 c 0
 -167.5 -225 -174.833007812 -220.5 -180.5 -215.5 c 0
 -186.166992188 -210.5 -189 -206.666992188 -189 -204 c 0
 -189 -200 -186.666992188 -194 -182 -186 c 0
 -177.333007812 -178 -171.833007812 -170.333007812 -165.5 -163 c 0
 -159.166992188 -155.666992188 -152.666992188 -149.333007812 -146 -144 c 0
 -139.333007812 -138.666992188 -134.333007812 -136 -131 -136 c 0
 -128.333007812 -136 -124.666992188 -138.166992188 -120 -142.5 c 0
 -115.333007812 -146.833007812 -109.5 -151.833007812 -102.5 -157.5 c 0
 -95.5 -163.166992188 -87.1669921875 -168.166992188 -77.5 -172.5 c 0
 -67.8330078125 -176.833007812 -56.3330078125 -179 -43 -179 c 0
 -29 -179 -16.8330078125 -175.166992188 -6.5 -167.5 c 0
 3.8330078125 -159.833007812 13.1669921875 -148.166992188 21.5 -132.5 c 0
 29.8330078125 -116.833007812 37 -97.6669921875 43 -75 c 0
 49 -52.3330078125 54.6669921875 -25.6669921875 60 5 c 0
 64 29 67.5 52 70.5 74 c 0
 73.5 96 76.1669921875 116.333007812 78.5 135 c 0
 80.8330078125 153.666992188 82.6669921875 170.166992188 84 184.5 c 0
 85.3330078125 198.833007812 86.3330078125 210.666992188 87 220 c 0
 87.6669921875 228 88.8330078125 238.833007812 90.5 252.5 c 0
 92.1669921875 266.166992188 93.6669921875 280.166992188 95 294.5 c 0
 96.3330078125 308.833007812 97.5 322.333007812 98.5 335 c 0
 99.5 347.666992188 100 356.333007812 100 361 c 0
 100 368.333007812 99.5 374.333007812 98.5 379 c 0
 97.5 383.666992188 96.1669921875 387 94.5 389 c 0
 92.8330078125 391 90.6669921875 392.333007812 88 393 c 0
 85.3330078125 393.666992188 82.6669921875 394 80 394 c 0
 77.3330078125 394 73.3330078125 393.5 68 392.5 c 0
 62.6669921875 391.5 57.3330078125 390 52 388 c 0
 46 386.666992188 39.3330078125 384.666992188 32 382 c 0
 24 405 l 0
 38 411 52.5 417.166992188 67.5 423.5 c 0
 82.5 429.833007812 96.6669921875 435.5 110 440.5 c 0
 123.333007812 445.5 135.166992188 449.5 145.5 452.5 c 0
 155.833007812 455.5 163 457 167 457 c 0
 176.333007812 457 183.5 455.166992188 188.5 451.5 c 0
 193.5 447.833007812 196 439 196 425 c 0
EndSplineSet
EndChar

StartChar: k
Encoding: 78 107 78
Width: 456
VWidth: 500
Flags: HW
LayerCount: 2
Fore
SplineSet
227 692 m 0
 227 679.333007812 226 663.5 224 644.5 c 0
 222 625.5 219.5 604.166992188 216.5 580.5 c 0
 213.5 556.833007812 209.833007812 531.5 205.5 504.5 c 0
 201.166992188 477.5 196.833007812 449.833007812 192.5 421.5 c 0
 188.166992188 393.166992188 183.5 364.5 178.5 335.5 c 0
 173.5 306.5 169 278.333007812 165 251 c 0
 263 325 l 0
 285.666992188 341.666992188 304 355.833007812 318 367.5 c 0
 332 379.166992188 340.833007812 388.5 344.5 395.5 c 0
 348.166992188 402.5 346.166992188 407.5 338.5 410.5 c 0
 330.833007812 413.5 316.666992188 414.666992188 296 414 c 0
 293 438 l 0
 314.333007812 440.666992188 335.333007812 444 356 448 c 0
 376.666992188 452 397.333007812 454 418 454 c 0
 426.666992188 454 433.5 453.5 438.5 452.5 c 0
 443.5 451.5 447.5 449.666992188 450.5 447 c 0
 453.5 444.333007812 455.5 441 456.5 437 c 0
 457.5 433 458 428.333007812 458 423 c 0
 458 418.333007812 454.666992188 411.666992188 448 403 c 0
 441.333007812 394.333007812 431.166992188 384 417.5 372 c 0
 403.833007812 360 387.333007812 347.166992188 368 333.5 c 0
 348.666992188 319.833007812 327 305.666992188 303 291 c 0
 245 255 l 0
 253.666992188 245 262 233 270 219 c 0
 278 205 286.166992188 190.333007812 294.5 175 c 0
 302.833007812 159.666992188 311 144.333007812 319 129 c 0
 327 113.666992188 334.666992188 100.166992188 342 88.5 c 0
 349.333007812 76.8330078125 356.5 67.1669921875 363.5 59.5 c 0
 370.5 51.8330078125 377.333007812 48 384 48 c 0
 391.333007812 48 399.666992188 48.6669921875 409 50 c 0
 418.333007812 51.3330078125 429.333007812 55.3330078125 442 62 c 0
 453 41 l 0
 431.666992188 23 411.166992188 8.5 391.5 -2.5 c 0
 371.833007812 -13.5 355.333007812 -19 342 -19 c 0
 330.666992188 -19 319.5 -13.6669921875 308.5 -3 c 0
 297.5 7.6669921875 287 21.1669921875 277 37.5 c 0
 267 53.8330078125 257 72.1669921875 247 92.5 c 0
 237 112.833007812 227.333007812 132.666992188 218 152 c 0
 208.666992188 171.333007812 199.333007812 189 190 205 c 0
 180.666992188 221 172 233 164 241 c 0
 160 214.333007812 156.333007812 189 153 165 c 0
 149.666992188 141 147 119.333007812 145 100 c 0
 143 80.6669921875 141.833007812 64 141.5 50 c 0
 141.166992188 36 142 26 144 20 c 0
 139.333007812 18 133 15 125 11 c 0
 117 7 108.666992188 3.1669921875 100 -0.5 c 0
 91.3330078125 -4.1669921875 83.1669921875 -7.8330078125 75.5 -11.5 c 0
 67.8330078125 -15.1669921875 62 -18 58 -20 c 0
 40 -4 l 0
 42 10 42 10 46.5 41.5 c 0
 49.5 62.5 53.3330078125 87.3330078125 58 116 c 0
 62.6669921875 144.666992188 67.8330078125 175.833007812 73.5 209.5 c 0
 79.1669921875 243.166992188 84.8330078125 277.5 90.5 312.5 c 0
 96.1669921875 347.5 101.5 382.333007812 106.5 417 c 0
 111.5 451.666992188 116 483.833007812 120 513.5 c 0
 124 543.166992188 127.333007812 569.5 130 592.5 c 0
 132.666992188 615.5 134 633.333007812 134 646 c 0
 134 654 133.5 660.333007812 132.5 665 c 0
 131.5 669.666992188 130 673.166992188 128 675.5 c 0
 126 677.833007812 123.5 679.166992188 120.5 679.5 c 0
 117.5 679.833007812 114 680 110 680 c 0
 107.333007812 680 103.166992188 679.333007812 97.5 678 c 0
 91.8330078125 676.666992188 86.3330078125 675 81 673 c 0
 74.3330078125 671 67 669 59 667 c 0
 51 691 l 0
 65 697 79.6669921875 703 95 709 c 0
 110.333007812 715 124.833007812 720.5 138.5 725.5 c 0
 152.166992188 730.5 164.333007812 734.5 175 737.5 c 0
 185.666992188 740.5 193.333007812 742 198 742 c 0
 202.666992188 742 206.833007812 741.5 210.5 740.5 c 0
 214.166992188 739.5 217.166992188 737.333007812 219.5 734 c 0
 221.833007812 730.666992188 223.666992188 725.666992188 225 719 c 0
 226.333007812 712.333007812 227 703.333007812 227 692 c 0
EndSplineSet
EndChar

StartChar: l
Encoding: 79 108 79
Width: 245
VWidth: 500
Flags: HW
LayerCount: 2
Fore
SplineSet
226 42 m 0
 194 22 166.666992188 6.6669921875 144 -4 c 0
 121.333007812 -14.6669921875 101 -20 83 -20 c 0
 73.6669921875 -20 65.5 -15.1669921875 58.5 -5.5 c 0
 51.5 4.1669921875 48 18.6669921875 48 38 c 0
 48 46 49.1669921875 59.6669921875 51.5 79 c 0
 53.8330078125 98.3330078125 56.8330078125 121.333007812 60.5 148 c 0
 64.1669921875 174.666992188 68.6669921875 203.833007812 74 235.5 c 0
 79.3330078125 267.166992188 84.5 299.666992188 89.5 333 c 0
 94.5 366.333007812 99.5 399.166992188 104.5 431.5 c 0
 109.5 463.833007812 113.833007812 494.166992188 117.5 522.5 c 0
 121.166992188 550.833007812 124.166992188 575.833007812 126.5 597.5 c 0
 128.833007812 619.166992188 130 635.666992188 130 647 c 0
 130 654.333007812 129.333007812 660.333007812 128 665 c 0
 126.666992188 669.666992188 124.833007812 673 122.5 675 c 0
 120.166992188 677 117.5 678.333007812 114.5 679 c 0
 111.5 679.666992188 108.333007812 680 105 680 c 0
 102.333007812 680 98.3330078125 679.333007812 93 678 c 0
 87.6669921875 676.666992188 82.3330078125 675 77 673 c 0
 70.3330078125 671 63.3330078125 669 56 667 c 0
 48 691 l 0
 62 697 76.5 703 91.5 709 c 0
 106.5 715 120.833007812 720.5 134.5 725.5 c 0
 148.166992188 730.5 160.5 734.5 171.5 737.5 c 0
 182.5 740.5 190.333007812 742 195 742 c 0
 204.333007812 742 211.666992188 739.166992188 217 733.5 c 0
 222.333007812 727.833007812 225 717.333007812 225 702 c 0
 225 689.333007812 223.666992188 672 221 650 c 0
 218.333007812 628 215.166992188 602.833007812 211.5 574.5 c 0
 207.833007812 546.166992188 203.333007812 515.833007812 198 483.5 c 0
 192.666992188 451.166992188 187.5 418.333007812 182.5 385 c 0
 177.5 351.666992188 172.5 319 167.5 287 c 0
 162.5 255 158 225.333007812 154 198 c 0
 150 170.666992188 146.833007812 146.5 144.5 125.5 c 0
 142.166992188 104.5 141 88.3330078125 141 77 c 0
 141 65.6669921875 142.5 58 145.5 54 c 0
 148.5 50 152.666992188 48 158 48 c 0
 165.333007812 48 173.833007812 49.3330078125 183.5 52 c 0
 193.166992188 54.6669921875 205.333007812 58.6669921875 220 64 c 0
 226 42 l 0
EndSplineSet
EndChar

StartChar: m
Encoding: 80 109 80
Width: 735
VWidth: 500
Flags: HW
LayerCount: 2
Fore
SplineSet
707 42 m 0
 677 24.6669921875 649.833007812 10 625.5 -2 c 0
 601.166992188 -14 581.333007812 -20 566 -20 c 0
 556.666992188 -20 548.5 -14.8330078125 541.5 -4.5 c 0
 534.5 5.8330078125 531 19.6669921875 531 37 c 0
 531 43 532.166992188 53 534.5 67 c 0
 536.833007812 81 539.5 97.6669921875 542.5 117 c 0
 545.5 136.333007812 549 156.666992188 553 178 c 0
 557 199.333007812 560.666992188 220.333007812 564 241 c 0
 567.333007812 261.666992188 570 280.833007812 572 298.5 c 0
 574 316.166992188 575 330.333007812 575 341 c 0
 575 359.666992188 573 373 569 381 c 0
 565 389 560.333007812 393 555 393 c 0
 549.666992188 393 542.833007812 391.166992188 534.5 387.5 c 0
 526.166992188 383.833007812 516.833007812 378 506.5 370 c 0
 496.166992188 362 485.333007812 351.666992188 474 339 c 0
 462.666992188 326.333007812 451 311 439 293 c 0
 432.333007812 282.333007812 426.666992188 271.833007812 422 261.5 c 0
 417.333007812 251.166992188 413.333007812 240 410 228 c 0
 406.666992188 216 403.833007812 203.166992188 401.5 189.5 c 0
 399.166992188 175.833007812 396.666992188 160.666992188 394 144 c 0
 389.333007812 114.666992188 386.5 89.8330078125 385.5 69.5 c 0
 384.5 49.1669921875 384.333007812 32.3330078125 385 19 c 0
 380.333007812 17 374 14 366 10 c 0
 358 6 349.833007812 2.3330078125 341.5 -1 c 0
 333.166992188 -4.3330078125 325.166992188 -7.8330078125 317.5 -11.5 c 0
 309.833007812 -15.1669921875 303.666992188 -18 299 -20 c 0
 283 -4 l 0
 290.333007812 29.3330078125 297.166992188 63.5 303.5 98.5 c 0
 309.833007812 133.5 315.5 166.5 320.5 197.5 c 0
 325.5 228.5 329.5 256 332.5 280 c 0
 335.5 304 337 322 337 334 c 0
 337 356 334.666992188 371.333007812 330 380 c 0
 325.333007812 388.666992188 319 393 311 393 c 0
 307.666992188 393 302 391.166992188 294 387.5 c 0
 286 383.833007812 276.833007812 378 266.5 370 c 0
 256.166992188 362 245.166992188 351.833007812 233.5 339.5 c 0
 221.833007812 327.166992188 210.333007812 312 199 294 c 0
 192.333007812 284 186.666992188 273.833007812 182 263.5 c 0
 177.333007812 253.166992188 173.333007812 241.833007812 170 229.5 c 0
 166.666992188 217.166992188 163.5 204 160.5 190 c 0
 157.5 176 154.666992188 160.666992188 152 144 c 0
 147.333007812 114.666992188 144.166992188 89.8330078125 142.5 69.5 c 0
 140.833007812 49.1669921875 140.333007812 32.3330078125 141 19 c 0
 135 16 135 16 123 10 c 0
 115 6 106.833007812 2.3330078125 98.5 -1 c 0
 90.1669921875 -4.3330078125 82.1669921875 -7.8330078125 74.5 -11.5 c 0
 66.8330078125 -15.1669921875 61.3330078125 -18 58 -20 c 0
 40 -4 l 0
 46.6669921875 30.6669921875 53.1669921875 66.5 59.5 103.5 c 0
 65.8330078125 140.5 71.6669921875 175.833007812 77 209.5 c 0
 82.3330078125 243.166992188 86.5 273.333007812 89.5 300 c 0
 92.5 326.666992188 94 347 94 361 c 0
 94 368.333007812 93.5 374.333007812 92.5 379 c 0
 91.5 383.666992188 90.1669921875 387.166992188 88.5 389.5 c 0
 86.8330078125 391.833007812 84.8330078125 393.333007812 82.5 394 c 0
 80.1669921875 394.666992188 77.6669921875 395 75 395 c 0
 71.6669921875 395 67.1669921875 394.333007812 61.5 393 c 0
 55.8330078125 391.666992188 50.3330078125 390.333007812 45 389 c 0
 38.3330078125 387 31.3330078125 384.666992188 24 382 c 0
 18 406 l 0
 32 412 46.3330078125 418 61 424 c 0
 75.6669921875 430 89.6669921875 435.5 103 440.5 c 0
 116.333007812 445.5 128.166992188 449.5 138.5 452.5 c 0
 148.833007812 455.5 156.333007812 457 161 457 c 0
 165.666992188 457 169.5 456.166992188 172.5 454.5 c 0
 175.5 452.833007812 177.833007812 450 179.5 446 c 0
 181.166992188 442 182.333007812 436.333007812 183 429 c 0
 183.666992188 421.666992188 184 412.333007812 184 401 c 0
 184 397.666992188 183.833007812 393.5 183.5 388.5 c 0
 183.166992188 383.5 182.666992188 378.166992188 182 372.5 c 0
 181.333007812 366.833007812 180.666992188 361 180 355 c 0
 179.333007812 349 179 343.333007812 179 338 c 0
 198.333007812 360 216.333007812 378.666992188 233 394 c 0
 249.666992188 409.333007812 265.5 421.666992188 280.5 431 c 0
 295.5 440.333007812 309.833007812 447 323.5 451 c 0
 337.166992188 455 350.666992188 457 364 457 c 0
 376 457 386 454.666992188 394 450 c 0
 402 445.333007812 408.5 439 413.5 431 c 0
 418.5 423 422 414 424 404 c 0
 426 394 427 383.666992188 427 373 c 0
 427 366 427 366 427 359.5 c 0
 427 355.166992188 426.666992188 349.666992188 426 343 c 0
 444.666992188 363.666992188 461.833007812 381.333007812 477.5 396 c 0
 493.166992188 410.666992188 508 422.5 522 431.5 c 0
 536 440.5 549.333007812 447 562 451 c 0
 574.666992188 455 587 457 599 457 c 0
 608.333007812 457 617 455.5 625 452.5 c 0
 633 449.5 639.833007812 444.5 645.5 437.5 c 0
 651.166992188 430.5 655.666992188 421.666992188 659 411 c 0
 662.333007812 400.333007812 664 387 664 371 c 0
 664 358.333007812 663 343.666992188 661 327 c 0
 659 310.333007812 656.333007812 292.666992188 653 274 c 0
 649.666992188 255.333007812 646.333007812 236.333007812 643 217 c 0
 639.666992188 197.666992188 636.333007812 179 633 161 c 0
 629.666992188 143 627 126.833007812 625 112.5 c 0
 623 98.1669921875 622 86.3330078125 622 77 c 0
 622 65.6669921875 623.666992188 58.1669921875 627 54.5 c 0
 630.333007812 50.8330078125 634.666992188 49 640 49 c 0
 649.333007812 49 658.5 50.3330078125 667.5 53 c 0
 676.5 55.6669921875 687.666992188 59.3330078125 701 64 c 0
 707 42 l 0
EndSplineSet
EndChar

StartChar: n
Encoding: 81 110 81
Width: 505
VWidth: 500
Flags: HW
LayerCount: 2
Fore
SplineSet
489 42 m 0
 474.333007812 33.3330078125 460 25.1669921875 446 17.5 c 0
 432 9.8330078125 419 3.1669921875 407 -2.5 c 0
 395 -8.1669921875 384.166992188 -12.5 374.5 -15.5 c 0
 364.833007812 -18.5 356.666992188 -20 350 -20 c 0
 338.666992188 -20 329.5 -14.8330078125 322.5 -4.5 c 0
 315.5 5.8330078125 312 19.6669921875 312 37 c 0
 312 43 313.166992188 53.3330078125 315.5 68 c 0
 317.833007812 82.6669921875 320.5 99.6669921875 323.5 119 c 0
 326.5 138.333007812 329.833007812 159 333.5 181 c 0
 337.166992188 203 340.666992188 223.833007812 344 243.5 c 0
 347.333007812 263.166992188 350 281 352 297 c 0
 354 313 355 324.666992188 355 332 c 0
 355 354.666992188 352.666992188 370.666992188 348 380 c 0
 343.333007812 389.333007812 334.666992188 394 322 394 c 0
 318 394 311.166992188 391.666992188 301.5 387 c 0
 291.833007812 382.333007812 280.833007812 375.5 268.5 366.5 c 0
 256.166992188 357.5 243.5 346.166992188 230.5 332.5 c 0
 217.5 318.833007812 205.333007812 302.333007812 194 283 c 0
 184.666992188 267.666992188 177.333007812 249 172 227 c 0
 166.666992188 205 161 178.333007812 155 147 c 0
 152.333007812 132.333007812 150.166992188 119.166992188 148.5 107.5 c 0
 146.833007812 95.8330078125 145.666992188 84.8330078125 145 74.5 c 0
 144.333007812 64.1669921875 144 54.5 144 45.5 c 0
 144 32 144 32 144 19 c 0
 138 16 138 16 126 10 c 0
 118 6 109.833007812 2.3330078125 101.5 -1 c 0
 93.1669921875 -4.3330078125 85.1669921875 -7.8330078125 77.5 -11.5 c 0
 69.8330078125 -15.1669921875 64.3330078125 -18 61 -20 c 0
 43 -4 l 0
 47.6669921875 18 52.1669921875 41.1669921875 56.5 65.5 c 0
 60.8330078125 89.8330078125 65 114.333007812 69 139 c 0
 73 163.666992188 76.6669921875 187.666992188 80 211 c 0
 83.3330078125 234.333007812 86.3330078125 256 89 276 c 0
 91.6669921875 296 93.6669921875 313.5 95 328.5 c 0
 96.3330078125 343.5 97 354.666992188 97 362 c 0
 97 369.333007812 96.6669921875 375.333007812 96 380 c 0
 95.3330078125 384.666992188 94.1669921875 388 92.5 390 c 0
 90.8330078125 392 88.8330078125 393.333007812 86.5 394 c 0
 84.1669921875 394.666992188 81.6669921875 395 79 395 c 0
 76.3330078125 395 72.1669921875 394.333007812 66.5 393 c 0
 60.8330078125 391.666992188 55 390.333007812 49 389 c 0
 42.3330078125 387 35.3330078125 384.666992188 28 382 c 0
 21 406 l 0
 35 412 49.5 418 64.5 424 c 0
 79.5 430 93.8330078125 435.5 107.5 440.5 c 0
 121.166992188 445.5 133.166992188 449.5 143.5 452.5 c 0
 153.833007812 455.5 161.333007812 457 166 457 c 0
 170.666992188 457 174.166992188 456.333007812 176.5 455 c 0
 178.833007812 453.666992188 180.833007812 451 182.5 447 c 0
 184.166992188 443 185.166992188 437.333007812 185.5 430 c 0
 185.833007812 422.666992188 186 413.333007812 186 402 c 0
 186 398.666992188 185.833007812 394.166992188 185.5 388.5 c 0
 185.166992188 382.833007812 184.833007812 377 184.5 371 c 0
 184.166992188 365 183.666992188 359 183 353 c 0
 182.333007812 347 182 342 182 338 c 0
 199.333007812 358.666992188 217 376.666992188 235 392 c 0
 253 407.333007812 270.5 419.666992188 287.5 429 c 0
 304.5 438.333007812 321 445.333007812 337 450 c 0
 353 454.666992188 368.333007812 457 383 457 c 0
 393 457 402 455.666992188 410 453 c 0
 418 450.333007812 424.666992188 445.833007812 430 439.5 c 0
 435.333007812 433.166992188 439.5 424.666992188 442.5 414 c 0
 445.5 403.333007812 447 390.333007812 447 375 c 0
 447 363.666992188 445.833007812 349.666992188 443.5 333 c 0
 441.166992188 316.333007812 438.5 298.5 435.5 279.5 c 0
 432.5 260.5 429 240.833007812 425 220.5 c 0
 421 200.166992188 417.5 181 414.5 163 c 0
 411.5 145 408.833007812 128.5 406.5 113.5 c 0
 404.166992188 98.5 403 86.3330078125 403 77 c 0
 403 65.6669921875 404.5 58 407.5 54 c 0
 410.5 50 415 48 421 48 c 0
 428.333007812 48 436.5 49.3330078125 445.5 52 c 0
 454.5 54.6669921875 465.666992188 58.6669921875 479 64 c 0
 489 42 l 0
EndSplineSet
EndChar

StartChar: o
Encoding: 82 111 82
Width: 429
VWidth: 500
Flags: HW
LayerCount: 2
Fore
SplineSet
406 273 m 0
 406 251 403.5 228.833007812 398.5 206.5 c 0
 393.5 184.166992188 386 162.5 376 141.5 c 0
 366 120.5 354 100.5 340 81.5 c 0
 326 62.5 310 45.6669921875 292 31 c 0
 283.333007812 24.3330078125 274.166992188 17.8330078125 264.5 11.5 c 0
 254.833007812 5.1669921875 244.833007812 -0.3330078125 234.5 -5 c 0
 224.166992188 -9.6669921875 213.833007812 -13.3330078125 203.5 -16 c 0
 193.166992188 -18.6669921875 183 -20 173 -20 c 0
 149 -20 127.833007812 -15.1669921875 109.5 -5.5 c 0
 91.1669921875 4.1669921875 75.5 17.3330078125 62.5 34 c 0
 49.5 50.6669921875 39.6669921875 70.5 33 93.5 c 0
 26.3330078125 116.5 23 141.333007812 23 168 c 0
 23 191.333007812 25.1669921875 213.833007812 29.5 235.5 c 0
 33.8330078125 257.166992188 40.5 278.166992188 49.5 298.5 c 0
 58.5 318.833007812 70.5 338.333007812 85.5 357 c 0
 100.5 375.666992188 118.666992188 393.333007812 140 410 c 0
 156.666992188 423.333007812 175.5 434.5 196.5 443.5 c 0
 217.5 452.5 238.333007812 457 259 457 c 0
 284.333007812 457 306.333007812 452.5 325 443.5 c 0
 343.666992188 434.5 359 421.833007812 371 405.5 c 0
 383 389.166992188 391.833007812 369.833007812 397.5 347.5 c 0
 403.166992188 325.166992188 406 300.333007812 406 273 c 0
321 242 m 0
 321 292 312.5 330.166992188 295.5 356.5 c 0
 278.5 382.833007812 255.333007812 396 226 396 c 0
 211.333007812 396 198.166992188 393 186.5 387 c 0
 174.833007812 381 164.666992188 373.166992188 156 363.5 c 0
 147.333007812 353.833007812 140 342.333007812 134 329 c 0
 128 315.666992188 123 301.666992188 119 287 c 0
 115 272.333007812 112.166992188 257.333007812 110.5 242 c 0
 108.833007812 226.666992188 108 212 108 198 c 0
 108 176 110.666992188 155.5 116 136.5 c 0
 121.333007812 117.5 128.333007812 100.666992188 137 86 c 0
 145.666992188 71.3330078125 156 59.8330078125 168 51.5 c 0
 180 43.1669921875 193 39 207 39 c 0
 221 39 233.5 42.1669921875 244.5 48.5 c 0
 255.5 54.8330078125 265.166992188 63.3330078125 273.5 74 c 0
 281.833007812 84.6669921875 289 96.8330078125 295 110.5 c 0
 301 124.166992188 306 138.5 310 153.5 c 0
 314 168.5 316.833007812 183.666992188 318.5 199 c 0
 320.166992188 214.333007812 321 228.666992188 321 242 c 0
EndSplineSet
EndChar

StartChar: p
Encoding: 83 112 83
Width: 480
VWidth: 500
Flags: HW
LayerCount: 2
Fore
SplineSet
182 425 m 0
 182 416.333007812 181 404.333007812 179 389 c 0
 177 373.666992188 174.333007812 353.666992188 171 329 c 0
 191 357 209.5 379.5 226.5 396.5 c 0
 243.5 413.5 259.333007812 426.5 274 435.5 c 0
 288.666992188 444.5 302 450.333007812 314 453 c 0
 326 455.666992188 337 457 347 457 c 0
 360.333007812 457 372.833007812 453.833007812 384.5 447.5 c 0
 396.166992188 441.166992188 406.5 431.5 415.5 418.5 c 0
 424.5 405.5 431.5 389.666992188 436.5 371 c 0
 441.5 352.333007812 444 330.666992188 444 306 c 0
 444 271.333007812 439 235 429 197 c 0
 419 159 404 122.666992188 384 88 c 0
 376.666992188 75.3330078125 368.166992188 62.6669921875 358.5 50 c 0
 348.833007812 37.3330078125 338.333007812 25.8330078125 327 15.5 c 0
 315.666992188 5.1669921875 303.666992188 -3.3330078125 291 -10 c 0
 278.333007812 -16.6669921875 265 -20 251 -20 c 0
 241 -20 230.833007812 -17 220.5 -11 c 0
 210.166992188 -5 199.833007812 3 189.5 13 c 0
 179.166992188 23 169 34.3330078125 159 47 c 0
 149 59.6669921875 139.666992188 73 131 87 c 0
 117 3 l 0
 111.666992188 -30.3330078125 107.333007812 -59.5 104 -84.5 c 0
 100.666992188 -109.5 98.3330078125 -130.666992188 97 -148 c 0
 95.6669921875 -165.333007812 95.1669921875 -179.333007812 95.5 -190 c 0
 95.8330078125 -200.666992188 96.6669921875 -208 98 -212 c 0
 93.3330078125 -213.333007812 87 -215.5 79 -218.5 c 0
 71 -221.5 62.8330078125 -224.5 54.5 -227.5 c 0
 46.1669921875 -230.5 38 -233.5 30 -236.5 c 0
 22 -239.5 16 -242 12 -244 c 0
 -5 -229 l 0
 -3.6669921875 -219.666992188 -1.5 -205.166992188 1.5 -185.5 c 0
 4.5 -165.833007812 8.5 -143 13.5 -117 c 0
 18.5 -91 23.6669921875 -62.5 29 -31.5 c 0
 34.3330078125 -0.5 39.8330078125 31 45.5 63 c 0
 51.1669921875 95 56.6669921875 126.666992188 62 158 c 0
 67.3330078125 189.333007812 72 218.333007812 76 245 c 0
 80 271.666992188 83.1669921875 295.166992188 85.5 315.5 c 0
 87.8330078125 335.833007812 89 351 89 361 c 0
 89 368.333007812 88.3330078125 374.333007812 87 379 c 0
 85.6669921875 383.666992188 84 387 82 389 c 0
 80 391 77.6669921875 392.333007812 75 393 c 0
 72.3330078125 393.666992188 69.3330078125 394 66 394 c 0
 63.3330078125 394 59.3330078125 393.5 54 392.5 c 0
 48.6669921875 391.5 43.3330078125 390 38 388 c 0
 32 386.666992188 25.6669921875 384.666992188 19 382 c 0
 11 405 l 0
 25 411.666992188 39.6669921875 418.166992188 55 424.5 c 0
 70.3330078125 430.833007812 84.8330078125 436.333007812 98.5 441 c 0
 112.166992188 445.666992188 124.333007812 449.5 135 452.5 c 0
 145.666992188 455.5 153.333007812 457 158 457 c 0
 165.333007812 457 171.166992188 454.833007812 175.5 450.5 c 0
 179.833007812 446.166992188 182 437.666992188 182 425 c 0
300 386 m 0
 292.666992188 386 283 382.333007812 271 375 c 0
 259 367.666992188 246.166992188 357.5 232.5 344.5 c 0
 218.833007812 331.5 205.333007812 315.666992188 192 297 c 0
 178.666992188 278.333007812 166.666992188 257.333007812 156 234 c 0
 154 221.333007812 151.833007812 208 149.5 194 c 0
 146 173 146 173 142 149 c 0
 146.666992188 139.666992188 153.333007812 129.833007812 162 119.5 c 0
 170.666992188 109.166992188 180.5 99.6669921875 191.5 91 c 0
 202.5 82.3330078125 214 75.1669921875 226 69.5 c 0
 238 63.8330078125 249.666992188 61 261 61 c 0
 277.666992188 61 292.166992188 65.3330078125 304.5 74 c 0
 316.833007812 82.6669921875 326.333007812 95.3330078125 333 112 c 0
 338.333007812 123.333007812 342.833007812 135.333007812 346.5 148 c 0
 350.166992188 160.666992188 352.666992188 173.5 354 186.5 c 0
 355.333007812 199.5 356.333007812 212.166992188 357 224.5 c 0
 357.666992188 236.833007812 358 248.333007812 358 259 c 0
 358 279.666992188 356.333007812 298 353 314 c 0
 349.666992188 330 345.333007812 343.333007812 340 354 c 0
 334.666992188 364.666992188 328.5 372.666992188 321.5 378 c 0
 314.5 383.333007812 307.333007812 386 300 386 c 0
EndSplineSet
EndChar

StartChar: q
Encoding: 84 113 84
Width: 455
VWidth: 500
Flags: HW
LayerCount: 2
Fore
SplineSet
174 57 m 0
 181.333007812 57 189.833007812 61 199.5 69 c 0
 209.166992188 77 219.666992188 87.6669921875 231 101 c 0
 242.333007812 114.333007812 254 129.833007812 266 147.5 c 0
 278 165.166992188 290 184 302 204 c 0
 306.666992188 232 311.166992188 259.333007812 315.5 286 c 0
 319.833007812 312.666992188 324.333007812 338.666992188 329 364 c 0
 323.666992188 368 318 372.166992188 312 376.5 c 0
 306 380.833007812 299.833007812 384.833007812 293.5 388.5 c 0
 287.166992188 392.166992188 280.5 395 273.5 397 c 0
 266.5 399 259 400 251 400 c 0
 237 400 223.5 396.5 210.5 389.5 c 0
 197.5 382.5 185.333007812 373.166992188 174 361.5 c 0
 162.666992188 349.833007812 152.5 336.5 143.5 321.5 c 0
 134.5 306.5 126.833007812 291 120.5 275 c 0
 114.166992188 259 109.333007812 243.166992188 106 227.5 c 0
 102.666992188 211.833007812 101 197.666992188 101 185 c 0
 101 165 103.166992188 147 107.5 131 c 0
 111.833007812 115 117.5 101.5 124.5 90.5 c 0
 131.5 79.5 139.333007812 71.1669921875 148 65.5 c 0
 156.666992188 59.8330078125 165.333007812 57 174 57 c 0
446 435 m 0
 440.666992188 430.333007812 436.166992188 426.166992188 432.5 422.5 c 0
 428.833007812 418.833007812 425.5 414.666992188 422.5 410 c 0
 419.5 405.333007812 417 399.666992188 415 393 c 0
 413 386.333007812 411 377.333007812 409 366 c 0
 387 236 l 0
 379.666992188 192.666992188 372.833007812 150.833007812 366.5 110.5 c 0
 360.166992188 70.1669921875 354.5 32 349.5 -4 c 0
 344.5 -40 340.5 -72.3330078125 337.5 -101 c 0
 334.5 -129.666992188 333 -153.666992188 333 -173 c 0
 333 -192.333007812 334.666992188 -205.333007812 338 -212 c 0
 333.333007812 -213.333007812 327.166992188 -215.5 319.5 -218.5 c 0
 311.833007812 -221.5 303.666992188 -224.5 295 -227.5 c 0
 286.333007812 -230.5 278 -233.5 270 -236.5 c 0
 262 -239.5 256 -242 252 -244 c 0
 233 -229 l 0
 234.333007812 -217 236.833007812 -199.833007812 240.5 -177.5 c 0
 244.166992188 -155.166992188 248.333007812 -129 253 -99 c 0
 257.666992188 -69 263 -36 269 0 c 0
 275 36 281 73 287 111 c 0
 274.333007812 92.3330078125 261.5 75.1669921875 248.5 59.5 c 0
 235.5 43.8330078125 222.5 30 209.5 18 c 0
 196.5 6 183.666992188 -3.3330078125 171 -10 c 0
 158.333007812 -16.6669921875 146 -20 134 -20 c 0
 122.666992188 -20 110.666992188 -16.8330078125 98 -10.5 c 0
 85.3330078125 -4.1669921875 73.3330078125 5.6669921875 62 19 c 0
 50.6669921875 32.3330078125 41.3330078125 49.6669921875 34 71 c 0
 26.6669921875 92.3330078125 23 118.333007812 23 149 c 0
 23 175 26.3330078125 200.333007812 33 225 c 0
 39.6669921875 249.666992188 49.5 273.333007812 62.5 296 c 0
 75.5 318.666992188 91 339.833007812 109 359.5 c 0
 127 379.166992188 147.333007812 396.333007812 170 411 c 0
 179.333007812 417 189.5 422.833007812 200.5 428.5 c 0
 211.5 434.166992188 222.666992188 439 234 443 c 0
 245.333007812 447 256.833007812 450.333007812 268.5 453 c 0
 280.166992188 455.666992188 291 457 301 457 c 0
 315 457 328.666992188 453.666992188 342 447 c 0
 355.333007812 440.333007812 367.333007812 433.666992188 378 427 c 0
 386.666992188 432.333007812 395.666992188 437.5 405 442.5 c 0
 414.333007812 447.5 423.666992188 452.333007812 433 457 c 0
 446 435 l 0
EndSplineSet
EndChar

StartChar: r
Encoding: 85 114 85
Width: 372
VWidth: 500
Flags: HW
LayerCount: 2
Fore
SplineSet
395 415 m 0
 391 409.666992188 386.333007812 402.666992188 381 394 c 0
 373 381 373 381 365 368 c 0
 359.666992188 359.333007812 354.5 352 349.5 346 c 0
 344.5 340 340.333007812 337 337 337 c 0
 331 337 325.666992188 338.833007812 321 342.5 c 0
 316.333007812 346.166992188 311.833007812 350.166992188 307.5 354.5 c 0
 303.166992188 358.833007812 299 362.833007812 295 366.5 c 0
 291 370.166992188 286.333007812 372 281 372 c 0
 272.333007812 372 262.666992188 366.833007812 252 356.5 c 0
 241.333007812 346.166992188 230.5 332.333007812 219.5 315 c 0
 208.5 297.666992188 198 277.833007812 188 255.5 c 0
 178 233.166992188 169.666992188 210.333007812 163 187 c 0
 159.666992188 174.333007812 156.5 161 153.5 147 c 0
 150.5 133 148 118.666992188 146 104 c 0
 144 89.3330078125 142.5 74.6669921875 141.5 60 c 0
 140.5 45.3330078125 140.333007812 31.6669921875 141 19 c 0
 136.333007812 17 130.166992188 14 122.5 10 c 0
 114.833007812 6 106.833007812 2.3330078125 98.5 -1 c 0
 90.1669921875 -4.3330078125 82.1669921875 -7.8330078125 74.5 -11.5 c 0
 66.8330078125 -15.1669921875 61.3330078125 -18 58 -20 c 0
 40 -4 l 0
 44.6669921875 19.3330078125 49.3330078125 43.1669921875 54 67.5 c 0
 58.6669921875 91.8330078125 63 115.833007812 67 139.5 c 0
 71 163.166992188 74.6669921875 186.166992188 78 208.5 c 0
 81.3330078125 230.833007812 84.1669921875 251.666992188 86.5 271 c 0
 88.8330078125 290.333007812 90.6669921875 307.833007812 92 323.5 c 0
 93.3330078125 339.166992188 94 351.666992188 94 361 c 0
 94 368.333007812 93.5 374.333007812 92.5 379 c 0
 91.5 383.666992188 90 387 88 389 c 0
 86 391 83.8330078125 392.333007812 81.5 393 c 0
 79.1669921875 393.666992188 76.6669921875 394 74 394 c 0
 70.6669921875 394 66.3330078125 393.5 61 392.5 c 0
 55.6669921875 391.5 50.3330078125 390 45 388 c 0
 39 386.666992188 32.3330078125 384.666992188 25 382 c 0
 18 405 l 0
 32 411 46.3330078125 417.166992188 61 423.5 c 0
 75.6669921875 429.833007812 89.8330078125 435.5 103.5 440.5 c 0
 117.166992188 445.5 129.333007812 449.5 140 452.5 c 0
 150.666992188 455.5 158.333007812 457 163 457 c 0
 167.666992188 457 171.166992188 456.333007812 173.5 455 c 0
 175.833007812 453.666992188 177.833007812 450.833007812 179.5 446.5 c 0
 181.166992188 442.166992188 182.166992188 436.5 182.5 429.5 c 0
 182.833007812 422.5 183 413.666992188 183 403 c 0
 183 399.666992188 182.5 394.166992188 181.5 386.5 c 0
 180.5 378.833007812 179.5 370.5 178.5 361.5 c 0
 177.5 352.5 176.333007812 343.5 175 334.5 c 0
 173.666992188 325.5 172.333007812 318 171 312 c 0
 186.333007812 342 201 366.333007812 215 385 c 0
 229 403.666992188 242.166992188 418.333007812 254.5 429 c 0
 266.833007812 439.666992188 278.666992188 447 290 451 c 0
 301.333007812 455 312.333007812 457 323 457 c 0
 329 457 334.666992188 455.333007812 340 452 c 0
 345.333007812 448.666992188 350.833007812 444.833007812 356.5 440.5 c 0
 362.166992188 436.166992188 368.166992188 431.5 374.5 426.5 c 0
 380.833007812 421.5 387.666992188 417.666992188 395 415 c 0
EndSplineSet
EndChar

StartChar: s
Encoding: 86 115 86
Width: 359
VWidth: 500
Flags: HW
LayerCount: 2
Fore
SplineSet
355 412 m 0
 349 404.666992188 342.833007812 397.5 336.5 390.5 c 0
 330.166992188 383.5 324 377.333007812 318 372 c 0
 312 366.666992188 306.5 362.333007812 301.5 359 c 0
 296.5 355.666992188 292.666992188 354 290 354 c 0
 285.333007812 354 280.5 357 275.5 363 c 0
 270.5 369 264.666992188 375.5 258 382.5 c 0
 251.333007812 389.5 243.666992188 396 235 402 c 0
 226.333007812 408 216.333007812 411 205 411 c 0
 195.666992188 411 187 409.5 179 406.5 c 0
 171 403.5 163.833007812 399.166992188 157.5 393.5 c 0
 151.166992188 387.833007812 146.166992188 381.166992188 142.5 373.5 c 0
 138.833007812 365.833007812 137 357.333007812 137 348 c 0
 137 335.333007812 142.833007812 322.833007812 154.5 310.5 c 0
 166.166992188 298.166992188 185.333007812 285.666992188 212 273 c 0
 225.333007812 266.333007812 238.5 259 251.5 251 c 0
 264.5 243 276.333007812 233.833007812 287 223.5 c 0
 297.666992188 213.166992188 306.166992188 201.166992188 312.5 187.5 c 0
 318.833007812 173.833007812 322 158.333007812 322 141 c 0
 322 118.333007812 316 97.1669921875 304 77.5 c 0
 292 57.8330078125 276.5 40.8330078125 257.5 26.5 c 0
 238.5 12.1669921875 217.5 0.8330078125 194.5 -7.5 c 0
 171.5 -15.8330078125 149.333007812 -20 128 -20 c 0
 110.666992188 -20 94.1669921875 -17.6669921875 78.5 -13 c 0
 62.8330078125 -8.3330078125 48.8330078125 -2.5 36.5 4.5 c 0
 24.1669921875 11.5 14.3330078125 19.1669921875 7 27.5 c 0
 -0.3330078125 35.8330078125 -4 43.3330078125 -4 50 c 0
 -4 54 -2 60 2 68 c 0
 6 76 10.8330078125 84 16.5 92 c 0
 22.1669921875 100 27.8330078125 106.833007812 33.5 112.5 c 0
 39.1669921875 118.166992188 44 121 48 121 c 0
 50 121 52.5 118.833007812 55.5 114.5 c 0
 58.5 110.166992188 62 104.666992188 66 98 c 0
 70 91.3330078125 74.6669921875 84.1669921875 80 76.5 c 0
 85.3330078125 68.8330078125 92 61.6669921875 100 55 c 0
 108 48.3330078125 117.333007812 42.8330078125 128 38.5 c 0
 138.666992188 34.1669921875 151 32 165 32 c 0
 176.333007812 32 186.666992188 33.8330078125 196 37.5 c 0
 205.333007812 41.1669921875 213.5 46.5 220.5 53.5 c 0
 227.5 60.5 233.166992188 68.6669921875 237.5 78 c 0
 241.833007812 87.3330078125 244 97.3330078125 244 108 c 0
 244 120 241.333007812 131 236 141 c 0
 230.666992188 151 223.5 160.166992188 214.5 168.5 c 0
 205.5 176.833007812 195.333007812 184.5 184 191.5 c 0
 172.666992188 198.5 160.666992188 204.666992188 148 210 c 0
 130.666992188 218 116.333007812 226.333007812 105 235 c 0
 93.6669921875 243.666992188 84.3330078125 252.333007812 77 261 c 0
 69.6669921875 269.666992188 64.6669921875 278.833007812 62 288.5 c 0
 59.3330078125 298.166992188 58 308.333007812 58 319 c 0
 58 339.666992188 63.3330078125 358.333007812 74 375 c 0
 84.6669921875 391.666992188 98.3330078125 406.166992188 115 418.5 c 0
 131.666992188 430.833007812 150.333007812 440.333007812 171 447 c 0
 191.666992188 453.666992188 211.666992188 457 231 457 c 0
 247.666992188 457 262 455 274 451 c 0
 286 447 296.833007812 442.5 306.5 437.5 c 0
 316.166992188 432.5 324.666992188 427.5 332 422.5 c 0
 339.333007812 417.5 347 414 355 412 c 0
EndSplineSet
EndChar

StartChar: t
Encoding: 87 116 87
Width: 317
VWidth: 500
Flags: HW
LayerCount: 2
Fore
SplineSet
297 63 m 0
 280.333007812 49.6669921875 263.666992188 38 247 28 c 0
 230.333007812 18 214.5 9.5 199.5 2.5 c 0
 184.5 -4.5 170.833007812 -10 158.5 -14 c 0
 146.166992188 -18 136 -20 128 -20 c 0
 119.333007812 -20 111 -17.5 103 -12.5 c 0
 95 -7.5 87.8330078125 -0.6669921875 81.5 8 c 0
 75.1669921875 16.6669921875 70 27 66 39 c 0
 62 51 60 64 60 78 c 0
 60 84 60.1669921875 90.1669921875 60.5 96.5 c 0
 60.8330078125 102.833007812 61.1669921875 109.333007812 61.5 116 c 0
 61.8330078125 122.666992188 62.5 129.666992188 63.5 137 c 0
 64.5 144.333007812 65.6669921875 152.666992188 67 162 c 0
 104 393 l 0
 35 393 l 0
 26 410 l 0
 79 442 l 0
 111 442 l 0
 114 459 l 0
 116 472.333007812 118.166992188 483.166992188 120.5 491.5 c 0
 122.833007812 499.833007812 125.333007812 506.833007812 128 512.5 c 0
 130.666992188 518.166992188 133.666992188 522.666992188 137 526 c 0
 140.333007812 529.333007812 144 532.666992188 148 536 c 0
 212 574 l 0
 226 562 l 0
 224 559.333007812 221.333007812 554 218 546 c 0
 216 539.333007812 213.5 530 210.5 518 c 0
 207.5 506 204.333007812 490 201 470 c 0
 196 442 l 0
 317 442 l 0
 328 427 l 0
 324.666992188 422.333007812 320 417.166992188 314 411.5 c 0
 308 405.833007812 301.833007812 400.333007812 295.5 395 c 0
 289.166992188 389.666992188 283.166992188 384.833007812 277.5 380.5 c 0
 271.833007812 376.166992188 267.333007812 373 264 371 c 0
 260 380.333007812 252.5 386.333007812 241.5 389 c 0
 230.5 391.666992188 213.333007812 393 190 393 c 0
 188 393 l 0
 156 185 l 0
 155.333007812 179 154.5 172.5 153.5 165.5 c 0
 152.5 158.5 151.833007812 151.833007812 151.5 145.5 c 0
 151.166992188 139.166992188 150.833007812 133.166992188 150.5 127.5 c 0
 150.166992188 121.833007812 150 117.333007812 150 114 c 0
 150 94 153.5 79.3330078125 160.5 70 c 0
 167.5 60.6669921875 175.666992188 56 185 56 c 0
 196.333007812 56 210 58.5 226 63.5 c 0
 242 68.5 262.333007812 76.3330078125 287 87 c 0
 297 63 l 0
EndSplineSet
EndChar

StartChar: u
Encoding: 88 117 88
Width: 511
VWidth: 500
Flags: HW
LayerCount: 2
Fore
SplineSet
491 40 m 0
 464.333007812 22.6669921875 440.833007812 8.3330078125 420.5 -3 c 0
 400.166992188 -14.3330078125 383.333007812 -20 370 -20 c 0
 363.333007812 -20 356.666992188 -17.1669921875 350 -11.5 c 0
 343.333007812 -5.8330078125 337.5 2.8330078125 332.5 14.5 c 0
 327.5 26.1669921875 323.666992188 41.5 321 60.5 c 0
 318.333007812 79.5 317.666992188 102.666992188 319 130 c 0
 305.666992188 108 291.833007812 87.8330078125 277.5 69.5 c 0
 263.166992188 51.1669921875 248 35.3330078125 232 22 c 0
 216 8.6669921875 199.833007812 -1.6669921875 183.5 -9 c 0
 167.166992188 -16.3330078125 150.666992188 -20 134 -20 c 0
 126.666992188 -20 118.5 -17.5 109.5 -12.5 c 0
 100.5 -7.5 92.1669921875 0 84.5 10 c 0
 76.8330078125 20 70.3330078125 32.5 65 47.5 c 0
 59.6669921875 62.5 57 80 57 100 c 0
 57 110 57.8330078125 122.166992188 59.5 136.5 c 0
 61.1669921875 150.833007812 63.3330078125 166.333007812 66 183 c 0
 68.6669921875 199.666992188 71.5 216.833007812 74.5 234.5 c 0
 77.5 252.166992188 80.3330078125 269.166992188 83 285.5 c 0
 85.6669921875 301.833007812 87.8330078125 316.5 89.5 329.5 c 0
 91.1669921875 342.5 92 353 92 361 c 0
 92 368.333007812 91.5 374.333007812 90.5 379 c 0
 89.5 383.666992188 88.1669921875 387 86.5 389 c 0
 84.8330078125 391 82.8330078125 392.333007812 80.5 393 c 0
 78.1669921875 393.666992188 75.3330078125 394 72 394 c 0
 69.3330078125 394 65.3330078125 393.5 60 392.5 c 0
 54.6669921875 391.5 49 390 43 388 c 0
 37 386.666992188 30.3330078125 384.666992188 23 382 c 0
 17 405 l 0
 31 411 45.5 417.166992188 60.5 423.5 c 0
 75.5 429.833007812 89.6669921875 435.5 103 440.5 c 0
 116.333007812 445.5 128.333007812 449.5 139 452.5 c 0
 149.666992188 455.5 157.333007812 457 162 457 c 0
 171.333007812 457 177.666992188 453.833007812 181 447.5 c 0
 184.333007812 441.166992188 186 430.666992188 186 416 c 0
 186 406.666992188 185 394.333007812 183 379 c 0
 181 363.666992188 178.5 347 175.5 329 c 0
 172.5 311 169.333007812 292.333007812 166 273 c 0
 162.666992188 253.666992188 159.5 234.833007812 156.5 216.5 c 0
 153.5 198.166992188 151 181.5 149 166.5 c 0
 147 151.5 146 139 146 129 c 0
 146 101.666992188 149.333007812 81.8330078125 156 69.5 c 0
 162.666992188 57.1669921875 171 51 181 51 c 0
 187 51 195 53.8330078125 205 59.5 c 0
 215 65.1669921875 226.333007812 74.5 239 87.5 c 0
 251.666992188 100.5 265.666992188 117.166992188 281 137.5 c 0
 296.333007812 157.833007812 312 183 328 213 c 0
 330 227 332.166992188 240.833007812 334.5 254.5 c 0
 336.833007812 268.166992188 339.166992188 281.5 341.5 294.5 c 0
 343.833007812 307.5 345.666992188 319.666992188 347 331 c 0
 348.333007812 342.333007812 349 352.333007812 349 361 c 0
 349 368.333007812 348.666992188 374.333007812 348 379 c 0
 347.333007812 383.666992188 346.166992188 387 344.5 389 c 0
 342.833007812 391 340.833007812 392.333007812 338.5 393 c 0
 336.166992188 393.666992188 333.666992188 394 331 394 c 0
 328.333007812 394 324.5 393.5 319.5 392.5 c 0
 314.5 391.5 309.666992188 390 305 388 c 0
 299 386.666992188 293 384.666992188 287 382 c 0
 279 405 l 0
 293 411 307.166992188 417.166992188 321.5 423.5 c 0
 335.833007812 429.833007812 349.5 435.5 362.5 440.5 c 0
 375.5 445.5 387.166992188 449.5 397.5 452.5 c 0
 407.833007812 455.5 415.333007812 457 420 457 c 0
 429.333007812 457 435.333007812 453.833007812 438 447.5 c 0
 440.666992188 441.166992188 442 430.666992188 442 416 c 0
 442 406.666992188 441.166992188 394.5 439.5 379.5 c 0
 437.833007812 364.5 435.5 348.333007812 432.5 331 c 0
 429.5 313.666992188 426.333007812 295.666992188 423 277 c 0
 419.666992188 258.333007812 416.666992188 240 414 222 c 0
 411.333007812 204 409 187.333007812 407 172 c 0
 405 156.666992188 404 143.666992188 404 133 c 0
 404 103.666992188 406.166992188 82.1669921875 410.5 68.5 c 0
 414.833007812 54.8330078125 421 48 429 48 c 0
 437.666992188 48 446 49.1669921875 454 51.5 c 0
 462 53.8330078125 472 57.3330078125 484 62 c 0
 491 40 l 0
EndSplineSet
EndChar

StartChar: v
Encoding: 89 118 89
Width: 456
VWidth: 500
Flags: HW
LayerCount: 2
Fore
SplineSet
449 416 m 0
 449 405.333007812 445.333007812 390.166992188 438 370.5 c 0
 430.666992188 350.833007812 418.666992188 324.833007812 402 292.5 c 0
 385.333007812 260.166992188 363.333007812 220.666992188 336 174 c 0
 308.666992188 127.333007812 275 71.6669921875 235 7 c 0
 232.333007812 5.6669921875 228.5 3.8330078125 223.5 1.5 c 0
 218.5 -0.8330078125 213 -3.3330078125 207 -6 c 0
 201 -8.6669921875 195.333007812 -11.3330078125 190 -14 c 0
 184.666992188 -16.6669921875 180.333007812 -18.6669921875 177 -20 c 0
 161 -4 l 0
 159 14 156.166992188 34.1669921875 152.5 56.5 c 0
 148.833007812 78.8330078125 145.166992188 101.5 141.5 124.5 c 0
 137.833007812 147.5 134 170.5 130 193.5 c 0
 126 216.5 122 238.166992188 118 258.5 c 0
 114 278.833007812 110.166992188 297.166992188 106.5 313.5 c 0
 102.833007812 329.833007812 99.6669921875 343 97 353 c 0
 94.3330078125 361.666992188 91.5 368.666992188 88.5 374 c 0
 85.5 379.333007812 82.5 383.5 79.5 386.5 c 0
 76.5 389.5 73.5 391.333007812 70.5 392 c 0
 67.5 392.666992188 64.6669921875 393 62 393 c 0
 58.6669921875 393 54.3330078125 392.5 49 391.5 c 0
 43.6669921875 390.5 38.3330078125 389 33 387 c 0
 27 385.666992188 20.6669921875 383.666992188 14 381 c 0
 5 404 l 0
 19 410 32.8330078125 416.333007812 46.5 423 c 0
 60.1669921875 429.666992188 72.8330078125 435.5 84.5 440.5 c 0
 96.1669921875 445.5 106.5 449.5 115.5 452.5 c 0
 124.5 455.5 131.333007812 457 136 457 c 0
 145.333007812 457 152.666992188 452.333007812 158 443 c 0
 163.333007812 433.666992188 169.333007812 417.666992188 176 395 c 0
 178 386.333007812 180.833007812 373.5 184.5 356.5 c 0
 188.166992188 339.5 192.166992188 320.333007812 196.5 299 c 0
 200.833007812 277.666992188 205 255.333007812 209 232 c 0
 213 208.666992188 216.666992188 187 220 167 c 0
 223.333007812 147 226 129.666992188 228 115 c 0
 230 100.333007812 231 91 231 87 c 0
 255 125 275.333007812 160.166992188 292 192.5 c 0
 308.666992188 224.833007812 322.333007812 253.5 333 278.5 c 0
 343.666992188 303.5 351.5 324.333007812 356.5 341 c 0
 361.5 357.666992188 364 369.666992188 364 377 c 0
 364 384.333007812 361.5 389.666992188 356.5 393 c 0
 351.5 396.333007812 344.333007812 398 335 398 c 0
 329.666992188 398 323.833007812 397.5 317.5 396.5 c 0
 311.166992188 395.5 304.333007812 393.666992188 297 391 c 0
 288 413 l 0
 298 417.666992188 308.666992188 422.833007812 320 428.5 c 0
 331.333007812 434.166992188 342.833007812 439 354.5 443 c 0
 366.166992188 447 377 450.333007812 387 453 c 0
 397 455.666992188 405.333007812 457 412 457 c 0
 423.333007812 457 432.333007812 454 439 448 c 0
 445.666992188 442 449 431.333007812 449 416 c 0
EndSplineSet
EndChar

StartChar: w
Encoding: 90 119 90
Width: 645
VWidth: 500
Flags: HW
LayerCount: 2
Fore
SplineSet
643 420 m 0
 643 411.333007812 642 401.5 640 390.5 c 0
 638 379.5 634.666992188 366.166992188 630 350.5 c 0
 625.333007812 334.833007812 618.833007812 316.666992188 610.5 296 c 0
 602.166992188 275.333007812 591.666992188 251.166992188 579 223.5 c 0
 566.333007812 195.833007812 550.833007812 164.333007812 532.5 129 c 0
 514.166992188 93.6669921875 492.666992188 53.3330078125 468 8 c 0
 465.333007812 6.6669921875 461.5 4.6669921875 456.5 2 c 0
 451.5 -0.6669921875 446 -3.3330078125 440 -6 c 0
 424 -14 l 0
 416 -18 416 -18 412 -20 c 0
 394 -4 l 0
 390.666992188 24 386.833007812 53.5 382.5 84.5 c 0
 378.166992188 115.5 373.666992188 145.833007812 369 175.5 c 0
 364.333007812 205.166992188 359.833007812 232.5 355.5 257.5 c 0
 351.166992188 282.5 346.666992188 302.333007812 342 317 c 0
 341.333007812 309.666992188 339.166992188 299.833007812 335.5 287.5 c 0
 331.833007812 275.166992188 327 260.666992188 321 244 c 0
 315 227.333007812 308 209.333007812 300 190 c 0
 292 170.666992188 283.333007812 151 274 131 c 0
 264.666992188 111 254.833007812 90.8330078125 244.5 70.5 c 0
 234.166992188 50.1669921875 223.666992188 30.6669921875 213 12 c 0
 210.333007812 10.6669921875 206.166992188 8.5 200.5 5.5 c 0
 194.833007812 2.5 189 -0.6669921875 183 -4 c 0
 177 -7.3330078125 171 -10.5 165 -13.5 c 0
 159 -16.5 154.333007812 -18.6669921875 151 -20 c 0
 135 -4 l 0
 133 14 130.666992188 34.1669921875 128 56.5 c 0
 125.333007812 78.8330078125 122.833007812 101.666992188 120.5 125 c 0
 118.166992188 148.333007812 115.666992188 171.5 113 194.5 c 0
 110.333007812 217.5 107.833007812 239.166992188 105.5 259.5 c 0
 103.166992188 279.833007812 100.666992188 298.166992188 98 314.5 c 0
 95.3330078125 330.833007812 93 343.666992188 91 353 c 0
 89 361.666992188 86.6669921875 368.666992188 84 374 c 0
 81.3330078125 379.333007812 78.3330078125 383.5 75 386.5 c 0
 71.6669921875 389.5 68.5 391.333007812 65.5 392 c 0
 62.5 392.666992188 59.3330078125 393 56 393 c 0
 53.3330078125 393 49.3330078125 392.5 44 391.5 c 0
 38.6669921875 390.5 33.3330078125 389 28 387 c 0
 22 385.666992188 15.3330078125 383.666992188 8 381 c 0
 0 404 l 0
 14 410.666992188 27.6669921875 417.166992188 41 423.5 c 0
 54.3330078125 429.833007812 66.8330078125 435.5 78.5 440.5 c 0
 90.1669921875 445.5 100.333007812 449.5 109 452.5 c 0
 117.666992188 455.5 124.333007812 457 129 457 c 0
 138.333007812 457 145.166992188 451.666992188 149.5 441 c 0
 153.833007812 430.333007812 159 413.333007812 165 390 c 0
 167 381.333007812 169.166992188 369.333007812 171.5 354 c 0
 173.833007812 338.666992188 176.333007812 321.5 179 302.5 c 0
 181.666992188 283.5 184.166992188 263.5 186.5 242.5 c 0
 188.833007812 221.5 191 201.5 193 182.5 c 0
 195 163.5 196.833007812 146.333007812 198.5 131 c 0
 200.166992188 115.666992188 201.333007812 104 202 96 c 0
 215.333007812 121.333007812 228.333007812 148.5 241 177.5 c 0
 253.666992188 206.5 265.333007812 235.166992188 276 263.5 c 0
 286.666992188 291.833007812 295.333007812 319 302 345 c 0
 308.666992188 371 312.666992188 394.333007812 314 415 c 0
 319.333007812 419.666992188 325.5 424.5 332.5 429.5 c 0
 339.5 434.5 346.333007812 439 353 443 c 0
 359.666992188 447 366.166992188 450.333007812 372.5 453 c 0
 378.833007812 455.666992188 384 457 388 457 c 0
 389.333007812 457 391 454.333007812 393 449 c 0
 395 443.666992188 397 436.666992188 399 428 c 0
 401 419.333007812 403.333007812 409.166992188 406 397.5 c 0
 408.666992188 385.833007812 411.166992188 374 413.5 362 c 0
 417 344 417 344 420.5 326 c 0
 422.833007812 314 425 303 427 293 c 0
 429 277.666992188 431.5 261.166992188 434.5 243.5 c 0
 439 217 439 217 443.5 190.5 c 0
 446.5 172.833007812 449.166992188 155.166992188 451.5 137.5 c 0
 453.833007812 119.833007812 456 103.333007812 458 88 c 0
 480 128 498.333007812 163.666992188 513 195 c 0
 527.666992188 226.333007812 539.333007812 253.666992188 548 277 c 0
 556.666992188 300.333007812 562.666992188 320.5 566 337.5 c 0
 569.333007812 354.5 571 368.666992188 571 380 c 0
 571 386.666992188 568.666992188 392 564 396 c 0
 559.333007812 400 552.666992188 402 544 402 c 0
 539.333007812 402 533.666992188 401.333007812 527 400 c 0
 520.333007812 398.666992188 513.333007812 397 506 395 c 0
 496 418 l 0
 507.333007812 424.666992188 518.5 430.5 529.5 435.5 c 0
 540.5 440.5 550.666992188 444.666992188 560 448 c 0
 569.333007812 451.333007812 577.666992188 453.666992188 585 455 c 0
 592.333007812 456.333007812 598 457 602 457 c 0
 607.333007812 457 612.5 456.666992188 617.5 456 c 0
 622.5 455.333007812 626.833007812 453.666992188 630.5 451 c 0
 634.166992188 448.333007812 637.166992188 444.5 639.5 439.5 c 0
 641.833007812 434.5 643 428 643 420 c 0
EndSplineSet
EndChar

StartChar: x
Encoding: 91 120 91
Width: 447
VWidth: 500
Flags: HW
LayerCount: 2
Fore
SplineSet
437 40 m 0
 409 20.6669921875 385.5 5.8330078125 366.5 -4.5 c 0
 347.5 -14.8330078125 331 -20 317 -20 c 0
 307 -20 297.333007812 -15.1669921875 288 -5.5 c 0
 278.666992188 4.1669921875 269.333007812 17 260 33 c 0
 250.666992188 49 241.333007812 67.5 232 88.5 c 0
 222.666992188 109.5 213.666992188 131.666992188 205 155 c 0
 190.333007812 135 172.833007812 111.666992188 152.5 85 c 0
 132.166992188 58.3330078125 111.333007812 29.3330078125 90 -2 c 0
 84 -2.6669921875 76.8330078125 -3.6669921875 68.5 -5 c 0
 60.1669921875 -6.3330078125 51.6669921875 -7.8330078125 43 -9.5 c 0
 34.3330078125 -11.1669921875 25.8330078125 -13 17.5 -15 c 0
 9.1669921875 -17 2 -18.6669921875 -4 -20 c 0
 -17 -2 l 0
 -2.3330078125 11.3330078125 13.8330078125 26.3330078125 31.5 43 c 0
 49.1669921875 59.6669921875 66.8330078125 77.1669921875 84.5 95.5 c 0
 102.166992188 113.833007812 119.666992188 132.5 137 151.5 c 0
 154.333007812 170.5 170.333007812 188.666992188 185 206 c 0
 175.666992188 230 166.5 253.333007812 157.5 276 c 0
 148.5 298.666992188 139.666992188 318.666992188 131 336 c 0
 122.333007812 353.333007812 113.833007812 367.333007812 105.5 378 c 0
 97.1669921875 388.666992188 89.3330078125 394 82 394 c 0
 79.3330078125 394 74.5 393.333007812 67.5 392 c 0
 60.5 390.666992188 53.3330078125 389.333007812 46 388 c 0
 37.3330078125 386 28.6669921875 383.666992188 20 381 c 0
 12 405 l 0
 26 411 39.6669921875 417.166992188 53 423.5 c 0
 66.3330078125 429.833007812 78.6669921875 435.5 90 440.5 c 0
 101.333007812 445.5 111.333007812 449.5 120 452.5 c 0
 128.666992188 455.5 135 457 139 457 c 0
 147.666992188 457 156.5 451.666992188 165.5 441 c 0
 174.5 430.333007812 183.666992188 416.166992188 193 398.5 c 0
 202.333007812 380.833007812 211.666992188 360.666992188 221 338 c 0
 230.333007812 315.333007812 240 291.666992188 250 267 c 0
 262.666992188 282.333007812 274.666992188 297.666992188 286 313 c 0
 297.333007812 328.333007812 307.333007812 342.333007812 316 355 c 0
 324.666992188 367.666992188 331.666992188 378.333007812 337 387 c 0
 342.333007812 395.666992188 345 401 345 403 c 0
 345 406.333007812 344.333007812 409.333007812 343 412 c 0
 341.666992188 414.666992188 339.166992188 416.666992188 335.5 418 c 0
 331.833007812 419.333007812 326.833007812 420 320.5 420 c 0
 314.166992188 420 305.666992188 419.666992188 295 419 c 0
 293 444 l 0
 303.666992188 446 314.333007812 447.833007812 325 449.5 c 0
 335.666992188 451.166992188 345.833007812 452.666992188 355.5 454 c 0
 365.166992188 455.333007812 373.833007812 456.166992188 381.5 456.5 c 0
 389.166992188 456.833007812 395.333007812 457 400 457 c 0
 416.666992188 457 428.5 454.333007812 435.5 449 c 0
 442.5 443.666992188 446 437.666992188 446 431 c 0
 446 424.333007812 442.166992188 415.5 434.5 404.5 c 0
 426.833007812 393.5 415.5 379.166992188 400.5 361.5 c 0
 385.5 343.833007812 367 323.333007812 345 300 c 0
 323 276.666992188 297.666992188 249.333007812 269 218 c 0
 277.666992188 195.333007812 286.333007812 173.833007812 295 153.5 c 0
 303.666992188 133.166992188 312.166992188 115 320.5 99 c 0
 328.833007812 83 336.833007812 70.3330078125 344.5 61 c 0
 352.166992188 51.6669921875 359.666992188 47 367 47 c 0
 374.333007812 47 383.166992188 48.1669921875 393.5 50.5 c 0
 403.833007812 52.8330078125 415 57 427 63 c 0
 437 40 l 0
EndSplineSet
EndChar

